<svg id="Layer_1" data-name="Layer 1" xmlns="http://www.w3.org/2000/svg" xmlns:xlink="http://www.w3.org/1999/xlink" viewBox="0 0 785.59 96"><defs><style>.cls-1,.cls-2,.cls-3,.cls-4,.cls-5,.cls-6,.cls-7{fill-rule:evenodd;}.cls-1{fill:url(#linear-gradient);}.cls-2{fill:url(#linear-gradient-2);}.cls-3{fill:url(#linear-gradient-3);}.cls-4{fill:url(#linear-gradient-4);}.cls-5{fill:url(#linear-gradient-5);}.cls-6{fill:url(#linear-gradient-6);}.cls-7{fill:url(#linear-gradient-7);}</style><linearGradient id="linear-gradient" x1="165.55" y1="0.83" x2="165.55" y2="108.42" gradientUnits="userSpaceOnUse"><stop offset="0" stop-color="#ff07aa"/><stop offset="1" stop-color="#9c2fba"/></linearGradient><linearGradient id="linear-gradient-2" x1="269.31" y1="0.83" x2="269.31" y2="108.42" xlink:href="#linear-gradient"/><linearGradient id="linear-gradient-3" x1="368.02" y1="0.83" x2="368.02" y2="108.42" xlink:href="#linear-gradient"/><linearGradient id="linear-gradient-4" x1="609" y1="0.83" x2="609" y2="108.42" xlink:href="#linear-gradient"/><linearGradient id="linear-gradient-5" x1="741.12" y1="0.83" x2="741.12" y2="108.42" xlink:href="#linear-gradient"/><linearGradient id="linear-gradient-6" x1="46.5" y1="0.83" x2="46.5" y2="108.42" xlink:href="#linear-gradient"/><linearGradient id="linear-gradient-7" x1="480.5" y1="0.83" x2="480.5" y2="108.42" xlink:href="#linear-gradient"/></defs><path class="cls-1" d="M186.25,6.71a28.3,28.3,0,0,0-10.15-5A48.74,48.74,0,0,0,162.93,0H136.05V95.19h9.68V54.74h16.94A47.34,47.34,0,0,0,175.9,53a29,29,0,0,0,10.22-5.2,23.09,23.09,0,0,0,6.58-8.52,28.6,28.6,0,0,0,2.35-12,29.31,29.31,0,0,0-2.28-12A22.37,22.37,0,0,0,186.25,6.71ZM179.2,41.57q-5.92,4.76-17.34,4.76h-16.4V9.38h16.4q11,0,17.13,4.4t6.12,13.93Q185.13,36.82,179.2,41.57Z"/><path class="cls-2" d="M290,6.71a28.21,28.21,0,0,0-10.13-5A48.74,48.74,0,0,0,266.7,0H239.82V95.19h9.68V54.74h16.94A47.34,47.34,0,0,0,279.67,53a29.1,29.1,0,0,0,10.2-5.2,23.09,23.09,0,0,0,6.58-8.52,28.6,28.6,0,0,0,2.35-12,29.31,29.31,0,0,0-2.28-12A22.37,22.37,0,0,0,290,6.71Zm-7,34.86q-5.93,4.76-17.34,4.76h-16.4V9.38h16.4q11,0,17.13,4.4t6.12,13.93Q288.9,36.82,283,41.57Z"/><polygon class="cls-3" points="348.67 0 339 0 339 96 392.85 96 397.05 87.32 348.67 87.32 348.67 0"/><polygon class="cls-4" points="638.25 81.76 637.98 81.76 582.19 0 570 0 570 96 579.75 96 579.75 13.42 580.02 13.42 635.81 96 648 96 648 0 638.25 0 638.25 81.76"/><path class="cls-5" d="M777.23,27.05a45.6,45.6,0,0,0-11.55-15,48.41,48.41,0,0,0-16-9A55.11,55.11,0,0,0,732,0H700.59V96H732a55.11,55.11,0,0,0,17.68-3,48.41,48.41,0,0,0,16-9,45.91,45.91,0,0,0,11.55-15q4.39-8.92,4.4-21A47.27,47.27,0,0,0,777.23,27.05Zm-8.66,35.59a36.33,36.33,0,0,1-7.81,12.55,38.82,38.82,0,0,1-13.14,8.88A47.09,47.09,0,0,1,729,87.46H709.93V8.81H729a47.1,47.1,0,0,1,18.62,3.4,38.82,38.82,0,0,1,13.14,8.88,36.58,36.58,0,0,1,7.81,12.55A41.81,41.81,0,0,1,768.57,62.64Z"/><polygon class="cls-6" points="51.4 9.53 46.5 0 41.84 9.53 0 96 10.82 96 16.03 84.61 21.32 73.3 35.21 42.34 46.5 19.2 71.37 73.3 73.97 78.81 82.11 96 93 96 79.66 68.24 51.4 9.53"/><polygon class="cls-7" points="485.39 9.53 480.5 0 475.84 9.53 434 96 444.82 96 450.03 84.61 455.32 73.3 469.21 42.34 480.5 19.2 505.37 73.3 507.97 78.81 516.11 96 527 96 513.66 68.24 485.39 9.53"/></svg>