<svg width="1920" height="1080" viewBox="0 0 1920 1080" fill="none" xmlns="http://www.w3.org/2000/svg">
<g clip-path="url(#clip0)">
<rect width="1920" height="1080" fill="white"/>
<rect x="1909" y="1051" width="1915" height="176" transform="rotate(-180 1909 1051)" fill="url(#paint0_linear)"/>
<rect x="2" y="-29" width="1915" height="286" fill="url(#paint1_linear)"/>
<path d="M0.5 -28.5H1919.5V1050.5H0.5V-28.5Z" fill="url(#paint2_linear)" stroke="black"/>
<rect x="1087.29" y="826.216" width="166.985" height="156.762" fill="black"/>
<rect x="1182.71" y="901.189" width="166.985" height="81.7887" fill="black"/>
<rect x="637.457" y="826.216" width="44.3022" height="153.354" fill="black"/>
<rect x="2" y="826" width="1918" height="333" fill="black"/>
<rect x="579.523" y="884.15" width="44.3022" height="95.4202" fill="black"/>
<rect x="-6" y="1080" width="1080" height="347" transform="rotate(-90 -6 1080)" fill="url(#paint3_linear)"/>
<g opacity="0.29">
<mask id="path-10-inside-1" fill="white">
<path d="M364 412L391.181 417.424L459.566 484.253"/>
</mask>
<path d="M391.181 417.424L391.744 416.847L391.573 416.68L391.339 416.633L391.181 417.424ZM363.842 412.791L391.023 418.214L391.339 416.633L364.158 411.209L363.842 412.791ZM390.618 418L459.002 484.83L460.129 483.677L391.744 416.847L390.618 418Z" fill="#419EF3" mask="url(#path-10-inside-1)"/>
<mask id="path-12-inside-2" fill="white">
<path d="M326.283 386.194L391.031 103H476.039H561.048H659.137H757.227H853.065H948.903H1033.7H1118.5H1206.7H1294.9H1367.35H1439.79H1512.19H1584.58H1673.95H1763.31L1810.16 150.627"/>
</mask>
<path d="M391.031 103V102.194H390.388L390.245 102.82L391.031 103ZM1763.31 103L1763.89 102.435L1763.65 102.194H1763.31V103ZM327.069 386.374L391.817 103.18L390.245 102.82L325.497 386.014L327.069 386.374ZM391.031 103.806H476.039V102.194H391.031V103.806ZM476.039 103.806H561.048V102.194H476.039V103.806ZM561.048 103.806H659.137V102.194H561.048V103.806ZM659.137 103.806H757.227V102.194H659.137V103.806ZM757.227 103.806H853.065V102.194H757.227V103.806ZM853.065 103.806H948.903V102.194H853.065V103.806ZM948.903 103.806H1033.7V102.194H948.903V103.806ZM1033.7 103.806H1118.5V102.194H1033.7V103.806ZM1118.5 103.806H1206.7V102.194H1118.5V103.806ZM1206.7 103.806H1294.9V102.194H1206.7V103.806ZM1294.9 103.806H1367.35V102.194H1294.9V103.806ZM1367.35 103.806H1439.79V102.194H1367.35V103.806ZM1439.79 103.806H1512.19V102.194H1439.79V103.806ZM1512.19 103.806H1584.58V102.194H1512.19V103.806ZM1584.58 103.806H1673.95V102.194H1584.58V103.806ZM1673.95 103.806H1763.31V102.194H1673.95V103.806ZM1762.74 103.565L1809.59 151.192L1810.74 150.061L1763.89 102.435L1762.74 103.565Z" fill="#419EF3" mask="url(#path-12-inside-2)"/>
<mask id="path-14-inside-3" fill="white">
<path d="M329.897 386.194L391.03 250.689H476.039H561.047H659.137H757.226H853.064H948.903H1033.7H1118.5H1206.7H1294.9L1343.56 283.919"/>
</mask>
<path d="M391.03 250.689V249.883H390.51L390.295 250.358L391.03 250.689ZM1294.9 250.689L1295.35 250.023L1295.15 249.883H1294.9V250.689ZM330.632 386.525L391.765 251.021L390.295 250.358L329.163 385.862L330.632 386.525ZM391.03 251.495H476.039V249.883H391.03V251.495ZM476.039 251.495H561.047V249.883H476.039V251.495ZM561.047 251.495H659.137V249.883H561.047V251.495ZM659.137 251.495H757.226V249.883H659.137V251.495ZM757.226 251.495H853.064V249.883H757.226V251.495ZM853.064 251.495H948.903V249.883H853.064V251.495ZM948.903 251.495H1033.7V249.883H948.903V251.495ZM1033.7 251.495H1118.5V249.883H1033.7V251.495ZM1118.5 251.495H1206.7V249.883H1118.5V251.495ZM1206.7 251.495H1294.9V249.883H1206.7V251.495ZM1294.44 251.355L1343.1 284.585L1344.01 283.253L1295.35 250.023L1294.44 251.355Z" fill="#419EF3" mask="url(#path-14-inside-3)"/>
<mask id="path-16-inside-4" fill="white">
<path d="M479.659 482.93L561.047 117.769H659.136H757.225H853.064H948.902H1033.7H1118.49H1206.7H1294.9H1367.34H1439.79H1512.18H1584.58H1673.95H1763.31L1803.14 151.624"/>
</mask>
<path d="M561.047 117.769V116.963H560.401L560.26 117.594L561.047 117.769ZM1763.31 117.769L1763.83 117.155L1763.61 116.963H1763.31V117.769ZM480.446 483.106L561.834 117.944L560.26 117.594L478.872 482.755L480.446 483.106ZM561.047 118.575H659.136V116.963H561.047V118.575ZM659.136 118.575H757.225V116.963H659.136V118.575ZM757.225 118.575H853.064V116.963H757.225V118.575ZM853.064 118.575H948.902V116.963H853.064V118.575ZM948.902 118.575H1033.7V116.963H948.902V118.575ZM1033.7 118.575H1118.49V116.963H1033.7V118.575ZM1118.49 118.575H1206.7V116.963H1118.49V118.575ZM1206.7 118.575H1294.9V116.963H1206.7V118.575ZM1294.9 118.575H1367.34V116.963H1294.9V118.575ZM1367.34 118.575H1439.79V116.963H1367.34V118.575ZM1439.79 118.575H1512.18V116.963H1439.79V118.575ZM1512.18 118.575H1584.58V116.963H1512.18V118.575ZM1584.58 118.575H1673.95V116.963H1584.58V118.575ZM1673.95 118.575H1763.31V116.963H1673.95V118.575ZM1762.79 118.383L1802.62 152.238L1803.66 151.009L1763.83 117.155L1762.79 118.383Z" fill="#419EF3" mask="url(#path-16-inside-4)"/>
<mask id="path-18-inside-5" fill="white">
<path d="M485.03 482.93L561.047 345.579L588.228 351.718"/>
</mask>
<path d="M561.047 345.579L561.225 344.793L560.635 344.66L560.342 345.189L561.047 345.579ZM485.736 483.321L561.753 345.97L560.342 345.189L484.325 482.54L485.736 483.321ZM560.87 346.366L588.051 352.504L588.406 350.932L561.225 344.793L560.87 346.366Z" fill="#419EF3" mask="url(#path-18-inside-5)"/>
<mask id="path-20-inside-6" fill="white">
<path d="M498.708 482.93L561.048 438.254H659.137H757.226L784.407 442.443"/>
</mask>
<path d="M561.048 438.254V437.448H560.789L560.578 437.599L561.048 438.254ZM757.226 438.254L757.349 437.458L757.288 437.448H757.226V438.254ZM499.178 483.586L561.517 438.91L560.578 437.599L498.238 482.275L499.178 483.586ZM561.048 439.06H659.137V437.448H561.048V439.06ZM659.137 439.06H757.226V437.448H659.137V439.06ZM757.103 439.051L784.284 443.24L784.53 441.646L757.349 437.458L757.103 439.051Z" fill="#419EF3" mask="url(#path-20-inside-6)"/>
<mask id="path-22-inside-7" fill="white">
<path d="M483.946 482.93L561.047 324.534H659.136H757.226H853.064H948.903H1033.7H1118.49L1200.35 533.883"/>
</mask>
<path d="M561.047 324.534V323.727H560.543L560.322 324.181L561.047 324.534ZM1118.49 324.534L1119.25 324.24L1119.05 323.727H1118.49V324.534ZM484.671 483.283L561.772 324.886L560.322 324.181L483.221 482.577L484.671 483.283ZM561.047 325.34H659.136V323.727H561.047V325.34ZM659.136 325.34H757.226V323.727H659.136V325.34ZM757.226 325.34H853.064V323.727H757.226V325.34ZM853.064 325.34H948.903V323.727H853.064V325.34ZM948.903 325.34H1033.7V323.727H948.903V325.34ZM1033.7 325.34H1118.49V323.727H1033.7V325.34ZM1117.74 324.827L1199.59 534.176L1201.1 533.589L1119.25 324.24L1117.74 324.827Z" fill="#419EF3" mask="url(#path-22-inside-7)"/>
<mask id="path-24-inside-8" fill="white">
<path d="M481.006 482.93L561.047 221.151H659.136H757.226H853.064H948.903H1033.7H1118.49H1206.7H1294.9H1367.35H1439.79H1512.19H1584.58L1668.18 456.715"/>
</mask>
<path d="M561.047 221.151V220.345H560.451L560.276 220.916L561.047 221.151ZM1584.58 221.151L1585.34 220.882L1585.15 220.345H1584.58V221.151ZM481.777 483.166L561.818 221.387L560.276 220.916L480.235 482.695L481.777 483.166ZM561.047 221.958H659.136V220.345H561.047V221.958ZM659.136 221.958H757.226V220.345H659.136V221.958ZM757.226 221.958H853.064V220.345H757.226V221.958ZM853.064 221.958H948.903V220.345H853.064V221.958ZM948.903 221.958H1033.7V220.345H948.903V221.958ZM1033.7 221.958H1118.49V220.345H1033.7V221.958ZM1118.49 221.958H1206.7V220.345H1118.49V221.958ZM1206.7 221.958H1294.9V220.345H1206.7V221.958ZM1294.9 221.958H1367.35V220.345H1294.9V221.958ZM1367.35 221.958H1439.79V220.345H1367.35V221.958ZM1439.79 221.958H1512.19V220.345H1439.79V221.958ZM1512.19 221.958H1584.58V220.345H1512.19V221.958ZM1583.82 221.421L1667.42 456.985L1668.94 456.446L1585.34 220.882L1583.82 221.421Z" fill="#419EF3" mask="url(#path-24-inside-8)"/>
<mask id="path-26-inside-9" fill="white">
<path d="M533.866 496.413L561.047 495.115H659.137H757.226H853.064H948.903L987.061 508.406"/>
</mask>
<path d="M561.047 495.115V494.308H561.028L561.009 494.309L561.047 495.115ZM948.903 495.115L949.168 494.353L949.039 494.308H948.903V495.115ZM533.905 497.218L561.086 495.92L561.009 494.309L533.828 495.608L533.905 497.218ZM561.047 495.921H659.137V494.308H561.047V495.921ZM659.137 495.921H757.226V494.308H659.137V495.921ZM757.226 495.921H853.064V494.308H757.226V495.921ZM853.064 495.921H948.903V494.308H853.064V495.921ZM948.637 495.876L986.796 509.168L987.326 507.645L949.168 494.353L948.637 495.876Z" fill="#419EF3" mask="url(#path-26-inside-9)"/>
<mask id="path-28-inside-10" fill="white">
<path d="M467.133 515.422L391.031 654.25L326.985 418.685"/>
</mask>
<path d="M391.031 654.25L390.253 654.461L390.777 656.389L391.737 654.637L391.031 654.25ZM466.426 515.034L390.324 653.862L391.737 654.637L467.84 515.809L466.426 515.034ZM391.808 654.038L327.763 418.474L326.207 418.897L390.253 654.461L391.808 654.038Z" fill="#419EF3" mask="url(#path-28-inside-10)"/>
<mask id="path-30-inside-11" fill="white">
<path d="M481.948 482.93L561.048 265.458H659.137H757.226H853.065H948.903H1033.7H1118.5H1206.7H1294.9L1333.43 283.919"/>
</mask>
<path d="M561.048 265.458V264.652H560.483L560.29 265.182L561.048 265.458ZM1294.9 265.458L1295.25 264.731L1295.08 264.652H1294.9V265.458ZM482.706 483.206L561.805 265.734L560.29 265.182L481.191 482.655L482.706 483.206ZM561.048 266.264H659.137V264.652H561.048V266.264ZM659.137 266.264H757.226V264.652H659.137V266.264ZM757.226 266.264H853.065V264.652H757.226V266.264ZM853.065 266.264H948.903V264.652H853.065V266.264ZM948.903 266.264H1033.7V264.652H948.903V266.264ZM1033.7 266.264H1118.5V264.652H1033.7V266.264ZM1118.5 266.264H1206.7V264.652H1118.5V266.264ZM1206.7 266.264H1294.9V264.652H1206.7V266.264ZM1294.55 266.185L1333.09 284.646L1333.78 283.192L1295.25 264.731L1294.55 266.185Z" fill="#419EF3" mask="url(#path-30-inside-11)"/>
<mask id="path-32-inside-12" fill="white">
<path d="M482.556 515.422L561.048 711.11H659.137H757.227H853.065H948.903H1033.7H1118.5H1206.7H1294.9H1367.35H1439.79L1466.97 719.428"/>
</mask>
<path d="M561.048 711.11L560.3 711.41L560.503 711.916H561.048V711.11ZM1439.79 711.11L1440.03 710.339L1439.91 710.304H1439.79V711.11ZM481.807 515.722L560.3 711.41L561.796 710.81L483.304 515.122L481.807 515.722ZM561.048 711.916H659.137V710.304H561.048V711.916ZM659.137 711.916H757.227V710.304H659.137V711.916ZM757.227 711.916H853.065V710.304H757.227V711.916ZM853.065 711.916H948.903V710.304H853.065V711.916ZM948.903 711.916H1033.7V710.304H948.903V711.916ZM1033.7 711.916H1118.5V710.304H1033.7V711.916ZM1118.5 711.916H1206.7V710.304H1118.5V711.916ZM1206.7 711.916H1294.9V710.304H1206.7V711.916ZM1294.9 711.916H1367.35V710.304H1294.9V711.916ZM1367.35 711.916H1439.79V710.304H1367.35V711.916ZM1439.56 711.881L1466.74 720.198L1467.21 718.657L1440.03 710.339L1439.56 711.881Z" fill="#419EF3" mask="url(#path-32-inside-12)"/>
<mask id="path-34-inside-13" fill="white">
<path d="M227.283 364.663L254.107 360.348H322.569H391.031H476.04H561.048L588.229 362.395"/>
</mask>
<path d="M254.107 360.348V359.542H254.043L253.979 359.552L254.107 360.348ZM561.048 360.348L561.109 359.544L561.079 359.542H561.048V360.348ZM227.411 365.459L254.235 361.144L253.979 359.552L227.155 363.867L227.411 365.459ZM254.107 361.154H322.569V359.542H254.107V361.154ZM322.569 361.154H391.031V359.542H322.569V361.154ZM391.031 361.154H476.04V359.542H391.031V361.154ZM476.04 361.154H561.048V359.542H476.04V361.154ZM560.988 361.152L588.169 363.198L588.29 361.591L561.109 359.544L560.988 361.152Z" fill="#419EF3" mask="url(#path-34-inside-13)"/>
<mask id="path-36-inside-14" fill="white">
<path d="M205.05 394.864L254.106 402.44H281.287"/>
</mask>
<path d="M254.106 402.44L253.983 403.236L254.044 403.246H254.106V402.44ZM204.927 395.66L253.983 403.236L254.229 401.643L205.173 394.067L204.927 395.66ZM254.106 403.246H281.287V401.634H254.106V403.246Z" fill="#419EF3" mask="url(#path-36-inside-14)"/>
<mask id="path-38-inside-15" fill="white">
<path d="M131.16 396.901L254.106 532.037H322.568H391.03L434.012 515.422"/>
</mask>
<path d="M254.106 532.037L253.51 532.579L253.749 532.843H254.106V532.037ZM391.03 532.037V532.843H391.18L391.321 532.789L391.03 532.037ZM130.564 397.444L253.51 532.579L254.702 531.494L131.756 396.359L130.564 397.444ZM254.106 532.843H322.568V531.231H254.106V532.843ZM322.568 532.843H391.03V531.231H322.568V532.843ZM391.321 532.789L434.302 516.174L433.721 514.67L390.739 531.285L391.321 532.789Z" fill="#419EF3" mask="url(#path-38-inside-15)"/>
<mask id="path-40-inside-16" fill="white">
<path d="M125.424 364.41L254.106 132.538H322.568H391.03H476.039H561.047H659.137H757.226H853.065H948.903H1033.7H1118.5H1206.7H1294.9H1367.35H1439.79H1512.19H1584.58H1673.95H1763.31L1791.44 155.278"/>
</mask>
<path d="M254.106 132.538V131.732H253.632L253.401 132.147L254.106 132.538ZM1763.31 132.538L1763.82 131.911L1763.6 131.732H1763.31V132.538ZM126.129 364.801L254.811 132.929L253.401 132.147L124.719 364.018L126.129 364.801ZM254.106 133.344H322.568V131.732H254.106V133.344ZM322.568 133.344H391.03V131.732H322.568V133.344ZM391.03 133.344H476.039V131.732H391.03V133.344ZM476.039 133.344H561.047V131.732H476.039V133.344ZM561.047 133.344H659.137V131.732H561.047V133.344ZM659.137 133.344H757.226V131.732H659.137V133.344ZM757.226 133.344H853.065V131.732H757.226V133.344ZM853.065 133.344H948.903V131.732H853.065V133.344ZM948.903 133.344H1033.7V131.732H948.903V133.344ZM1033.7 133.344H1118.5V131.732H1033.7V133.344ZM1118.5 133.344H1206.7V131.732H1118.5V133.344ZM1206.7 133.344H1294.9V131.732H1206.7V133.344ZM1294.9 133.344H1367.35V131.732H1294.9V133.344ZM1367.35 133.344H1439.79V131.732H1367.35V133.344ZM1439.79 133.344H1512.19V131.732H1439.79V133.344ZM1512.19 133.344H1584.58V131.732H1512.19V133.344ZM1584.58 133.344H1673.95V131.732H1584.58V133.344ZM1673.95 133.344H1763.31V131.732H1673.95V133.344ZM1762.81 133.165L1790.94 155.905L1791.95 154.651L1763.82 131.911L1762.81 133.165Z" fill="#419EF3" mask="url(#path-40-inside-16)"/>
<mask id="path-42-inside-17" fill="white">
<path d="M670.348 383.978L757.227 509.883H853.065H948.904L976.085 514.617"/>
</mask>
<path d="M757.227 509.883L756.563 510.341L756.804 510.689H757.227V509.883ZM948.904 509.883L949.042 509.089L948.973 509.077H948.904V509.883ZM669.684 384.436L756.563 510.341L757.89 509.425L671.011 383.521L669.684 384.436ZM757.227 510.689H853.065V509.077H757.227V510.689ZM853.065 510.689H948.904V509.077H853.065V510.689ZM948.765 510.678L975.946 515.412L976.223 513.823L949.042 509.089L948.765 510.678Z" fill="#419EF3" mask="url(#path-42-inside-17)"/>
<mask id="path-44-inside-18" fill="white">
<path d="M666.366 351.487L757.226 147.307H853.065H948.903H1033.7H1118.5H1206.7H1294.9H1367.35H1439.79H1512.19H1584.58H1673.95H1763.31L1790.49 158.021"/>
</mask>
<path d="M757.226 147.307V146.5H756.703L756.49 146.979L757.226 147.307ZM1763.31 147.307L1763.61 146.557L1763.47 146.5H1763.31V147.307ZM667.103 351.815L757.963 147.634L756.49 146.979L665.63 351.159L667.103 351.815ZM757.226 148.113H853.065V146.5H757.226V148.113ZM853.065 148.113H948.903V146.5H853.065V148.113ZM948.903 148.113H1033.7V146.5H948.903V148.113ZM1033.7 148.113H1118.5V146.5H1033.7V148.113ZM1118.5 148.113H1206.7V146.5H1118.5V148.113ZM1206.7 148.113H1294.9V146.5H1206.7V148.113ZM1294.9 148.113H1367.35V146.5H1294.9V148.113ZM1367.35 148.113H1439.79V146.5H1367.35V148.113ZM1439.79 148.113H1512.19V146.5H1439.79V148.113ZM1512.19 148.113H1584.58V146.5H1512.19V148.113ZM1584.58 148.113H1673.95V146.5H1584.58V148.113ZM1673.95 148.113H1763.31V146.5H1673.95V148.113ZM1763.02 148.057L1790.2 158.771L1790.79 157.271L1763.61 146.557L1763.02 148.057Z" fill="#419EF3" mask="url(#path-44-inside-18)"/>
<mask id="path-46-inside-19" fill="white">
<path d="M626.929 383.978L561.048 417.208L492.888 482.93"/>
</mask>
<path d="M561.048 417.208L560.685 416.489L560.576 416.544L560.488 416.628L561.048 417.208ZM626.566 383.259L560.685 416.489L561.411 417.928L627.292 384.698L626.566 383.259ZM560.488 416.628L492.328 482.35L493.447 483.51L561.607 417.789L560.488 416.628Z" fill="#419EF3" mask="url(#path-46-inside-19)"/>
<mask id="path-48-inside-20" fill="white">
<path d="M730.046 367.733H757.227H853.065H948.904H1033.7H1118.5L1198.84 533.883"/>
</mask>
<path d="M1118.5 367.733L1119.22 367.382L1119 366.927H1118.5V367.733ZM730.046 368.539H757.227V366.927H730.046V368.539ZM757.227 368.539H853.065V366.927H757.227V368.539ZM853.065 368.539H948.904V366.927H853.065V368.539ZM948.904 368.539H1033.7V366.927H948.904V368.539ZM1033.7 368.539H1118.5V366.927H1033.7V368.539ZM1117.77 368.084L1198.12 534.234L1199.57 533.532L1119.22 367.382L1117.77 368.084Z" fill="#419EF3" mask="url(#path-48-inside-20)"/>
<mask id="path-50-inside-21" fill="white">
<path d="M677.82 383.978L757.226 453.023H784.407"/>
</mask>
<path d="M757.226 453.023L756.697 453.631L756.924 453.829H757.226V453.023ZM677.291 384.587L756.697 453.631L757.755 452.415L678.349 383.37L677.291 384.587ZM757.226 453.829H784.407V452.217H757.226V453.829Z" fill="#419EF3" mask="url(#path-50-inside-21)"/>
<mask id="path-52-inside-22" fill="white">
<path d="M677.347 351.487L757.225 280.227H853.064H948.902H1033.7H1118.49H1206.7H1294.9L1322.08 287.707"/>
</mask>
<path d="M757.225 280.227V279.421H756.918L756.689 279.625L757.225 280.227ZM1294.9 280.227L1295.11 279.45L1295.01 279.421H1294.9V280.227ZM677.883 352.088L757.762 280.828L756.689 279.625L676.81 350.885L677.883 352.088ZM757.225 281.033H853.064V279.421H757.225V281.033ZM853.064 281.033H948.902V279.421H853.064V281.033ZM948.902 281.033H1033.7V279.421H948.902V281.033ZM1033.7 281.033H1118.49V279.421H1033.7V281.033ZM1118.49 281.033H1206.7V279.421H1118.49V281.033ZM1206.7 281.033H1294.9V279.421H1206.7V281.033ZM1294.68 281.004L1321.87 288.485L1322.29 286.93L1295.11 279.45L1294.68 281.004Z" fill="#419EF3" mask="url(#path-52-inside-22)"/>
<mask id="path-54-inside-23" fill="white">
<path d="M665.466 383.978L757.227 619.542L794.796 627.793"/>
</mask>
<path d="M757.227 619.542L756.476 619.835L756.632 620.237L757.054 620.33L757.227 619.542ZM664.715 384.271L756.476 619.835L757.978 619.25L666.217 383.686L664.715 384.271ZM757.054 620.33L794.623 628.58L794.969 627.005L757.4 618.755L757.054 620.33Z" fill="#419EF3" mask="url(#path-54-inside-23)"/>
<mask id="path-56-inside-24" fill="white">
<path d="M671.227 351.487L757.226 235.92H853.065H948.903H1033.7H1118.5H1206.7H1294.9H1367.35H1439.79H1512.19H1584.58L1667.82 456.715"/>
</mask>
<path d="M757.226 235.92V235.114H756.821L756.58 235.439L757.226 235.92ZM1584.58 235.92L1585.34 235.636L1585.14 235.114H1584.58V235.92ZM671.873 351.968L757.873 236.401L756.58 235.439L670.58 351.006L671.873 351.968ZM757.226 236.726H853.065V235.114H757.226V236.726ZM853.065 236.726H948.903V235.114H853.065V236.726ZM948.903 236.726H1033.7V235.114H948.903V236.726ZM1033.7 236.726H1118.5V235.114H1033.7V236.726ZM1118.5 236.726H1206.7V235.114H1118.5V236.726ZM1206.7 236.726H1294.9V235.114H1206.7V236.726ZM1294.9 236.726H1367.35V235.114H1294.9V236.726ZM1367.35 236.726H1439.79V235.114H1367.35V236.726ZM1439.79 236.726H1512.19V235.114H1439.79V236.726ZM1512.19 236.726H1584.58V235.114H1512.19V236.726ZM1583.83 236.205L1667.07 457L1668.58 456.431L1585.34 235.636L1583.83 236.205Z" fill="#419EF3" mask="url(#path-56-inside-24)"/>
<mask id="path-58-inside-25" fill="white">
<path d="M1177.07 566.375L1118.49 598.497H1033.7H948.903H853.064H757.226H659.136H561.047L489.943 515.422"/>
</mask>
<path d="M1118.49 598.497V599.303H1118.7L1118.88 599.204L1118.49 598.497ZM561.047 598.497L560.435 599.021L560.676 599.303H561.047V598.497ZM1176.68 565.668L1118.11 597.79L1118.88 599.204L1177.46 567.082L1176.68 565.668ZM1118.49 597.691H1033.7V599.303H1118.49V597.691ZM1033.7 597.691H948.903V599.303H1033.7V597.691ZM948.903 597.691H853.064V599.303H948.903V597.691ZM853.064 597.691H757.226V599.303H853.064V597.691ZM757.226 597.691H659.136V599.303H757.226V597.691ZM659.136 597.691H561.047V599.303H659.136V597.691ZM561.66 597.973L490.556 514.898L489.331 515.946L560.435 599.021L561.66 597.973Z" fill="#419EF3" mask="url(#path-58-inside-25)"/>
<mask id="path-60-inside-26" fill="white">
<path d="M1210.39 533.883L1294.9 162.076H1367.35H1439.79H1512.19H1584.58H1673.95H1763.31L1790.49 167.433"/>
</mask>
<path d="M1294.9 162.076V161.269H1294.26L1294.11 161.897L1294.9 162.076ZM1763.31 162.076L1763.47 161.285L1763.39 161.269H1763.31V162.076ZM1211.18 534.062L1295.69 162.254L1294.11 161.897L1209.6 533.704L1211.18 534.062ZM1294.9 162.882H1367.35V161.269H1294.9V162.882ZM1367.35 162.882H1439.79V161.269H1367.35V162.882ZM1439.79 162.882H1512.19V161.269H1439.79V162.882ZM1512.19 162.882H1584.58V161.269H1512.19V162.882ZM1584.58 162.882H1673.95V161.269H1584.58V162.882ZM1673.95 162.882H1763.31V161.269H1673.95V162.882ZM1763.16 162.867L1790.34 168.224L1790.65 166.642L1763.47 161.285L1763.16 162.867Z" fill="#419EF3" mask="url(#path-60-inside-26)"/>
<mask id="path-62-inside-27" fill="white">
<path d="M1189.45 566.375L1118.5 633.204L1046.39 540.898"/>
</mask>
<path d="M1118.5 633.204L1117.86 633.7L1118.41 634.397L1119.05 633.791L1118.5 633.204ZM1188.9 565.788L1117.94 632.617L1119.05 633.791L1190 566.961L1188.9 565.788ZM1119.13 632.708L1047.03 540.402L1045.76 541.394L1117.86 633.7L1119.13 632.708Z" fill="#419EF3" mask="url(#path-62-inside-27)"/>
<mask id="path-64-inside-28" fill="white">
<path d="M1212.31 533.883L1294.9 294.996L1322.08 296.935"/>
</mask>
<path d="M1294.9 294.996L1294.96 294.192L1294.34 294.148L1294.14 294.732L1294.9 294.996ZM1213.08 534.146L1295.66 295.259L1294.14 294.732L1211.55 533.62L1213.08 534.146ZM1294.84 295.8L1322.02 297.739L1322.14 296.131L1294.96 294.192L1294.84 295.8Z" fill="#419EF3" mask="url(#path-64-inside-28)"/>
<mask id="path-66-inside-29" fill="white">
<path d="M1214.85 566.375L1294.9 725.879H1367.35H1439.79L1466.97 728.651"/>
</mask>
<path d="M1294.9 725.879L1294.18 726.24L1294.4 726.685H1294.9V725.879ZM1439.79 725.879L1439.87 725.077L1439.83 725.073H1439.79V725.879ZM1214.13 566.736L1294.18 726.24L1295.62 725.517L1215.57 566.013L1214.13 566.736ZM1294.9 726.685H1367.35V725.073H1294.9V726.685ZM1367.35 726.685H1439.79V725.073H1367.35V726.685ZM1439.71 726.681L1466.89 729.453L1467.05 727.849L1439.87 725.077L1439.71 726.681Z" fill="#419EF3" mask="url(#path-66-inside-29)"/>
<mask id="path-68-inside-30" fill="white">
<path d="M784.407 468.1L757.226 474.069H659.136H561.047L531.044 482.93"/>
</mask>
<path d="M757.226 474.069V474.875H757.313L757.399 474.856L757.226 474.069ZM561.047 474.069V473.263H560.93L560.819 473.296L561.047 474.069ZM784.234 467.313L757.053 473.282L757.399 474.856L784.58 468.887L784.234 467.313ZM757.226 473.263H659.136V474.875H757.226V473.263ZM659.136 473.263H561.047V474.875H659.136V473.263ZM560.819 473.296L530.816 482.157L531.272 483.703L561.275 474.842L560.819 473.296Z" fill="#419EF3" mask="url(#path-68-inside-30)"/>
<mask id="path-70-inside-31" fill="white">
<path d="M858.702 436.777L948.903 176.845H1033.7H1118.5H1206.7H1294.9H1367.35H1439.79H1512.19H1584.58H1673.95H1763.31H1790.49"/>
</mask>
<path d="M948.903 176.845V176.038H948.329L948.141 176.58L948.903 176.845ZM859.464 437.042L949.665 177.109L948.141 176.58L857.941 436.513L859.464 437.042ZM948.903 177.651H1033.7V176.038H948.903V177.651ZM1033.7 177.651H1118.5V176.038H1033.7V177.651ZM1118.5 177.651H1206.7V176.038H1118.5V177.651ZM1206.7 177.651H1294.9V176.038H1206.7V177.651ZM1294.9 177.651H1367.35V176.038H1294.9V177.651ZM1367.35 177.651H1439.79V176.038H1367.35V177.651ZM1439.79 177.651H1512.19V176.038H1439.79V177.651ZM1512.19 177.651H1584.58V176.038H1512.19V177.651ZM1584.58 177.651H1673.95V176.038H1584.58V177.651ZM1673.95 177.651H1763.31V176.038H1673.95V177.651ZM1763.31 177.651H1790.49V176.038H1763.31V177.651Z" fill="#419EF3" mask="url(#path-70-inside-31)"/>
<mask id="path-72-inside-32" fill="white">
<path d="M874.803 469.269L948.905 524.652H976.086"/>
</mask>
<path d="M948.905 524.652L948.422 525.298L948.637 525.458H948.905V524.652ZM874.32 469.915L948.422 525.298L949.387 524.007L875.285 468.623L874.32 469.915ZM948.905 525.458H976.086V523.846H948.905V525.458Z" fill="#419EF3" mask="url(#path-72-inside-32)"/>
<mask id="path-74-inside-33" fill="white">
<path d="M866.495 469.269L948.904 568.959H1033.7H1118.5L1145.68 563.156"/>
</mask>
<path d="M948.904 568.959L948.283 569.473L948.524 569.765H948.904V568.959ZM1118.5 568.959V569.765H1118.58L1118.66 569.747L1118.5 568.959ZM865.874 469.783L948.283 569.473L949.525 568.445L867.116 468.755L865.874 469.783ZM948.904 569.765H1033.7V568.153H948.904V569.765ZM1033.7 569.765H1118.5V568.153H1033.7V569.765ZM1118.66 569.747L1145.85 563.944L1145.51 562.368L1118.33 568.171L1118.66 569.747Z" fill="#419EF3" mask="url(#path-74-inside-33)"/>
<mask id="path-76-inside-34" fill="white">
<path d="M987.061 540.898L948.903 554.19H853.064H757.226H659.136H561.047L501.142 515.422"/>
</mask>
<path d="M948.903 554.19V554.996H949.039L949.168 554.952L948.903 554.19ZM561.047 554.19L560.609 554.867L560.809 554.996H561.047V554.19ZM986.796 540.137L948.637 553.429L949.168 554.952L987.326 541.66L986.796 540.137ZM948.903 553.384H853.064V554.996H948.903V553.384ZM853.064 553.384H757.226V554.996H853.064V553.384ZM757.226 553.384H659.136V554.996H757.226V553.384ZM659.136 553.384H561.047V554.996H659.136V553.384ZM561.485 553.514L501.58 514.745L500.704 516.099L560.609 554.867L561.485 553.514Z" fill="#419EF3" mask="url(#path-76-inside-34)"/>
<mask id="path-78-inside-35" fill="white">
<path d="M1037.84 508.406L1118.5 191.613H1206.7H1294.9H1367.35H1439.79H1512.19H1584.58H1673.95H1763.31L1790.49 186.256"/>
</mask>
<path d="M1118.5 191.613V190.807H1117.87L1117.71 191.414L1118.5 191.613ZM1763.31 191.613V192.419H1763.39L1763.47 192.404L1763.31 191.613ZM1038.62 508.605L1119.28 191.812L1117.71 191.414L1037.05 508.207L1038.62 508.605ZM1118.5 192.419H1206.7V190.807H1118.5V192.419ZM1206.7 192.419H1294.9V190.807H1206.7V192.419ZM1294.9 192.419H1367.35V190.807H1294.9V192.419ZM1367.35 192.419H1439.79V190.807H1367.35V192.419ZM1439.79 192.419H1512.19V190.807H1439.79V192.419ZM1512.19 192.419H1584.58V190.807H1512.19V192.419ZM1584.58 192.419H1673.95V190.807H1584.58V192.419ZM1673.95 192.419H1763.31V190.807H1673.95V192.419ZM1763.47 192.404L1790.65 187.047L1790.34 185.465L1763.16 190.822L1763.47 192.404Z" fill="#419EF3" mask="url(#path-78-inside-35)"/>
<mask id="path-80-inside-36" fill="white">
<path d="M1057.02 540.898L1118.5 583.728L1164.05 566.375"/>
</mask>
<path d="M1118.5 583.728L1118.03 584.389L1118.38 584.633L1118.78 584.481L1118.5 583.728ZM1056.56 541.56L1118.03 584.389L1118.96 583.067L1057.48 540.237L1056.56 541.56ZM1118.78 584.481L1164.34 567.128L1163.76 565.621L1118.21 582.975L1118.78 584.481Z" fill="#419EF3" mask="url(#path-80-inside-36)"/>
<mask id="path-82-inside-37" fill="white">
<path d="M1322.08 306.163L1294.9 309.765H1206.7H1118.5H1033.7H948.903H853.064H757.226H659.137H561.047L483.33 482.93"/>
</mask>
<path d="M1294.9 309.765V310.571H1294.95L1295.01 310.564L1294.9 309.765ZM561.047 309.765V308.959H560.526L560.312 309.435L561.047 309.765ZM1321.97 305.364L1294.79 308.966L1295.01 310.564L1322.19 306.962L1321.97 305.364ZM1294.9 308.959H1206.7V310.571H1294.9V308.959ZM1206.7 308.959H1118.5V310.571H1206.7V308.959ZM1118.5 308.959H1033.7V310.571H1118.5V308.959ZM1033.7 308.959H948.903V310.571H1033.7V308.959ZM948.903 308.959H853.064V310.571H948.903V308.959ZM853.064 308.959H757.226V310.571H853.064V308.959ZM757.226 308.959H659.137V310.571H757.226V308.959ZM659.137 308.959H561.047V310.571H659.137V308.959ZM560.312 309.435L482.595 482.6L484.066 483.26L561.783 310.095L560.312 309.435Z" fill="#419EF3" mask="url(#path-82-inside-37)"/>
<mask id="path-84-inside-38" fill="white">
<path d="M1379.9 283.919L1439.79 206.382H1512.19H1584.58H1673.95H1763.31L1790.5 195.668"/>
</mask>
<path d="M1439.79 206.382V205.576H1439.4L1439.15 205.89L1439.79 206.382ZM1763.31 206.382V207.188H1763.47L1763.61 207.132L1763.31 206.382ZM1380.53 284.412L1440.43 206.875L1439.15 205.89L1379.26 283.426L1380.53 284.412ZM1439.79 207.188H1512.19V205.576H1439.79V207.188ZM1512.19 207.188H1584.58V205.576H1512.19V207.188ZM1584.58 207.188H1673.95V205.576H1584.58V207.188ZM1673.95 207.188H1763.31V205.576H1673.95V207.188ZM1763.61 207.132L1790.79 196.418L1790.2 194.918L1763.02 205.632L1763.61 207.132Z" fill="#419EF3" mask="url(#path-84-inside-38)"/>
<mask id="path-86-inside-39" fill="white">
<path d="M1362.64 316.411L1294.9 550.129H1267.72"/>
</mask>
<path d="M1294.9 550.129V550.935H1295.51L1295.67 550.353L1294.9 550.129ZM1361.86 316.186L1294.13 549.904L1295.67 550.353L1363.41 316.635L1361.86 316.186ZM1294.9 549.322H1267.72V550.935H1294.9V549.322Z" fill="#419EF3" mask="url(#path-86-inside-39)"/>
<mask id="path-88-inside-40" fill="white">
<path d="M1363.96 316.411L1294.9 647.973H1206.7H1118.49L1044.87 540.898"/>
</mask>
<path d="M1294.9 647.973V648.779H1295.55L1295.69 648.137L1294.9 647.973ZM1118.49 647.973L1117.83 648.43L1118.07 648.779H1118.49V647.973ZM1363.17 316.246L1294.11 647.808L1295.69 648.137L1364.75 316.575L1363.17 316.246ZM1294.9 647.167H1206.7V648.779H1294.9V647.167ZM1206.7 647.167H1118.49V648.779H1206.7V647.167ZM1119.16 647.516L1045.53 540.441L1044.2 541.355L1117.83 648.43L1119.16 647.516Z" fill="#419EF3" mask="url(#path-88-inside-40)"/>
<mask id="path-90-inside-41" fill="white">
<path d="M1370.02 316.411L1439.79 740.648L1466.97 737.875"/>
</mask>
<path d="M1439.79 740.648L1439 740.778L1439.12 741.526L1439.87 741.45L1439.79 740.648ZM1369.22 316.542L1439 740.778L1440.59 740.517L1370.81 316.28L1369.22 316.542ZM1439.87 741.45L1467.05 738.677L1466.89 737.073L1439.71 739.846L1439.87 741.45Z" fill="#419EF3" mask="url(#path-90-inside-41)"/>
<mask id="path-92-inside-42" fill="white">
<path d="M1667.26 489.207L1584.58 690.064H1512.19H1439.79H1367.35H1294.9H1206.7H1118.5H1033.7H948.904H853.065H757.227H659.137H561.048L483.274 515.422"/>
</mask>
<path d="M1584.58 690.064V690.87H1585.12L1585.33 690.371L1584.58 690.064ZM561.048 690.064L560.312 690.392L560.525 690.87H561.048V690.064ZM1666.51 488.9L1583.84 689.757L1585.33 690.371L1668.01 489.514L1666.51 488.9ZM1584.58 689.258H1512.19V690.87H1584.58V689.258ZM1512.19 689.258H1439.79V690.87H1512.19V689.258ZM1439.79 689.258H1367.35V690.87H1439.79V689.258ZM1367.35 689.258H1294.9V690.87H1367.35V689.258ZM1294.9 689.258H1206.7V690.87H1294.9V689.258ZM1206.7 689.258H1118.5V690.87H1206.7V689.258ZM1118.5 689.258H1033.7V690.87H1118.5V689.258ZM1033.7 689.258H948.904V690.87H1033.7V689.258ZM948.904 689.258H853.065V690.87H948.904V689.258ZM853.065 689.258H757.227V690.87H853.065V689.258ZM757.227 689.258H659.137V690.87H757.227V689.258ZM659.137 689.258H561.048V690.87H659.137V689.258ZM561.785 689.736L484.011 515.094L482.538 515.75L560.312 690.392L561.785 689.736Z" fill="#419EF3" mask="url(#path-92-inside-42)"/>
<mask id="path-94-inside-43" fill="white">
<path d="M1669.16 489.207L1584.58 776.462H1512.19H1439.79H1367.35H1294.9L1213.03 566.375"/>
</mask>
<path d="M1584.58 776.462V777.268H1585.18L1585.35 776.69L1584.58 776.462ZM1294.9 776.462L1294.15 776.755L1294.35 777.268H1294.9V776.462ZM1668.39 488.979L1583.81 776.235L1585.35 776.69L1669.94 489.435L1668.39 488.979ZM1584.58 775.656H1512.19V777.268H1584.58V775.656ZM1512.19 775.656H1439.79V777.268H1512.19V775.656ZM1439.79 775.656H1367.35V777.268H1439.79V775.656ZM1367.35 775.656H1294.9V777.268H1367.35V775.656ZM1295.65 776.17L1213.78 566.082L1212.28 566.667L1294.15 776.755L1295.65 776.17Z" fill="#419EF3" mask="url(#path-94-inside-43)"/>
<mask id="path-96-inside-44" fill="white">
<path d="M1736.13 472.961H1763.31L1831.24 204.437"/>
</mask>
<path d="M1763.31 472.961V473.767H1763.94L1764.09 473.159L1763.31 472.961ZM1736.13 473.767H1763.31V472.155H1736.13V473.767ZM1764.09 473.159L1832.03 204.634L1830.46 204.239L1762.53 472.763L1764.09 473.159Z" fill="#419EF3" mask="url(#path-96-inside-44)"/>
<mask id="path-98-inside-45" fill="white">
<path d="M1466.97 747.099L1439.79 755.417H1367.35H1294.9H1206.7H1118.5H1033.7H948.903H853.065H757.226H659.137H561.048L481.429 515.422"/>
</mask>
<path d="M1439.79 755.417V756.223H1439.91L1440.03 756.188L1439.79 755.417ZM561.048 755.417L560.283 755.671L560.466 756.223H561.048V755.417ZM1466.74 746.328L1439.56 754.646L1440.03 756.188L1467.21 747.87L1466.74 746.328ZM1439.79 754.611H1367.35V756.223H1439.79V754.611ZM1367.35 754.611H1294.9V756.223H1367.35V754.611ZM1294.9 754.611H1206.7V756.223H1294.9V754.611ZM1206.7 754.611H1118.5V756.223H1206.7V754.611ZM1118.5 754.611H1033.7V756.223H1118.5V754.611ZM1033.7 754.611H948.903V756.223H1033.7V754.611ZM948.903 754.611H853.065V756.223H948.903V754.611ZM853.065 754.611H757.226V756.223H853.065V754.611ZM757.226 754.611H659.137V756.223H757.226V754.611ZM659.137 754.611H561.048V756.223H659.137V754.611ZM561.813 755.163L482.194 515.168L480.664 515.676L560.283 755.671L561.813 755.163Z" fill="#419EF3" mask="url(#path-98-inside-45)"/>
<mask id="path-100-inside-46" fill="white">
<path d="M1532.48 749.509L1584.58 791.231H1673.95H1763.31L1834.87 204.5"/>
</mask>
<path d="M1584.58 791.231L1584.08 791.861L1584.3 792.038H1584.58V791.231ZM1763.31 791.231V792.038H1764.03L1764.11 791.329L1763.31 791.231ZM1531.97 750.138L1584.08 791.861L1585.09 790.602L1532.98 748.88L1531.97 750.138ZM1584.58 792.038H1673.95V790.425H1584.58V792.038ZM1673.95 792.038H1763.31V790.425H1673.95V792.038ZM1764.11 791.329L1835.67 204.598L1834.07 204.402L1762.51 791.134L1764.11 791.329Z" fill="#419EF3" mask="url(#path-100-inside-46)"/>
<mask id="path-102-inside-47" fill="white">
<path d="M1516.71 717.017L1584.58 472.961H1611.76"/>
</mask>
<path d="M1584.58 472.961V472.155H1583.97L1583.81 472.745L1584.58 472.961ZM1517.48 717.233L1585.36 473.177L1583.81 472.745L1515.93 716.801L1517.48 717.233ZM1584.58 473.767H1611.76V472.155H1584.58V473.767Z" fill="#419EF3" mask="url(#path-102-inside-47)"/>
<mask id="path-104-inside-48" fill="white">
<path d="M794.795 640.588H757.226H659.137H561.047L485.805 515.422"/>
</mask>
<path d="M561.047 640.588L560.356 641.004L560.591 641.395H561.047V640.588ZM794.795 639.782H757.226V641.395H794.795V639.782ZM757.226 639.782H659.137V641.395H757.226V639.782ZM659.137 639.782H561.047V641.395H659.137V639.782ZM561.738 640.173L486.496 515.007L485.114 515.837L560.356 641.004L561.738 640.173Z" fill="#419EF3" mask="url(#path-104-inside-48)"/>
<mask id="path-106-inside-49" fill="white">
<path d="M808.205 656.834L757.227 675.295H659.138H561.048H476.04H391.031L326.646 418.685"/>
</mask>
<path d="M757.227 675.295V676.101H757.369L757.502 676.053L757.227 675.295ZM391.031 675.295L390.249 675.491L390.403 676.101H391.031V675.295ZM807.93 656.076L756.953 674.537L757.502 676.053L808.479 657.592L807.93 656.076ZM757.227 674.489H659.138V676.101H757.227V674.489ZM659.138 674.489H561.048V676.101H659.138V674.489ZM561.048 674.489H476.04V676.101H561.048V674.489ZM476.04 674.489H391.031V676.101H476.04V674.489ZM391.813 675.099L327.427 418.489L325.864 418.882L390.249 675.491L391.813 675.099Z" fill="#419EF3" mask="url(#path-106-inside-49)"/>
<mask id="path-108-inside-50" fill="white">
<path d="M862.477 656.834L948.902 806H1033.7H1118.49H1206.7H1294.9H1367.34H1439.79H1512.19H1584.58H1673.95H1763.31L1834.95 204.501"/>
</mask>
<path d="M948.902 806L948.205 806.404L948.438 806.806H948.902V806ZM1763.31 806V806.806H1764.03L1764.11 806.095L1763.31 806ZM861.779 657.238L948.205 806.404L949.6 805.596L863.174 656.43L861.779 657.238ZM948.902 806.806H1033.7V805.194H948.902V806.806ZM1033.7 806.806H1118.49V805.194H1033.7V806.806ZM1118.49 806.806H1206.7V805.194H1118.49V806.806ZM1206.7 806.806H1294.9V805.194H1206.7V806.806ZM1294.9 806.806H1367.34V805.194H1294.9V806.806ZM1367.34 806.806H1439.79V805.194H1367.34V806.806ZM1439.79 806.806H1512.19V805.194H1439.79V806.806ZM1512.19 806.806H1584.58V805.194H1512.19V806.806ZM1584.58 806.806H1673.95V805.194H1584.58V806.806ZM1673.95 806.806H1763.31V805.194H1673.95V806.806ZM1764.11 806.095L1835.75 204.596L1834.15 204.406L1762.51 805.905L1764.11 806.095Z" fill="#419EF3" mask="url(#path-108-inside-50)"/>
<mask id="path-110-inside-51" fill="white">
<path d="M868.455 624.342L948.903 539.421L976.084 534.687"/>
</mask>
<path d="M948.903 539.421L948.765 538.627L948.502 538.673L948.318 538.867L948.903 539.421ZM869.04 624.897L949.488 539.976L948.318 538.867L867.87 623.788L869.04 624.897ZM949.042 540.215L976.222 535.481L975.946 533.893L948.765 538.627L949.042 540.215Z" fill="#419EF3" mask="url(#path-110-inside-51)"/>
<path d="M281.689 418.282V386.597H363.445V418.282H281.689Z" fill="#419EF3" fill-opacity="0.15" stroke="#419EF3" stroke-width="0.806146"/>
<path d="M418.614 515.019V483.333H533.463V515.019H418.614Z" fill="#419EF3" fill-opacity="0.15" stroke="#419EF3" stroke-width="0.806146"/>
<mask id="path-114-inside-52" fill="white">
<path d="M1790.49 156.789C1790.49 158.81 1795.52 160.748 1804.48 162.177C1813.43 163.605 1825.58 164.408 1838.25 164.408C1850.91 164.408 1863.06 163.605 1872.01 162.177C1880.97 160.748 1886 158.81 1886 156.789C1886 154.768 1880.97 152.83 1872.01 151.401C1863.06 149.973 1850.91 149.17 1838.25 149.17C1825.58 149.17 1813.43 149.973 1804.48 151.401C1795.52 152.83 1790.49 154.768 1790.49 156.789V196.9C1790.49 198.921 1795.52 200.858 1804.48 202.287C1813.43 203.716 1825.58 204.519 1838.25 204.519C1850.91 204.519 1863.06 203.716 1872.01 202.287C1880.97 200.858 1886 198.921 1886 196.9V156.789"/>
</mask>
<path d="M1790.49 156.789C1790.49 158.81 1795.52 160.748 1804.48 162.177C1813.43 163.605 1825.58 164.408 1838.25 164.408C1850.91 164.408 1863.06 163.605 1872.01 162.177C1880.97 160.748 1886 158.81 1886 156.789C1886 154.768 1880.97 152.83 1872.01 151.401C1863.06 149.973 1850.91 149.17 1838.25 149.17C1825.58 149.17 1813.43 149.973 1804.48 151.401C1795.52 152.83 1790.49 154.768 1790.49 156.789V196.9C1790.49 198.921 1795.52 200.858 1804.48 202.287C1813.43 203.716 1825.58 204.519 1838.25 204.519C1850.91 204.519 1863.06 203.716 1872.01 202.287C1880.97 200.858 1886 198.921 1886 196.9V156.789" fill="#419EF3" fill-opacity="0.2"/>
<path d="M1886 156.789H1886.81H1886ZM1790.49 156.789H1789.69H1790.49ZM1790.49 196.9H1789.69H1790.49ZM1886 196.9H1886.81H1886ZM1789.69 156.789C1789.69 157.654 1790.22 158.361 1790.92 158.912C1791.62 159.474 1792.61 159.986 1793.84 160.457C1796.29 161.402 1799.85 162.255 1804.35 162.973L1804.61 161.38C1800.15 160.67 1796.72 159.838 1794.42 158.952C1793.26 158.508 1792.44 158.067 1791.92 157.652C1791.39 157.228 1791.3 156.935 1791.3 156.789H1789.69ZM1804.35 162.973C1813.36 164.41 1825.55 165.214 1838.25 165.214V163.602C1825.61 163.602 1813.51 162.801 1804.61 161.38L1804.35 162.973ZM1838.25 165.214C1850.94 165.214 1863.13 164.41 1872.14 162.973L1871.89 161.38C1862.98 162.801 1850.88 163.602 1838.25 163.602V165.214ZM1872.14 162.973C1876.64 162.255 1880.2 161.402 1882.65 160.457C1883.88 159.986 1884.87 159.474 1885.58 158.912C1886.27 158.361 1886.81 157.654 1886.81 156.789H1885.19C1885.19 156.935 1885.1 157.228 1884.57 157.652C1884.05 158.067 1883.23 158.508 1882.07 158.952C1879.77 159.838 1876.34 160.67 1871.89 161.38L1872.14 162.973ZM1886.81 156.789C1886.81 155.924 1886.27 155.217 1885.58 154.666C1884.87 154.104 1883.88 153.592 1882.65 153.121C1880.2 152.176 1876.64 151.323 1872.14 150.605L1871.89 152.197C1876.34 152.908 1879.77 153.74 1882.07 154.626C1883.23 155.07 1884.05 155.511 1884.57 155.926C1885.1 156.35 1885.19 156.643 1885.19 156.789H1886.81ZM1872.14 150.605C1863.13 149.168 1850.94 148.364 1838.25 148.364V149.976C1850.88 149.976 1862.98 150.777 1871.89 152.197L1872.14 150.605ZM1838.25 148.364C1825.55 148.364 1813.36 149.168 1804.35 150.605L1804.61 152.197C1813.51 150.777 1825.61 149.976 1838.25 149.976V148.364ZM1804.35 150.605C1799.85 151.323 1796.29 152.176 1793.84 153.121C1792.61 153.592 1791.62 154.104 1790.92 154.666C1790.22 155.217 1789.69 155.924 1789.69 156.789H1791.3C1791.3 156.643 1791.39 156.35 1791.92 155.926C1792.44 155.511 1793.26 155.07 1794.42 154.626C1796.72 153.74 1800.15 152.908 1804.61 152.197L1804.35 150.605ZM1789.69 156.789V196.9H1791.3V156.789H1789.69ZM1789.69 196.9C1789.69 197.764 1790.22 198.471 1790.92 199.023C1791.62 199.585 1792.61 200.097 1793.84 200.568C1796.29 201.513 1799.85 202.366 1804.35 203.083L1804.61 201.491C1800.15 200.78 1796.72 199.949 1794.42 199.063C1793.26 198.619 1792.44 198.178 1791.92 197.763C1791.39 197.339 1791.3 197.046 1791.3 196.9H1789.69ZM1804.35 203.083C1813.36 204.521 1825.55 205.325 1838.25 205.325V203.713C1825.61 203.713 1813.51 202.911 1804.61 201.491L1804.35 203.083ZM1838.25 205.325C1850.94 205.325 1863.13 204.521 1872.14 203.083L1871.89 201.491C1862.98 202.911 1850.88 203.713 1838.25 203.713V205.325ZM1872.14 203.083C1876.64 202.366 1880.2 201.513 1882.65 200.568C1883.88 200.097 1884.87 199.585 1885.58 199.023C1886.27 198.471 1886.81 197.764 1886.81 196.9H1885.19C1885.19 197.046 1885.1 197.339 1884.57 197.763C1884.05 198.178 1883.23 198.619 1882.07 199.063C1879.77 199.949 1876.34 200.78 1871.89 201.491L1872.14 203.083ZM1886.81 196.9V156.789H1885.19V196.9H1886.81Z" fill="#419EF3" mask="url(#path-114-inside-52)"/>
<path d="M1322.48 316.008V284.322H1412.21V316.008H1322.48Z" fill="#419EF3" fill-opacity="0.15" stroke="#419EF3" stroke-width="0.806146"/>
<path d="M588.631 383.575V351.89H729.641V383.575H588.631Z" fill="#419EF3" fill-opacity="0.15" stroke="#419EF3" stroke-width="0.806146"/>
<path d="M784.402 469.089V437.403H920.911V469.089H784.402Z" fill="#419EF3" fill-opacity="0.15" stroke="#419EF3" stroke-width="0.806146"/>
<path d="M1146.08 565.971V534.286H1267.31V565.971H1146.08Z" fill="#419EF3" fill-opacity="0.15" stroke="#419EF3" stroke-width="0.806146"/>
<path d="M1612.16 488.804V457.118H1735.73V488.804H1612.16Z" fill="#419EF3" fill-opacity="0.15" stroke="#419EF3" stroke-width="0.806146"/>
<path d="M976.486 540.495V508.809H1090.91V540.495H976.486Z" fill="#419EF3" fill-opacity="0.15" stroke="#419EF3" stroke-width="0.806146"/>
<path d="M1467.37 749.106V717.42H1557V749.106H1467.37Z" fill="#419EF3" fill-opacity="0.15" stroke="#419EF3" stroke-width="0.806146"/>
<path d="M226.127 364.443L202.801 396.129H5.49451L28.8203 364.443H226.127Z" fill="#419EF3" fill-opacity="0.15" stroke="#419EF3" stroke-width="0.806146"/>
<path d="M795.197 656.431V624.745H910.929V656.431H795.197Z" fill="#419EF3" fill-opacity="0.15" stroke="#419EF3" stroke-width="0.806146"/>
</g>
<path opacity="0.71" d="M-7 331L396 839H-7V331Z" fill="black"/>
<path d="M457 668L723 847H233L457 668Z" fill="black" fill-opacity="0.63"/>
<path d="M1806 724L1918 829.797L1621 836L1806 724Z" fill="black" fill-opacity="0.63"/>
<path d="M1441 758.899L1631 829.797H1327L1441 758.899Z" fill="black" fill-opacity="0.63"/>
<path d="M456 671L430 828H255L456 671Z" fill="black" fill-opacity="0.4"/>
<circle cx="1300.23" cy="540.388" r="0.619133" transform="rotate(-180 1300.23 540.388)" fill="#9D4E8D"/>
<circle cx="1313.85" cy="551.533" r="0.619133" transform="rotate(-180 1313.85 551.533)" fill="#9D4E8D"/>
<circle cx="1289.08" cy="568.868" r="0.619133" transform="rotate(-180 1289.08 568.868)" fill="#9D4E8D"/>
<circle cx="1276.7" cy="546.579" r="0.619133" transform="rotate(-180 1276.7 546.579)" fill="#9D4E8D"/>
<circle cx="1282.89" cy="550.294" r="0.619133" transform="rotate(-180 1282.89 550.294)" fill="#9D4E8D"/>
<circle cx="1076.1" cy="627.067" r="0.619133" transform="rotate(-180 1076.1 627.067)" fill="#9D4E8D"/>
<circle cx="1089.72" cy="638.211" r="0.619133" transform="rotate(-180 1089.72 638.211)" fill="#9D4E8D"/>
<circle cx="1064.96" cy="655.547" r="0.619133" transform="rotate(-180 1064.96 655.547)" fill="#9D4E8D"/>
<circle cx="1052.58" cy="633.258" r="0.619133" transform="rotate(-180 1052.58 633.258)" fill="#9D4E8D"/>
<circle cx="1058.77" cy="636.973" r="0.619133" transform="rotate(-180 1058.77 636.973)" fill="#9D4E8D"/>
<circle cx="1088.49" cy="619.637" r="0.619133" transform="rotate(-180 1088.49 619.637)" fill="#9D4E8D"/>
<circle cx="1102.11" cy="630.782" r="0.619133" transform="rotate(-180 1102.11 630.782)" fill="#9D4E8D"/>
<circle cx="1077.34" cy="648.117" r="0.619133" transform="rotate(-180 1077.34 648.117)" fill="#9D4E8D"/>
<circle cx="1064.96" cy="625.829" r="0.619133" transform="rotate(-180 1064.96 625.829)" fill="#9D4E8D"/>
<circle cx="1090.96" cy="521.814" r="0.619133" transform="rotate(-180 1090.96 521.814)" fill="#9D4E8D"/>
<circle cx="1051.34" cy="492.096" r="0.619133" transform="rotate(-180 1051.34 492.096)" fill="#9D4E8D"/>
<circle cx="1064.96" cy="503.24" r="0.619133" transform="rotate(-180 1064.96 503.24)" fill="#9D4E8D"/>
<circle cx="1040.19" cy="520.576" r="0.619133" transform="rotate(-180 1040.19 520.576)" fill="#9D4E8D"/>
<circle cx="1027.81" cy="498.287" r="0.619133" transform="rotate(-180 1027.81 498.287)" fill="#9D4E8D"/>
<circle cx="1034" cy="502.002" r="0.619133" transform="rotate(-180 1034 502.002)" fill="#9D4E8D"/>
<circle cx="1358.43" cy="607.255" r="0.619133" transform="rotate(-180 1358.43 607.255)" fill="#9D4E8D"/>
<circle cx="1372.05" cy="618.399" r="0.619133" transform="rotate(-180 1372.05 618.399)" fill="#9D4E8D"/>
<circle cx="1334.9" cy="613.446" r="0.619133" transform="rotate(-180 1334.9 613.446)" fill="#9D4E8D"/>
<circle cx="1341.09" cy="617.161" r="0.619133" transform="rotate(-180 1341.09 617.161)" fill="#9D4E8D"/>
<path d="M1652 700L1812 836H1508L1652 700Z" fill="black" fill-opacity="0.63"/>
<path d="M840.776 777L920 826H747L840.776 777Z" fill="black" fill-opacity="0.41"/>
<path d="M881 825L843 777L921 825H881Z" fill="#984B98" fill-opacity="0.25"/>
<path d="M1597 826L1652 700L1517 826H1597Z" fill="#984B98" fill-opacity="0.4"/>
<path d="M1331 827L1441.5 759L1418 827H1331Z" fill="#984B98" fill-opacity="0.37"/>
<rect x="1920" y="1" width="1080" height="347" transform="rotate(90 1920 1)" fill="url(#paint4_linear)"/>
<path d="M36.4356 820.501C42.2833 820.639 52.1794 820.639 58.1771 820.501C64.0248 820.432 59.2267 820.294 47.2314 820.294C35.2361 820.294 30.4379 820.432 36.4356 820.501Z" fill="#340474" fill-opacity="0.56"/>
<path d="M358.06 820.501C360.309 820.639 363.907 820.639 366.306 820.501C368.555 820.363 366.606 820.225 362.108 820.225C357.61 820.225 355.66 820.363 358.06 820.501Z" fill="#340474" fill-opacity="0.56"/>
<path d="M937.135 820.708C936.685 821.122 937.285 821.191 938.484 820.984C941.183 820.501 941.633 820.018 939.534 820.018C938.634 820.018 937.585 820.294 937.135 820.708Z" fill="#340474" fill-opacity="0.56"/>
<path d="M979.867 820.294C979.867 820.432 980.917 820.777 982.266 820.984C983.466 821.191 984.066 821.122 983.616 820.708C982.716 820.018 979.867 819.742 979.867 820.294Z" fill="#340474" fill-opacity="0.56"/>
<path d="M1554.59 820.501C1556.84 820.639 1560.44 820.639 1562.84 820.501C1565.09 820.363 1563.14 820.225 1558.64 820.225C1554.14 820.225 1552.19 820.363 1554.59 820.501Z" fill="#340474" fill-opacity="0.56"/>
<path d="M1862.72 820.501C1868.57 820.639 1878.47 820.639 1884.46 820.501C1890.31 820.432 1885.51 820.294 1873.52 820.294C1861.52 820.294 1856.73 820.432 1862.72 820.501Z" fill="#340474" fill-opacity="0.56"/>
<path d="M947.48 826.92L943.132 832.442H928.138H913.294L924.389 827.127C935.635 821.812 934.135 822.226 918.392 828.922L910.145 832.442L895.151 832.373C881.056 832.373 880.456 832.304 884.355 831.337C886.604 830.785 888.403 830.164 888.403 829.957C888.403 829.75 886.004 830.233 883.005 830.992C877.008 832.649 882.106 832.511 811.933 832.373C796.639 832.304 782.844 832.304 781.195 832.304C779.546 832.304 759.304 832.304 736.213 832.304C713.122 832.304 692.58 832.235 690.481 832.304C688.381 832.304 658.093 832.373 623.007 832.511L559.282 832.718L613.261 833.132C642.949 833.339 665.59 833.615 663.491 833.684C661.392 833.822 660.492 834.029 661.242 834.236C662.142 834.374 669.189 834.098 677.136 833.615C694.229 832.649 766.051 832.787 762.452 833.822C759.604 834.651 759.754 834.651 772.199 833.615C778.646 833.132 791.991 832.856 806.685 832.994C828.877 833.201 830.376 833.27 826.927 834.236C824.378 834.927 824.228 835.134 826.178 834.858C835.624 833.339 840.422 833.132 856.166 833.27L873.709 833.477L854.217 838.447L834.874 843.485L807.285 843.416H779.696L801.137 839.551C812.833 837.411 822.279 835.548 821.979 835.41C821.679 835.272 810.734 837.066 797.539 839.344L773.698 843.485L732.014 843.347L690.331 843.14L724.967 839.068C743.86 836.79 759.154 834.858 758.854 834.72C758.554 834.581 740.861 836.445 719.419 838.93L680.435 843.485L616.859 843.416L553.284 843.347L606.363 839.137C635.602 836.79 658.693 834.789 657.943 834.72C657.044 834.581 630.054 836.514 597.967 838.999L539.49 843.485L444.427 843.347L349.364 843.14L378.602 841.622C467.068 837.066 508.002 834.858 505.303 834.651C503.654 834.581 463.019 836.514 415.038 838.999L327.922 843.485L183.379 843.416C103.91 843.347 40.3345 843.209 41.9839 843.071C43.6332 843.002 88.9156 841.415 142.445 839.551C196.124 837.757 238.107 836.169 236.008 836.031C233.759 835.893 204.071 836.79 170.034 837.964C49.331 842.105 28.3392 842.795 14.5446 843.209C-21.8912 844.452 12.7453 844.866 148.142 844.935C276.192 845.004 293.286 845.142 278.891 845.901C234.959 848.317 5.24824 860.051 3.14906 860.051C1.79959 860.051 0.75 860.327 0.75 860.741C0.75 861.224 52.1799 861.432 151.891 861.501C234.959 861.501 302.282 861.639 301.383 861.777C299.583 862.122 4.79842 884.899 2.39936 884.899C1.49971 884.899 0.75 885.383 0.75 885.935C0.75 886.832 18.8929 886.97 151.741 887.108C294.635 887.315 302.282 887.384 293.136 888.42C287.738 889.041 220.114 896.909 142.894 905.882C65.6746 914.855 1.94953 922.172 1.49971 922.172C1.04988 922.172 0.75 922.793 0.75 923.552C0.75 924.933 1.94953 924.933 152.491 925.071L304.381 925.278L293.885 927.142C288.038 928.177 269.295 931.49 251.902 934.458C193.875 944.535 117.404 957.926 62.9757 967.382C33.2873 972.628 7.19748 977.183 4.94836 977.529C1.64965 978.081 0.75 978.633 0.75 980.22V982.222L149.342 982.36L297.934 982.567L149.942 1020.88L2.09947 1059.18L13.7949 1059.39L25.4903 1059.6L170.934 1020.88L316.377 982.222H437.529C545.037 982.222 564.23 982.429 557.333 983.741C556.583 983.81 518.948 999.823 473.665 1019.15C428.383 1038.55 388.648 1055.59 385.35 1056.97L379.352 1059.46H392.097H404.842L491.058 1020.88L577.275 982.222H699.327C814.782 982.222 821.229 982.291 820.18 983.396C819.58 984.086 806.085 1000.79 790.042 1020.53C773.998 1040.27 760.203 1057.11 759.454 1057.94C758.104 1059.53 758.104 1059.53 770.549 1059.53H783.294L807.885 1024.88C821.529 1005.76 833.825 988.365 835.324 986.156L838.023 982.222H960.375H1082.73L1085.43 986.156C1086.93 988.365 1099.22 1005.76 1112.87 1024.81L1137.46 1059.53H1150.2C1157.25 1059.53 1162.65 1059.32 1162.35 1058.98C1161.9 1058.7 1148.1 1041.86 1131.61 1021.57C1115.11 1001.27 1101.17 984.086 1100.57 983.396C1099.52 982.291 1105.97 982.222 1221.42 982.222H1343.48L1429.69 1020.88L1515.91 1059.46H1528.65H1541.4L1531.95 1055.52C1492.82 1039.1 1362.37 983.119 1362.37 982.705C1362.22 982.429 1416.65 982.222 1483.37 982.222H1604.37L1749.82 1020.88L1895.26 1059.6L1906.96 1059.39L1918.65 1059.18L1770.81 1020.88L1622.82 982.567L1771.41 982.36L1920 982.222V980.22C1920 978.633 1919.1 978.081 1915.95 977.529C1913.55 977.183 1869.62 969.453 1818.04 960.48C1766.46 951.507 1709.48 941.567 1691.34 938.392C1673.2 935.217 1649.36 931.076 1638.26 929.143C1627.16 927.211 1617.72 925.485 1617.42 925.278C1616.97 925.071 1684.89 924.933 1768.26 924.933C1918.95 924.933 1920 924.933 1920 923.552C1920 922.793 1919.7 922.172 1919.25 922.172C1918.8 922.172 1855.08 914.855 1777.86 905.882C1700.64 896.909 1633.01 889.041 1627.61 888.42C1618.47 887.384 1626.12 887.315 1769.01 887.108C1901.86 886.97 1920 886.832 1920 885.935C1920 885.383 1919.25 884.899 1918.35 884.899C1915.8 884.899 1621.17 862.122 1619.37 861.777C1618.62 861.639 1685.79 861.501 1769.01 861.501C1868.57 861.432 1920 861.224 1920 860.741C1920 860.327 1918.95 860.051 1917.6 860.051C1915.5 860.051 1685.79 848.317 1641.86 845.901C1627.46 845.142 1644.56 845.004 1772.76 844.935C1908.01 844.866 1942.64 844.452 1906.21 843.209C1892.41 842.795 1871.42 842.105 1750.72 837.964C1716.68 836.79 1686.99 835.893 1684.74 836.031C1682.64 836.169 1724.78 837.757 1778.31 839.551C1831.98 841.415 1877.12 843.002 1878.77 843.071C1880.42 843.209 1816.84 843.347 1737.37 843.416L1592.83 843.485L1505.71 838.999C1457.73 836.514 1417.1 834.581 1415.45 834.651C1412.75 834.858 1453.68 837.066 1542.15 841.622L1571.39 843.14L1476.32 843.347L1381.26 843.485L1322.78 838.999C1290.7 836.514 1263.71 834.581 1262.81 834.72C1262.06 834.789 1285.15 836.79 1314.39 839.137L1367.47 843.347L1303.74 843.416L1240.02 843.485L1199.08 838.723C1176.44 836.1 1157.7 833.753 1157.25 833.546C1155.45 832.718 1229.52 832.787 1243.61 833.615C1251.56 834.098 1258.76 834.374 1259.51 834.236C1260.41 834.029 1259.36 833.822 1257.26 833.684C1255.16 833.615 1277.8 833.339 1307.49 833.132L1361.47 832.718L1297.74 832.511C1262.66 832.373 1232.37 832.304 1230.27 832.304C1228.17 832.235 1207.63 832.304 1184.54 832.304C1161.45 832.304 1141.2 832.304 1139.56 832.304C1137.91 832.304 1124.11 832.304 1108.82 832.373C1038.64 832.511 1043.74 832.649 1037.74 830.992C1034.75 830.233 1032.35 829.75 1032.35 829.957C1032.35 830.164 1034.15 830.785 1036.55 831.337C1040.29 832.304 1039.69 832.373 1025.6 832.373L1010.61 832.442L1002.36 828.922C986.615 822.226 985.115 821.812 996.361 827.127L1007.46 832.442H992.613H977.618L973.27 826.92C970.871 823.814 968.772 821.467 968.322 821.605C968.022 821.812 969.522 824.159 971.621 826.989C973.72 829.75 975.369 832.097 975.369 832.235C975.369 832.373 968.622 832.442 960.375 832.442C952.128 832.442 945.381 832.373 945.381 832.235C945.381 832.097 947.03 829.75 949.13 826.989C951.229 824.159 952.728 821.812 952.428 821.605C951.978 821.467 949.879 823.814 947.48 826.92ZM1193.23 838.723L1230.42 843.14L1188.74 843.347L1147.05 843.485L1123.21 839.344C1110.02 837.066 1099.07 835.272 1098.77 835.41C1098.47 835.548 1107.92 837.411 1119.61 839.551L1141.05 843.416H1113.47L1085.88 843.485L1069.23 839.206C1060.09 836.859 1051.24 834.581 1049.74 834.098C1047.34 833.339 1054.99 833.201 1091.57 833.201C1116.16 833.201 1136.56 833.063 1136.86 832.925C1137.91 832.442 1155 834.167 1193.23 838.723ZM896.65 838.309L884.655 843.416L861.414 843.485H838.173L857.665 838.309L877.158 833.201H892.901H908.645L896.65 838.309ZM938.184 838.309L934.135 843.485H910.894L887.654 843.416L899.349 838.309L911.194 833.132H926.638H942.232L938.184 838.309ZM979.568 837.826C981.367 840.448 982.866 842.726 982.866 843.002C982.866 843.278 972.82 843.485 960.375 843.485C948.08 843.485 937.884 843.278 937.884 843.002C937.884 842.726 939.383 840.448 941.183 837.826L944.481 833.132H960.375H976.269L979.568 837.826ZM1021.4 838.309L1033.1 843.416L1009.86 843.485H986.615L982.566 838.309L978.518 833.132H994.112H1009.56L1021.4 838.309ZM1063.09 838.309L1082.58 843.485H1059.34L1036.1 843.416L1024.1 838.309L1012.1 833.201H1027.85H1043.59L1063.09 838.309ZM507.552 845.901C501.404 846.384 457.921 849.767 410.99 853.425L325.673 860.051L179.33 859.982L32.9874 859.913L69.7231 857.911C89.9651 856.876 118.304 855.357 132.698 854.598C147.093 853.77 188.926 851.63 225.662 849.698C262.398 847.834 296.435 845.97 301.383 845.625C306.331 845.28 357.311 845.073 414.588 845.004C504.553 845.004 517.298 845.142 507.552 845.901ZM602.765 852.458L538.29 860.051L440.828 859.982L343.366 859.913L367.357 857.98C380.552 856.876 403.793 855.012 419.087 853.839C434.381 852.666 465.418 850.181 488.06 848.317L529.294 845.004H598.267L667.24 844.935L602.765 852.458ZM763.802 845.142C763.502 845.28 744.31 848.662 721.219 852.735L679.235 860.051L614.76 859.982C559.882 859.913 551.335 859.775 557.033 859.016C560.781 858.533 585.372 855.634 611.761 852.458C638.151 849.352 662.741 846.384 666.49 845.901C671.138 845.28 687.182 845.004 718.82 844.935C743.86 844.935 764.102 845.004 763.802 845.142ZM828.277 845.142C827.977 845.28 814.932 848.662 799.338 852.735L771.149 860.051L729.315 859.913L687.482 859.706L728.416 852.389L769.2 845.004L799.038 844.935C815.532 844.866 828.577 845.004 828.277 845.142ZM868.611 850.25C861.714 853.287 853.767 856.669 850.618 857.911L845.22 860.051L811.333 859.913L777.297 859.706L804.736 852.32L832.175 845.004L856.616 844.935L881.056 844.866L868.611 850.25ZM926.788 852.458L920.641 860.051H885.554H850.618L867.561 852.458L884.655 844.935L908.795 844.866H932.936L926.788 852.458ZM989.914 852.113C992.613 855.91 994.862 859.223 994.862 859.499C994.862 859.844 979.418 860.051 960.375 860.051C941.483 860.051 925.889 859.844 925.889 859.637C925.889 859.154 935.035 846.039 935.935 845.349C936.235 845.073 947.48 844.935 960.825 845.004L984.966 845.211L989.914 852.113ZM1053.19 852.458L1070.13 860.051H1035.2H1000.11L993.962 852.458L987.814 844.866H1011.96L1036.1 844.935L1053.19 852.458ZM1115.41 852.251L1143.45 859.706L1109.42 859.913L1075.53 860.051L1070.13 857.911C1066.98 856.669 1059.04 853.287 1052.14 850.25L1039.69 844.866H1063.53H1087.53L1115.41 852.251ZM1191.58 852.251L1233.27 859.706L1191.43 859.913L1149.6 860.051L1121.41 852.735C1105.82 848.662 1092.77 845.28 1092.47 845.142C1092.17 845.004 1104.92 844.866 1120.81 844.866H1149.9L1191.58 852.251ZM1256.21 846.177C1262.06 846.937 1287.25 849.905 1311.99 852.873C1336.73 855.772 1359.97 858.533 1363.72 859.016C1369.42 859.775 1360.87 859.913 1305.99 859.982L1241.52 860.051L1199.53 852.735C1176.44 848.662 1157.25 845.28 1156.95 845.142C1156.65 845.004 1176.29 844.866 1200.88 844.866C1240.02 844.866 1246.61 845.004 1256.21 846.177ZM1457.88 850.388C1496.42 853.425 1539 856.807 1552.64 857.911L1577.38 859.913L1479.92 859.982L1382.46 860.051L1317.99 852.458L1253.51 844.935H1320.68L1387.86 844.866L1457.88 850.388ZM1655.35 847.489C1696.29 849.767 1769.16 853.632 1843.38 857.428L1887.61 859.706L1741.42 859.913L1595.38 860.051L1509.91 853.425C1462.98 849.767 1419.35 846.384 1413.2 845.901C1403.45 845.142 1416.8 845.004 1509.16 845.142L1616.37 845.28L1655.35 847.489ZM522.396 861.708C522.096 861.846 477.114 867.16 422.535 873.442L323.424 884.899L175.882 884.83C94.9132 884.761 30.1385 884.554 32.2377 884.416C34.3369 884.278 99.7113 879.032 177.681 872.82L319.376 861.57L421.186 861.501C477.264 861.432 522.696 861.57 522.396 861.708ZM663.491 862.605C658.993 863.502 596.767 874.477 549.985 882.553L536.341 884.899L438.579 884.761L340.817 884.554L359.41 882.415C388.648 878.963 463.319 870.059 500.055 865.642L533.792 861.57H601.265C663.341 861.57 668.289 861.639 663.491 862.605ZM763.502 861.846C763.052 862.053 742.96 867.368 718.82 873.58L675.037 884.899L611.611 884.761L548.036 884.554L612.211 873.027L676.236 861.57L720.319 861.501C744.609 861.432 764.102 861.639 763.502 861.846ZM838.923 863.088C836.823 863.985 824.528 869.231 811.483 874.822L787.793 884.899H735.163H682.384L726.466 873.165L770.699 861.432H806.685H842.671L838.923 863.088ZM918.392 862.053C918.392 862.329 914.343 867.575 909.545 873.58L900.698 884.554L847.919 884.761L795.14 884.899L821.08 873.234L847.169 861.501L882.855 861.432C902.348 861.432 918.392 861.708 918.392 862.053ZM1004.01 872.268C1008.21 878.273 1012.1 883.588 1012.55 884.002C1013 884.692 1001.91 884.899 960.375 884.899C918.841 884.899 907.746 884.692 908.196 884.002C908.645 883.588 912.544 878.273 916.742 872.268L924.689 861.432H960.375H996.061L1004.01 872.268ZM1099.67 873.234L1125.61 884.899L1072.83 884.761L1020.05 884.554L1011.21 873.58C1006.41 867.575 1002.36 862.329 1002.36 862.053C1002.36 861.708 1018.4 861.432 1038.04 861.432L1073.58 861.501L1099.67 873.234ZM1194.28 873.165L1238.37 884.899H1185.59H1132.96L1109.27 874.822C1096.22 869.231 1083.93 863.985 1081.83 863.088L1078.08 861.432H1114.07H1150.05L1194.28 873.165ZM1307.79 872.958L1372.71 884.554L1309.14 884.761L1245.71 884.899L1201.93 873.58C1177.79 867.368 1157.7 862.053 1157.25 861.846C1156.65 861.639 1175.84 861.432 1199.53 861.432H1242.86L1307.79 872.958ZM1420.4 865.642C1439.89 867.989 1475.12 872.199 1498.66 874.96C1522.21 877.79 1550.09 881.103 1560.59 882.277L1579.93 884.554L1482.17 884.761L1384.41 884.899L1370.76 882.553C1323.98 874.477 1261.76 863.502 1257.26 862.605C1252.46 861.639 1257.26 861.57 1318.44 861.501L1384.71 861.432L1420.4 865.642ZM1733.92 872.199C1808.59 878.135 1874.87 883.381 1881.02 883.864C1890.61 884.623 1870.82 884.761 1744.87 884.83L1597.33 884.899L1498.22 873.442C1443.64 867.16 1398.65 861.846 1398.35 861.708C1398.05 861.57 1442.74 861.432 1497.92 861.432H1598.08L1733.92 872.199ZM520.297 887.591C515.649 888.489 455.972 898.911 389.848 910.438C356.861 916.167 328.222 921.137 326.123 921.482C323.724 921.965 268.545 922.103 174.682 922.034L27.1397 921.827L40.4845 920.308C47.9816 919.411 65.8246 917.34 80.219 915.615C94.6133 913.889 121.003 910.714 138.696 908.643C156.389 906.573 178.431 903.95 187.427 902.845C196.574 901.741 220.114 898.911 239.907 896.564C259.699 894.218 285.639 891.181 297.634 889.731L319.376 887.108L421.336 887.039C477.414 887.039 521.946 887.315 520.297 887.591ZM664.241 887.591C663.341 887.936 633.203 895.805 596.917 905.192L531.243 922.172L435.13 922.034L339.018 921.827L398.994 911.197C431.832 905.33 475.764 897.531 496.306 893.803L533.792 887.039H599.766C637.251 886.97 664.991 887.246 664.241 887.591ZM778.196 888.972C775.647 890.076 757.205 898.014 737.112 906.573L700.527 922.172H621.657C574.126 922.172 543.688 921.896 545.037 921.482C546.237 921.137 575.925 913.268 611.012 903.95L674.737 886.97H728.716H782.695L778.196 888.972ZM893.351 893.32C890.502 896.84 884.055 904.778 879.107 910.921L870.11 922.172H791.091L712.222 922.103L751.207 904.571L790.192 887.039L844.32 886.97H898.599L893.351 893.32ZM1027.1 904.571L1039.24 921.827L999.81 922.034C978.068 922.103 942.682 922.103 920.941 922.034L881.506 921.827L893.201 905.261C899.649 896.15 905.197 888.282 905.647 887.798C906.096 887.108 917.942 886.97 960.525 887.108L1014.8 887.315L1027.1 904.571ZM1169.54 904.571L1208.53 922.103L1129.66 922.172H1050.64L1041.64 910.921C1036.7 904.778 1030.25 896.84 1027.4 893.32L1022.15 886.97H1076.43L1130.56 887.039L1169.54 904.571ZM1309.74 903.95C1344.82 913.268 1374.51 921.137 1375.71 921.482C1377.06 921.896 1346.62 922.172 1299.09 922.172H1220.22L1183.64 906.573C1163.55 898.014 1145.1 890.076 1142.55 888.972L1138.06 886.97H1192.03H1246.01L1309.74 903.95ZM1429.99 894.839C1454.13 899.118 1498.22 906.987 1527.75 912.233L1581.73 921.827L1485.62 922.034L1389.51 922.172L1323.83 905.192C1287.55 895.805 1257.41 887.936 1256.66 887.591C1255.76 887.246 1283.35 886.97 1320.53 886.97H1386.06L1429.99 894.839ZM1634.96 891.181C1654.45 893.458 1679.34 896.426 1690.29 897.738C1732.72 902.776 1751.02 904.985 1782.05 908.643C1799.75 910.714 1826.14 913.889 1840.53 915.615C1854.93 917.34 1872.77 919.411 1880.27 920.308L1893.61 921.827L1746.07 922.034C1652.2 922.103 1597.03 921.965 1594.63 921.482C1592.53 921.137 1563.89 916.167 1530.9 910.438C1464.78 898.911 1405.1 888.489 1400.45 887.591C1398.8 887.315 1442.89 887.039 1498.51 887.039L1599.58 886.97L1634.96 891.181ZM517.298 925.554C516.399 925.899 470.666 937.84 415.488 952.128L315.327 978.081L170.334 977.943C33.4372 977.736 25.7902 977.667 32.2377 976.562C38.8351 975.458 282.64 931.973 308.13 927.349L320.875 925.002H419.836C479.213 924.933 518.048 925.209 517.298 925.554ZM691.98 925.899C690.78 926.451 662.741 938.392 629.754 952.473L569.778 978.081H451.324C376.953 978.081 333.77 977.805 335.119 977.391C336.319 977.045 380.852 965.104 434.081 950.886L530.793 925.071L612.511 925.002C682.834 924.933 693.779 925.071 691.98 925.899ZM866.962 925.761C866.662 926.244 856.916 938.254 845.52 952.335L824.678 978.081H705.475H586.271L590.77 976.148C593.319 975.044 620.008 963.103 650.296 949.574L705.325 924.933H786.593C850.918 924.933 867.561 925.14 866.962 925.761ZM1060.39 951.162C1070.43 965.38 1078.83 977.252 1078.83 977.529C1078.83 977.874 1025.6 978.081 960.375 978.081C895.301 978.081 841.921 977.874 841.921 977.667C841.921 977.114 878.057 926.106 878.957 925.416C879.257 925.14 916.142 925.002 960.675 925.071L1041.94 925.278L1060.39 951.162ZM1270.45 949.574C1300.74 963.103 1327.43 975.044 1329.98 976.148L1334.48 978.081H1215.28H1096.07L1075.23 952.335C1063.83 938.254 1054.09 926.244 1053.79 925.761C1053.19 925.14 1069.83 924.933 1134.16 924.933H1215.43L1270.45 949.574ZM1483.82 950.195C1536.15 964.069 1580.98 976.01 1583.38 976.769C1587.88 978.012 1586.38 978.081 1469.43 978.081H1350.97L1291 952.473C1258.01 938.392 1229.97 926.451 1228.77 925.899C1226.97 925.071 1237.62 924.933 1307.79 924.933H1388.76L1483.82 950.195ZM1648.91 933.837C1836.78 967.382 1882.51 975.596 1888.51 976.562C1894.96 977.667 1887.16 977.736 1750.42 977.943L1605.42 978.081L1505.26 952.128C1450.08 937.84 1404.35 925.899 1403.6 925.554C1402.7 925.209 1441.24 924.933 1500.61 924.933H1598.98L1648.91 933.837Z" fill="#340474" fill-opacity="0.56"/>
<path d="M1092.32 834.512C1093.52 834.858 1095.32 835.203 1096.07 835.203C1096.97 835.203 1096.52 834.858 1095.32 834.512C1094.12 834.167 1092.47 833.822 1091.57 833.822C1090.82 833.822 1091.12 834.167 1092.32 834.512Z" fill="#340474" fill-opacity="0.56"/>
<path d="M19.9424 825.332C25.7901 825.47 35.6863 825.47 41.6839 825.332C47.5316 825.263 42.7335 825.125 30.7382 825.125C18.7429 825.125 13.9448 825.263 19.9424 825.332Z" fill="#340474" fill-opacity="0.56"/>
<path d="M340.067 825.332C343.966 825.47 350.113 825.47 353.562 825.332C357.011 825.194 353.862 825.125 346.365 825.125C339.018 825.125 336.169 825.194 340.067 825.332Z" fill="#340474" fill-opacity="0.56"/>
<path d="M549.236 825.332C551.935 825.47 555.983 825.47 558.233 825.332C560.482 825.194 558.233 825.056 553.285 825.056C548.336 825.056 546.537 825.194 549.236 825.332Z" fill="#340474" fill-opacity="0.56"/>
<path d="M687.182 825.332C688.981 825.47 691.98 825.47 693.929 825.332C695.728 825.194 694.229 825.056 690.48 825.056C686.732 825.056 685.233 825.194 687.182 825.332Z" fill="#340474" fill-opacity="0.56"/>
<path d="M778.646 825.332C779.545 825.47 781.345 825.47 782.394 825.332C783.294 825.125 782.544 824.987 780.445 824.987C778.346 824.987 777.596 825.125 778.646 825.332Z" fill="#340474" fill-opacity="0.56"/>
<path d="M840.121 825.332C841.171 825.539 842.52 825.47 842.97 825.263C843.57 825.056 842.67 824.849 841.021 824.918C839.371 824.918 838.922 825.125 840.121 825.332Z" fill="#340474" fill-opacity="0.56"/>
<path d="M903.397 825.539C902.197 825.885 901.897 826.23 902.647 826.23C903.547 826.23 905.196 825.885 906.396 825.539C907.595 825.194 908.045 824.849 907.145 824.849C906.396 824.849 904.596 825.194 903.397 825.539Z" fill="#340474" fill-opacity="0.56"/>
<path d="M1014.35 825.539C1015.55 825.885 1017.35 826.23 1018.1 826.23C1019 826.23 1018.55 825.885 1017.35 825.539C1016.15 825.194 1014.5 824.849 1013.6 824.849C1012.85 824.849 1013.15 825.194 1014.35 825.539Z" fill="#340474" fill-opacity="0.56"/>
<path d="M1078.53 825.332C1079.58 825.539 1080.93 825.47 1081.38 825.263C1081.98 825.056 1081.08 824.849 1079.43 824.918C1077.78 824.918 1077.33 825.125 1078.53 825.332Z" fill="#340474" fill-opacity="0.56"/>
<path d="M1138.51 825.332C1139.4 825.47 1141.2 825.47 1142.25 825.332C1143.15 825.125 1142.4 824.987 1140.3 824.987C1138.21 824.987 1137.46 825.125 1138.51 825.332Z" fill="#340474" fill-opacity="0.56"/>
<path d="M1226.97 825.332C1228.77 825.47 1231.77 825.47 1233.72 825.332C1235.52 825.194 1234.02 825.056 1230.27 825.056C1226.52 825.056 1225.02 825.194 1226.97 825.332Z" fill="#340474" fill-opacity="0.56"/>
<path d="M1363.42 825.332C1366.12 825.47 1370.17 825.47 1372.41 825.332C1374.66 825.194 1372.41 825.056 1367.47 825.056C1362.52 825.056 1360.72 825.194 1363.42 825.332Z" fill="#340474" fill-opacity="0.56"/>
<path d="M1568.09 825.332C1571.99 825.47 1578.13 825.47 1581.58 825.332C1585.03 825.194 1581.88 825.125 1574.39 825.125C1567.04 825.125 1564.19 825.194 1568.09 825.332Z" fill="#340474" fill-opacity="0.56"/>
<path d="M1879.22 825.332C1885.06 825.47 1894.96 825.47 1900.96 825.332C1906.81 825.263 1902.01 825.125 1890.01 825.125C1878.02 825.125 1873.22 825.263 1879.22 825.332Z" fill="#340474" fill-opacity="0.56"/>
<path d="M298.084 826.023C301.982 826.161 308.28 826.161 312.328 826.023C316.227 825.885 312.928 825.816 305.131 825.816C297.334 825.816 294.035 825.885 298.084 826.023Z" fill="#340474" fill-opacity="0.56"/>
<path d="M522.246 826.023C524.945 826.161 528.993 826.161 531.242 826.023C533.491 825.885 531.242 825.747 526.294 825.747C521.346 825.747 519.547 825.885 522.246 826.023Z" fill="#340474" fill-opacity="0.56"/>
<path d="M669.189 826.023C670.988 826.161 673.987 826.161 675.936 826.023C677.735 825.885 676.236 825.747 672.487 825.747C668.739 825.747 667.239 825.885 669.189 826.023Z" fill="#340474" fill-opacity="0.56"/>
<path d="M767.4 826.023C768.75 826.161 770.849 826.161 771.898 826.023C772.798 825.816 771.748 825.678 769.199 825.678C766.8 825.678 765.901 825.816 767.4 826.023Z" fill="#340474" fill-opacity="0.56"/>
<path d="M831.126 826.023C832.026 826.161 833.825 826.161 834.875 826.023C835.774 825.816 835.025 825.678 832.926 825.678C830.826 825.678 830.077 825.816 831.126 826.023Z" fill="#340474" fill-opacity="0.56"/>
<path d="M874.608 826.023C875.658 826.23 877.007 826.161 877.457 825.954C878.057 825.747 877.157 825.539 875.508 825.608C873.859 825.608 873.409 825.816 874.608 826.023Z" fill="#340474" fill-opacity="0.56"/>
<path d="M1044.04 826.023C1045.09 826.23 1046.44 826.161 1046.89 825.954C1047.49 825.747 1046.59 825.539 1044.94 825.608C1043.29 825.608 1042.84 825.816 1044.04 826.023Z" fill="#340474" fill-opacity="0.56"/>
<path d="M1086.03 826.023C1086.93 826.161 1088.72 826.161 1089.77 826.023C1090.67 825.816 1089.92 825.678 1087.82 825.678C1085.73 825.678 1084.98 825.816 1086.03 826.023Z" fill="#340474" fill-opacity="0.56"/>
<path d="M1149.75 826.023C1151.1 826.161 1153.2 826.161 1154.25 826.023C1155.15 825.816 1154.1 825.678 1151.55 825.678C1149.15 825.678 1148.25 825.816 1149.75 826.023Z" fill="#340474" fill-opacity="0.56"/>
<path d="M1244.96 826.023C1246.76 826.161 1249.76 826.161 1251.71 826.023C1253.51 825.885 1252.01 825.747 1248.26 825.747C1244.51 825.747 1243.01 825.885 1244.96 826.023Z" fill="#340474" fill-opacity="0.56"/>
<path d="M1390.41 826.023C1393.11 826.161 1397.15 826.161 1399.4 826.023C1401.65 825.885 1399.4 825.747 1394.46 825.747C1389.51 825.747 1387.71 825.885 1390.41 826.023Z" fill="#340474" fill-opacity="0.56"/>
<path d="M1608.57 826.023C1612.47 826.161 1618.77 826.161 1622.82 826.023C1626.71 825.885 1623.42 825.816 1615.62 825.816C1607.82 825.816 1604.52 825.885 1608.57 826.023Z" fill="#340474" fill-opacity="0.56"/>
<path d="M244.105 827.403C245.455 827.541 247.854 827.541 249.353 827.403C250.703 827.196 249.503 827.058 246.654 827.058C243.805 827.058 242.606 827.196 244.105 827.403Z" fill="#340474" fill-opacity="0.56"/>
<path d="M486.26 827.403C487.309 827.61 488.659 827.541 489.109 827.334C489.708 827.127 488.809 826.92 487.159 826.989C485.51 826.989 485.06 827.196 486.26 827.403Z" fill="#340474" fill-opacity="0.56"/>
<path d="M645.197 827.403C646.247 827.61 647.596 827.541 648.046 827.334C648.646 827.127 647.746 826.92 646.097 826.989C644.448 826.989 643.998 827.196 645.197 827.403Z" fill="#340474" fill-opacity="0.56"/>
<path d="M1273.45 827.403C1274.5 827.61 1275.85 827.541 1276.3 827.334C1276.9 827.127 1276 826.92 1274.35 826.989C1272.7 826.989 1272.25 827.196 1273.45 827.403Z" fill="#340474" fill-opacity="0.56"/>
<path d="M1432.39 827.403C1433.44 827.61 1434.79 827.541 1435.24 827.334C1435.84 827.127 1434.94 826.92 1433.29 826.989C1431.64 826.989 1431.19 827.196 1432.39 827.403Z" fill="#340474" fill-opacity="0.56"/>
<path d="M1671.55 827.403C1672.9 827.541 1675.3 827.541 1676.79 827.403C1678.14 827.196 1676.94 827.058 1674.1 827.058C1671.25 827.058 1670.05 827.196 1671.55 827.403Z" fill="#340474" fill-opacity="0.56"/>
<path d="M221.613 828.093C222.963 828.231 225.362 828.231 226.861 828.093C228.211 827.886 227.011 827.748 224.162 827.748C221.313 827.748 220.114 827.886 221.613 828.093Z" fill="#340474" fill-opacity="0.56"/>
<path d="M469.767 828.093C470.667 828.231 472.466 828.231 473.515 828.093C474.415 827.886 473.665 827.748 471.566 827.748C469.467 827.748 468.717 827.886 469.767 828.093Z" fill="#340474" fill-opacity="0.56"/>
<path d="M1447.38 828.093C1448.28 828.231 1450.08 828.231 1451.13 828.093C1452.03 827.886 1451.28 827.748 1449.18 827.748C1447.08 827.748 1446.33 827.886 1447.38 828.093Z" fill="#340474" fill-opacity="0.56"/>
<path d="M1694.04 828.093C1695.39 828.231 1697.79 828.231 1699.29 828.093C1700.64 827.886 1699.44 827.748 1696.59 827.748C1693.74 827.748 1692.54 827.886 1694.04 828.093Z" fill="#340474" fill-opacity="0.56"/>
<path d="M184.128 828.784C186.377 828.922 189.676 828.922 191.625 828.784C193.425 828.646 191.625 828.507 187.427 828.507C183.379 828.507 181.729 828.646 184.128 828.784Z" fill="#340474" fill-opacity="0.56"/>
<path d="M445.776 828.784C446.675 828.922 448.475 828.922 449.524 828.784C450.424 828.576 449.674 828.438 447.575 828.438C445.476 828.438 444.726 828.576 445.776 828.784Z" fill="#340474" fill-opacity="0.56"/>
<path d="M618.208 828.784C619.108 828.922 620.907 828.922 621.957 828.784C622.856 828.576 622.107 828.438 620.008 828.438C617.908 828.438 617.159 828.576 618.208 828.784Z" fill="#340474" fill-opacity="0.56"/>
<path d="M1298.94 828.784C1299.84 828.922 1301.64 828.922 1302.69 828.784C1303.59 828.576 1302.84 828.438 1300.74 828.438C1298.64 828.438 1297.89 828.576 1298.94 828.784Z" fill="#340474" fill-opacity="0.56"/>
<path d="M1470.63 828.784C1471.98 828.922 1474.08 828.922 1475.12 828.784C1476.02 828.576 1474.97 828.438 1472.43 828.438C1470.03 828.438 1469.13 828.576 1470.63 828.784Z" fill="#340474" fill-opacity="0.56"/>
<path d="M1730.02 828.784C1732.27 828.922 1735.57 828.922 1737.52 828.784C1739.32 828.646 1737.52 828.507 1733.32 828.507C1729.27 828.507 1727.62 828.646 1730.02 828.784Z" fill="#340474" fill-opacity="0.56"/>
<path d="M158.638 829.474C160.887 829.612 164.186 829.612 166.135 829.474C167.934 829.336 166.135 829.198 161.937 829.198C157.888 829.198 156.239 829.336 158.638 829.474Z" fill="#340474" fill-opacity="0.56"/>
<path d="M430.032 829.474C431.381 829.612 433.481 829.612 434.53 829.474C435.43 829.267 434.38 829.129 431.831 829.129C429.432 829.129 428.532 829.267 430.032 829.474Z" fill="#340474" fill-opacity="0.56"/>
<path d="M606.963 829.474C608.312 829.612 610.411 829.612 611.461 829.474C612.36 829.267 611.311 829.129 608.762 829.129C606.363 829.129 605.463 829.267 606.963 829.474Z" fill="#340474" fill-opacity="0.56"/>
<path d="M726.165 829.474C727.215 829.681 728.564 829.612 729.014 829.405C729.614 829.198 728.714 828.991 727.065 829.06C725.415 829.06 724.965 829.267 726.165 829.474Z" fill="#340474" fill-opacity="0.56"/>
<path d="M1192.48 829.474C1193.53 829.681 1194.88 829.612 1195.33 829.405C1195.93 829.198 1195.03 828.991 1193.38 829.06C1191.73 829.06 1191.28 829.267 1192.48 829.474Z" fill="#340474" fill-opacity="0.56"/>
<path d="M1310.19 829.474C1311.54 829.612 1313.64 829.612 1314.69 829.474C1315.59 829.267 1314.54 829.129 1311.99 829.129C1309.59 829.129 1308.69 829.267 1310.19 829.474Z" fill="#340474" fill-opacity="0.56"/>
<path d="M1487.12 829.474C1488.47 829.612 1490.57 829.612 1491.62 829.474C1492.52 829.267 1491.47 829.129 1488.92 829.129C1486.52 829.129 1485.62 829.267 1487.12 829.474Z" fill="#340474" fill-opacity="0.56"/>
<path d="M1755.51 829.474C1757.76 829.612 1761.06 829.612 1763.01 829.474C1764.81 829.336 1763.01 829.198 1758.81 829.198C1754.76 829.198 1753.11 829.336 1755.51 829.474Z" fill="#340474" fill-opacity="0.56"/>
<path d="M122.652 830.164C124.901 830.302 128.5 830.302 130.899 830.164C133.148 830.026 131.199 829.888 126.701 829.888C122.202 829.888 120.253 830.026 122.652 830.164Z" fill="#340474" fill-opacity="0.56"/>
<path d="M406.79 830.164C408.59 830.302 411.289 830.302 412.788 830.164C414.138 829.957 412.638 829.819 409.339 829.888C406.041 829.888 404.841 830.026 406.79 830.164Z" fill="#340474" fill-opacity="0.56"/>
<path d="M591.969 830.164C593.319 830.302 595.418 830.302 596.468 830.164C597.367 829.957 596.318 829.819 593.769 829.819C591.37 829.819 590.47 829.957 591.969 830.164Z" fill="#340474" fill-opacity="0.56"/>
<path d="M715.67 830.164C716.719 830.371 718.069 830.302 718.519 830.095C719.119 829.888 718.219 829.681 716.57 829.75C714.92 829.75 714.47 829.957 715.67 830.164Z" fill="#340474" fill-opacity="0.56"/>
<path d="M1202.98 830.164C1204.03 830.371 1205.38 830.302 1205.83 830.095C1206.43 829.888 1205.53 829.681 1203.88 829.75C1202.23 829.75 1201.78 829.957 1202.98 830.164Z" fill="#340474" fill-opacity="0.56"/>
<path d="M1325.18 830.164C1326.53 830.302 1328.63 830.302 1329.68 830.164C1330.58 829.957 1329.53 829.819 1326.98 829.819C1324.58 829.819 1323.68 829.957 1325.18 830.164Z" fill="#340474" fill-opacity="0.56"/>
<path d="M1508.86 830.164C1510.66 830.302 1513.36 830.302 1514.86 830.164C1516.21 829.957 1514.71 829.819 1511.41 829.888C1508.11 829.888 1506.91 830.026 1508.86 830.164Z" fill="#340474" fill-opacity="0.56"/>
<path d="M1790 830.164C1792.25 830.302 1795.85 830.302 1798.25 830.164C1800.5 830.026 1798.55 829.888 1794.05 829.888C1789.55 829.888 1787.6 830.026 1790 830.164Z" fill="#340474" fill-opacity="0.56"/>
<path d="M94.7632 830.854C97.4621 830.992 102.26 830.992 105.259 830.854C108.408 830.716 106.309 830.578 100.461 830.578C94.7632 830.578 92.2142 830.716 94.7632 830.854Z" fill="#340474" fill-opacity="0.56"/>
<path d="M388.798 830.854C390.598 830.992 393.296 830.992 394.796 830.854C396.145 830.647 394.646 830.509 391.347 830.578C388.048 830.578 386.849 830.716 388.798 830.854Z" fill="#340474" fill-opacity="0.56"/>
<path d="M579.973 830.854C581.323 830.992 583.422 830.992 584.472 830.854C585.371 830.647 584.322 830.509 581.773 830.509C579.374 830.509 578.474 830.647 579.973 830.854Z" fill="#340474" fill-opacity="0.56"/>
<path d="M708.173 830.854C709.222 831.061 710.572 830.992 711.022 830.785C711.621 830.578 710.722 830.371 709.072 830.44C707.423 830.44 706.973 830.647 708.173 830.854Z" fill="#340474" fill-opacity="0.56"/>
<path d="M792.14 830.854C793.189 831.061 794.539 830.992 794.989 830.785C795.588 830.578 794.689 830.371 793.039 830.44C791.39 830.44 790.94 830.647 792.14 830.854Z" fill="#340474" fill-opacity="0.56"/>
<path d="M1126.51 830.854C1127.56 831.061 1128.91 830.992 1129.36 830.785C1129.96 830.578 1129.06 830.371 1127.41 830.44C1125.76 830.44 1125.31 830.647 1126.51 830.854Z" fill="#340474" fill-opacity="0.56"/>
<path d="M1210.48 830.854C1211.53 831.061 1212.88 830.992 1213.33 830.785C1213.93 830.578 1213.03 830.371 1211.38 830.44C1209.73 830.44 1209.28 830.647 1210.48 830.854Z" fill="#340474" fill-opacity="0.56"/>
<path d="M1337.18 830.854C1338.53 830.992 1340.63 830.992 1341.68 830.854C1342.58 830.647 1341.53 830.509 1338.98 830.509C1336.58 830.509 1335.68 830.647 1337.18 830.854Z" fill="#340474" fill-opacity="0.56"/>
<path d="M1526.85 830.854C1528.65 830.992 1531.35 830.992 1532.85 830.854C1534.2 830.647 1532.7 830.509 1529.4 830.578C1526.1 830.578 1524.9 830.716 1526.85 830.854Z" fill="#340474" fill-opacity="0.56"/>
<path d="M1814.59 830.854C1817.29 830.992 1822.09 830.992 1825.09 830.854C1828.24 830.716 1826.14 830.578 1820.29 830.578C1814.59 830.578 1812.04 830.716 1814.59 830.854Z" fill="#340474" fill-opacity="0.56"/>
<path d="M63.425 831.544C66.8736 831.683 72.2715 831.683 75.4203 831.544C78.4191 831.406 75.5702 831.268 68.9728 831.268C62.3754 831.268 59.8264 831.406 63.425 831.544Z" fill="#340474" fill-opacity="0.56"/>
<path d="M365.557 831.544C367.806 831.683 371.105 831.683 373.054 831.544C374.853 831.406 373.054 831.268 368.856 831.268C364.807 831.268 363.158 831.406 365.557 831.544Z" fill="#340474" fill-opacity="0.56"/>
<path d="M564.979 831.544C566.329 831.683 568.728 831.683 570.227 831.544C571.577 831.337 570.377 831.199 567.528 831.199C564.679 831.199 563.48 831.337 564.979 831.544Z" fill="#340474" fill-opacity="0.56"/>
<path d="M697.678 831.544C698.578 831.683 700.377 831.683 701.427 831.544C702.326 831.337 701.577 831.199 699.477 831.199C697.378 831.199 696.628 831.337 697.678 831.544Z" fill="#340474" fill-opacity="0.56"/>
<path d="M1219.47 831.544C1220.37 831.683 1222.17 831.683 1223.22 831.544C1224.12 831.337 1223.37 831.199 1221.27 831.199C1219.17 831.199 1218.42 831.337 1219.47 831.544Z" fill="#340474" fill-opacity="0.56"/>
<path d="M1350.67 831.544C1352.02 831.683 1354.42 831.683 1355.92 831.544C1357.27 831.337 1356.07 831.199 1353.22 831.199C1350.37 831.199 1349.17 831.337 1350.67 831.544Z" fill="#340474" fill-opacity="0.56"/>
<path d="M1548.6 831.544C1550.84 831.683 1554.14 831.683 1556.09 831.544C1557.89 831.406 1556.09 831.268 1551.89 831.268C1547.85 831.268 1546.2 831.406 1548.6 831.544Z" fill="#340474" fill-opacity="0.56"/>
<path d="M1846.23 831.544C1849.68 831.683 1855.08 831.683 1858.22 831.544C1861.22 831.406 1858.37 831.268 1851.78 831.268C1845.18 831.268 1842.63 831.406 1846.23 831.544Z" fill="#340474" fill-opacity="0.56"/>
<path d="M17.2433 832.442L0 832.856L21.7415 832.994C33.7368 833.063 44.5326 832.787 45.7321 832.442C48.1312 831.683 47.3815 831.683 17.2433 832.442Z" fill="#340474" fill-opacity="0.56"/>
<path d="M346.965 832.028C346.365 832.304 279.641 832.58 198.523 832.649L50.9805 832.787L172.433 833.132C239.307 833.339 291.487 833.684 288.638 833.891C285.789 834.098 289.837 834.167 297.634 834.029C305.431 833.822 321.625 833.477 333.47 833.27C363.309 832.58 519.847 833.132 514.3 833.891C510.701 834.374 511.301 834.374 516.998 834.167C520.897 833.96 531.543 833.615 540.689 833.408C549.686 833.132 557.483 832.58 558.082 832.235C558.682 831.752 557.183 831.683 553.884 832.028C547.736 832.58 364.208 832.58 354.612 832.028C350.863 831.821 347.415 831.821 346.965 832.028Z" fill="#340474" fill-opacity="0.56"/>
<path d="M1362.67 832.235C1363.27 832.58 1371.06 833.132 1380.06 833.408C1389.21 833.615 1399.85 833.96 1403.75 834.167C1409.45 834.374 1410.05 834.374 1406.45 833.891C1400.9 833.132 1557.44 832.58 1587.28 833.27C1599.12 833.477 1615.32 833.822 1623.11 834.029C1630.91 834.167 1634.96 834.098 1632.11 833.891C1629.26 833.684 1681.59 833.339 1748.32 833.132L1869.77 832.787L1722.83 832.511C1642.01 832.373 1573.18 832.235 1569.89 832.235C1566.59 832.235 1520.7 832.304 1467.93 832.373C1415.15 832.442 1369.71 832.304 1366.86 832.028C1363.57 831.683 1362.07 831.752 1362.67 832.235Z" fill="#340474" fill-opacity="0.56"/>
<path d="M1875.02 832.442C1877.12 833.063 1921.35 833.477 1919.85 832.856C1919.55 832.718 1908.75 832.442 1896.01 832.235C1881.02 831.959 1873.52 832.028 1875.02 832.442Z" fill="#340474" fill-opacity="0.56"/>
<path d="M250.402 835.203L239.906 835.617L248.903 835.686C253.851 835.686 262.697 835.479 268.395 835.203L278.891 834.72H269.895C264.946 834.72 256.25 834.927 250.402 835.203Z" fill="#340474" fill-opacity="0.56"/>
<path d="M1652.35 835.203C1658.2 835.479 1666.9 835.686 1671.85 835.686H1680.84L1669.6 835.203C1663.45 834.927 1654.6 834.72 1650.11 834.72C1642.16 834.72 1642.16 834.72 1652.35 835.203Z" fill="#340474" fill-opacity="0.56"/>
<rect x="1920" y="1085" width="1905" height="249" transform="rotate(180 1920 1085)" fill="url(#paint5_linear)"/>
</g>
<defs>
<linearGradient id="paint0_linear" x1="2866.5" y1="1051" x2="2866.5" y2="1227" gradientUnits="userSpaceOnUse">
<stop/>
<stop offset="0.979067" stop-opacity="0"/>
</linearGradient>
<linearGradient id="paint1_linear" x1="959.5" y1="-29" x2="959.5" y2="257" gradientUnits="userSpaceOnUse">
<stop/>
<stop offset="0.979067" stop-opacity="0"/>
</linearGradient>
<linearGradient id="paint2_linear" x1="960" y1="-29" x2="960" y2="1051" gradientUnits="userSpaceOnUse">
<stop stop-color="#100024"/>
<stop offset="0.465201" stop-color="#270170"/>
<stop offset="0.835165" stop-color="#9B158F"/>
<stop offset="0.974359" stop-color="#D141A5"/>
</linearGradient>
<linearGradient id="paint3_linear" x1="534" y1="1080" x2="534" y2="1427" gradientUnits="userSpaceOnUse">
<stop/>
<stop offset="0.979067" stop-opacity="0"/>
</linearGradient>
<linearGradient id="paint4_linear" x1="2460" y1="1" x2="2460" y2="348" gradientUnits="userSpaceOnUse">
<stop/>
<stop offset="0.979067" stop-opacity="0"/>
</linearGradient>
<linearGradient id="paint5_linear" x1="2872.5" y1="1085" x2="2872.5" y2="1334" gradientUnits="userSpaceOnUse">
<stop/>
<stop offset="0.979067" stop-opacity="0"/>
</linearGradient>
<clipPath id="clip0">
<rect width="1920" height="1080" fill="white"/>
</clipPath>
</defs>
</svg>
