<svg width="137" height="137" viewBox="0 0 137 137" fill="none" xmlns="http://www.w3.org/2000/svg">
<path d="M18.1012 69.0395V67.6438C26.7065 66.7703 30.9192 62.3778 30.9192 53.9438V38.557C30.9192 29.1895 34.2585 25.3878 42.5128 25.3878H44.8503V17.125H41.6308C27.8282 17.125 21.3207 23.624 21.3207 37.264V50.3132C21.3207 59.6807 18.1012 62.7802 8.5625 62.7802V73.903C18.1012 73.903 21.3207 77.0025 21.3207 86.37V99.4192C21.3207 113.059 27.8195 119.558 41.6308 119.558H44.8503V111.304H42.5128C34.2585 111.304 30.9192 107.502 30.9192 98.1348V82.7395C30.9192 74.314 26.7065 69.9213 18.1012 69.0395ZM118.899 67.6438V69.0395C110.294 69.9213 106.081 74.314 106.081 82.7395V98.1348C106.081 107.502 102.741 111.304 94.4872 111.304H92.1497V119.558H95.3692C109.18 119.558 115.679 113.059 115.679 99.4192V86.37C115.679 77.0025 118.899 73.903 128.438 73.903V62.7802C118.899 62.7802 115.679 59.6807 115.679 50.3132V37.264C115.679 23.624 109.172 17.125 95.3692 17.125H92.1497V25.3792H94.4872C102.741 25.3792 106.081 29.181 106.081 38.5483V53.9438C106.081 62.3693 110.294 66.7618 118.899 67.6438Z" fill="white"/>
</svg>
