<svg width="157" height="157" viewBox="0 0 157 157" fill="none" xmlns="http://www.w3.org/2000/svg">
<path d="M43.2339 32.7934C53.0413 24.3364 65.5499 19.6656 78.5 19.625C104.896 19.625 126.807 39.25 129.191 64.5564C144.813 66.7643 157 79.8442 157 95.8975C157 113.521 142.301 127.563 124.491 127.563H37.101C16.7598 127.563 0 111.529 0 91.4329C0 74.1334 12.4226 59.8071 28.8684 56.1765C30.2715 47.7084 35.7175 39.2696 43.2339 32.7934ZM49.6415 40.2214C42.2134 46.629 38.3276 54.3515 38.3276 60.396V64.792L33.961 65.2728C20.253 66.774 9.8125 78.029 9.8125 91.4329C9.8125 105.828 21.8819 117.75 37.101 117.75H124.491C137.179 117.75 147.188 107.82 147.188 95.8975C147.188 83.9655 137.179 74.0354 124.491 74.0354H119.585V69.1291C119.595 47.3454 101.344 29.4375 78.5 29.4375C67.9013 29.4798 57.6664 33.3079 49.6415 40.2313V40.2214Z" fill="white"/>
</svg>
