<svg width="59" height="59" viewBox="0 0 59 59" fill="none" xmlns="http://www.w3.org/2000/svg">
<path d="M39.1423 28.025C39.1423 29.8245 37.6251 31.2995 35.7034 31.2995C33.8154 31.2995 32.2646 29.8245 32.2646 28.025C32.2646 26.2255 33.7817 24.7505 35.7034 24.7505C37.6251 24.7505 39.1423 26.2255 39.1423 28.025ZM23.3977 24.7505C21.476 24.7505 19.9589 26.2255 19.9589 28.025C19.9589 29.8245 21.5097 31.2995 23.3977 31.2995C25.3194 31.2995 26.8366 29.8245 26.8366 28.025C26.8703 26.2255 25.3194 24.7505 23.3977 24.7505ZM59 6.077V59C50.5064 52.4323 53.2227 54.6063 43.3566 46.5805L45.1434 52.038H6.91143C3.10171 52.038 0 49.324 0 45.961V6.077C0 2.714 3.10171 0 6.91143 0H52.0886C55.8983 0 59 2.714 59 6.077ZM49.3914 34.043C49.3914 24.544 44.5366 16.8445 44.5366 16.8445C39.6817 13.6585 35.0629 13.747 35.0629 13.747L34.5909 14.219C40.3223 15.753 42.9857 17.9655 42.9857 17.9655C34.9771 14.1249 25.5697 14.1242 17.8011 17.11C16.5537 17.6115 15.812 17.9655 15.812 17.9655C15.812 17.9655 18.6103 15.635 24.6789 14.101L24.3417 13.747C24.3417 13.747 19.7229 13.6585 14.868 16.8445C14.868 16.8445 10.0131 24.544 10.0131 34.043C10.0131 34.043 12.8451 38.3205 20.296 38.527C20.296 38.527 21.5434 37.1995 22.5549 36.0785C18.2731 34.9575 16.6549 32.5975 16.6549 32.5975C17.1508 32.9013 17.9687 33.295 18.0371 33.335C23.7277 36.1234 31.811 37.037 39.0749 34.3675C40.2549 33.984 41.5697 33.4235 42.952 32.627C42.952 32.627 41.2663 35.046 36.8497 36.1375C37.8611 37.2585 39.0749 38.527 39.0749 38.527C46.5257 38.3205 49.3914 34.043 49.3914 34.043Z" fill="#EAEAEA"/>
</svg>
