<svg width="86" height="116" viewBox="0 0 86 116" fill="none" xmlns="http://www.w3.org/2000/svg">
<path d="M62.6025 70.8905C64.8351 69.3725 67.9336 68.0585 67.9336 68.0585C67.9336 68.0585 59.1168 69.6444 50.3455 70.3694C39.615 71.253 28.0871 71.4342 22.3004 70.6639C8.60818 68.8514 29.8186 63.8445 29.8186 63.8445C29.8186 63.8445 21.5942 63.3007 11.456 68.1491C-0.504778 73.9037 41.0731 76.5318 62.6025 70.8905ZM43.1463 63.6179C38.8176 53.9438 24.2141 45.4478 43.1463 30.5855C66.7625 12.053 54.6514 0 54.6514 0C59.5496 19.1443 37.4279 24.9442 29.4313 36.8386C23.9863 44.9721 32.0968 53.6946 43.1463 63.6179ZM69.2549 23.6981C69.2777 23.6981 29.3402 33.6214 48.409 55.4618C54.0363 61.8961 46.9282 67.696 46.9282 67.696C46.9282 67.696 61.2127 60.3554 54.6514 51.1798C48.5229 42.6158 43.8298 38.3565 69.2549 23.6981ZM67.8652 84.9825C67.7407 85.1983 67.5874 85.3965 67.4096 85.5715C96.6394 77.9365 85.8861 58.6336 71.9205 63.5273C71.1662 63.8029 70.5145 64.3009 70.0523 64.9546C70.8678 64.6611 71.7059 64.4338 72.5584 64.2749C79.6209 62.8023 89.7591 73.6771 67.8652 84.9825ZM78.6094 99.0971C78.6094 99.0971 81.9128 101.793 74.987 103.9C61.796 107.865 20.127 109.066 8.5535 104.059C4.38433 102.269 12.1987 99.7541 14.6592 99.2331C17.2108 98.6893 18.6917 98.7799 18.6917 98.7799C14.0668 95.5401 -11.2216 105.146 5.8424 107.888C52.3732 115.409 90.6841 104.512 78.6094 99.0971ZM27.6771 89.7176C9.7473 94.7019 38.5898 104.988 61.4178 95.2683C59.1914 94.4081 57.0422 93.3622 54.9932 92.1418C44.8094 94.0675 40.0935 94.2034 30.8438 93.1613C23.2117 92.3003 27.6771 89.7176 27.6771 89.7176ZM68.6398 111.739C50.7101 115.092 28.5883 114.707 15.4885 112.555C15.4885 112.532 18.1768 114.752 31.9829 115.636C52.9883 116.973 85.2482 114.888 86 105.01C86 105.01 84.5419 108.749 68.6398 111.739ZM58.7067 79.9755C45.2195 82.5583 37.4051 82.4903 27.5404 81.4708C19.9083 80.6778 24.8976 77.0076 24.8976 77.0076C5.12247 83.5325 35.8787 90.9183 63.5138 82.8755C61.7277 82.2483 60.0911 81.261 58.7067 79.9755Z" fill="#60B7B1"/>
</svg>
