<svg width="216" height="204" viewBox="0 0 216 204" fill="none" xmlns="http://www.w3.org/2000/svg">
<path d="M0 2.96696e-09H17.3707C44.4182 2.96696e-09 70.3579 10.7446 89.4834 29.8701C108.609 48.9955 119.353 74.9352 119.353 101.983C119.353 129.03 108.609 154.97 89.4834 174.095C70.3579 193.221 44.4182 203.966 17.3707 203.966H0V159.138H17.3707C32.5292 159.138 47.0668 153.116 57.7855 142.398C68.5042 131.679 74.5259 117.141 74.5259 101.983C74.5259 86.8243 68.5042 72.2866 57.7855 61.5679C47.0668 50.8493 32.5292 44.8276 17.3707 44.8276H0V2.96696e-09ZM81.2522 2.96696e-09H152.976C164.794 -0.000115407 176.368 3.36672 186.342 9.70629C196.316 16.0459 204.277 25.0957 209.294 35.7963C214.31 46.4969 216.174 58.4052 214.668 70.1269C213.161 81.8486 208.347 92.8985 200.787 101.983C208.347 111.067 213.161 122.117 214.668 133.839C216.174 145.56 214.31 157.469 209.294 168.169C204.277 178.87 196.316 187.92 186.342 194.259C176.368 200.599 164.794 203.966 152.976 203.966H81.2522C98.9011 192.91 113.379 177.464 123.27 159.138H152.974C155.255 159.138 157.514 158.689 159.622 157.816C161.729 156.943 163.644 155.663 165.257 154.05C166.87 152.437 168.15 150.522 169.023 148.415C169.896 146.307 170.345 144.048 170.345 141.767C170.345 139.486 169.896 137.227 169.023 135.12C168.15 133.012 166.87 131.097 165.257 129.484C163.644 127.871 161.729 126.592 159.622 125.719C157.514 124.846 155.255 124.397 152.974 124.397H135.603C138.411 109.586 138.411 94.3796 135.603 79.569H152.974C155.255 79.569 157.514 79.1197 159.622 78.2467C161.729 77.3737 163.644 76.0942 165.257 74.4812C166.87 72.8682 168.15 70.9533 169.023 68.8458C169.896 66.7382 170.345 64.4794 170.345 62.1983C170.345 59.9171 169.896 57.6583 169.023 55.5508C168.15 53.4433 166.87 51.5284 165.257 49.9153C163.644 48.3023 161.729 47.0228 159.622 46.1498C157.514 45.2769 155.255 44.8276 152.974 44.8276H123.27C113.379 26.5011 98.9011 11.0551 81.2522 2.96696e-09V2.96696e-09Z" fill="#FF07AA"/>
</svg>
