<svg width="76" height="72" viewBox="0 0 76 72" fill="none" xmlns="http://www.w3.org/2000/svg">
<path fill-rule="evenodd" clip-rule="evenodd" d="M20.8313 64.6496C37.6554 66.9195 54.1806 69.1489 71.0341 71.4219C65.2921 61.9753 59.6978 52.7701 54.0587 43.4899L20.8313 64.6496ZM75.7825 12.3601C74.2996 14.561 72.8136 16.7601 71.3324 18.9623C66.2459 26.5246 61.1599 34.0869 56.0783 41.6528C55.7953 42.0741 55.4284 42.4082 55.8271 43.0578C60.7373 51.0704 65.6088 59.1066 70.4926 67.1356C71.2632 68.4038 72.0424 69.6671 73.039 70.8838C74.0264 51.3967 75.0132 31.9089 76 12.4218L75.7825 12.3601ZM8.75262 37.3435C8.98232 37.5584 9.55567 37.6837 9.82273 37.5536C14.5326 35.266 19.2724 33.0294 23.8794 30.5536C25.3819 29.7467 26.5372 28.3 27.8315 27.1269C32.1174 23.2425 36.3967 19.3503 40.6741 15.4575C40.9356 15.2184 41.2456 14.9872 41.4018 14.6857C42.938 11.7184 44.4479 8.736 46.0111 5.66763C44.1472 4.97514 42.38 4.29778 40.5907 3.68157C40.3482 3.59803 39.966 3.76389 39.7032 3.90856C35.5618 6.19486 31.3426 8.35949 27.3329 10.8528C25.3268 12.1004 23.6925 13.9387 21.9162 15.5398C19.0531 18.1221 16.1938 20.7105 13.3724 23.3376C12.6239 24.0349 11.9415 24.8315 11.3584 25.6705C9.42887 28.4471 7.55694 31.2637 5.59925 34.1601C6.69325 35.2782 7.68802 36.3472 8.75262 37.3435ZM25.9663 33.5475C23.6233 43.3289 21.2944 53.0552 18.8878 63.1012C30.1726 55.9154 41.1972 48.8955 52.1488 41.9228C43.4336 39.1353 34.7465 36.3562 25.9663 33.5475ZM72.906 12.4545C63.3712 14.0289 54.0642 15.5652 44.6372 17.1215C47.8482 24.84 50.9948 32.4035 54.2308 40.1819C60.4916 30.8847 66.6287 21.774 72.906 12.4545ZM26.3595 31.547C34.9456 34.3012 43.3607 37.0009 52.0202 39.7793C48.8043 32.0373 45.6987 24.5658 42.5288 16.9363C37.1293 21.8146 31.8106 26.6208 26.3595 31.547ZM9.10728 43.0475C6.06233 50.2405 3.1209 57.189 0.126184 64.2628C5.88163 64.0945 11.4607 63.9317 17.2314 63.7634C14.5222 56.8554 11.8662 50.0831 9.10728 43.0475ZM17.4336 58.8439L17.6455 58.7979C19.6994 50.3591 21.7826 41.9785 23.8794 33.2098C19.202 35.6123 14.7402 37.9034 10.1566 40.2581C12.4959 46.2666 14.9901 52.6049 17.4336 58.8439ZM69.455 11.0859C66.7237 10.371 63.9923 9.65367 61.2598 8.94363C57.3321 7.92306 53.4015 6.9152 49.4763 5.88554C48.9856 5.75661 48.631 5.67247 48.3425 6.25661C46.9551 9.0653 45.5248 11.8528 44.1153 14.6512C44.0718 14.7378 44.081 14.8498 44.0473 15.0671C52.5531 13.7935 61.0019 12.5277 69.4495 11.2626L69.455 11.0859ZM53.6091 4.6973L75.8708 10.7832C74.5942 7.1882 73.4102 3.85469 72.1924 0.426147L53.6416 4.49088L53.6091 4.6973ZM19.3208 66.27C16.5638 65.9559 13.7332 66.2446 10.9369 66.2924C8.63991 66.3306 6.34288 66.4171 4.04584 66.4879C3.8094 66.4952 3.57357 66.5424 3.33774 66.7942C22.3284 68.5291 41.3185 70.2639 60.3085 72L60.3471 71.7494C54.2596 70.928 48.1716 70.1066 42.0841 69.2857C34.4984 68.2621 26.9255 67.1362 19.3208 66.27ZM0.501672 57.7877C2.94878 52.1763 5.38547 46.5613 7.84238 40.9543C8.08801 40.3919 8.06902 40.01 7.58818 39.5572C6.56033 38.5905 5.60538 37.5487 4.48197 36.3938C2.96348 43.8029 1.48235 51.0286 0 58.2537L0.165999 58.3306C0.279319 58.1508 0.417754 57.9808 0.501672 57.7877ZM48.7333 3.21607C52.86 2.16403 57.0467 1.34139 61.2089 0.423725C61.4785 0.363799 61.7418 0.276027 62.0071 0.200967L61.966 0C56.1034 0.779049 50.2414 1.5587 44.0835 2.3777C45.7624 3.10227 47.0561 3.64343 48.7333 3.21607Z" fill="#FF07AA"/>
</svg>
