<svg width="200" height="200" viewBox="0 0 200 200" fill="none" xmlns="http://www.w3.org/2000/svg">
<rect x="1.5" y="1.5" width="197" height="197" rx="6.5" fill="#EAEAEA"/>
<circle cx="100" cy="100" r="70" fill="#FF07AA"/>
<path d="M125.551 107.602L104.425 62.346L100.762 55L97.2782 62.346L66 129H74.0887L77.9835 120.22L81.9381 111.502L92.3219 87.6371L100.762 69.8L119.354 111.502L121.298 115.749L127.383 129H135.524L125.551 107.602Z" fill="white"/>
<path d="M125.551 107.602L104.425 62.346L100.762 55L97.2782 62.346L66 129H74.0887L77.9835 120.22L81.9381 111.502L92.3219 87.6371L100.762 69.8L119.354 111.502L121.298 115.749L127.383 129H135.524L125.551 107.602Z" stroke="white"/>
<rect x="1.5" y="1.5" width="197" height="197" rx="6.5" stroke="#808B98" stroke-width="3"/>
</svg>
