<svg width="1402" height="402" viewBox="0 0 1402 402" fill="none" xmlns="http://www.w3.org/2000/svg">
<path d="M9 2.5H1393C1396.59 2.5 1399.5 5.41014 1399.5 9V393C1399.5 396.59 1396.59 399.5 1393 399.5H9C5.41015 399.5 2.5 396.59 2.5 393V9C2.5 5.41015 5.41015 2.5 9 2.5Z" fill="#EAEAEA" stroke="#808B98" stroke-width="3"/>
<path d="M699.5 305C755.557 305 801 259.557 801 203.5C801 147.443 755.557 102 699.5 102C643.443 102 598 147.443 598 203.5C598 259.557 643.443 305 699.5 305Z" fill="#FF07AA"/>
<path d="M735.656 217.348L705.269 152.523L700 142L694.989 152.523L650 248H661.634L667.237 235.424L672.925 222.935L687.86 188.75L700 163.2L726.742 222.935L729.538 229.019L738.29 248H750L735.656 217.348Z" fill="white"/>
<path d="M735.656 217.348L705.269 152.523L700 142L694.989 152.523L650 248H661.634L667.237 235.424L672.925 222.935L687.86 188.75L700 163.2L726.742 222.935L729.538 229.019L738.29 248H750L735.656 217.348Z" stroke="white"/>
<path d="M1393 1H9C4.58172 1 1 4.58172 1 9V393C1 397.418 4.58172 401 9 401H1393C1397.42 401 1401 397.418 1401 393V9C1401 4.58172 1397.42 1 1393 1Z" stroke="#808B98"/>
</svg>
