<svg width="981" height="297" viewBox="0 0 981 297" fill="none" xmlns="http://www.w3.org/2000/svg">
<rect x="0.5" y="1.5" width="980" height="283" fill="url(#paint0_linear)" stroke="black"/>
<path d="M684.724 1.95654L744.995 24.9131V262.13H684.724V1.95654Z" fill="url(#paint1_linear)"/>
<path d="M684.724 1.95654L654.588 24.9131L577.993 241.565L624.452 262.13H684.724V1.95654Z" fill="url(#paint2_linear)"/>
<path d="M723.649 126.007L756.296 104.634L788.943 83.2609V264.043H723.649V126.007Z" fill="url(#paint3_linear)"/>
<g opacity="0.41">
<path d="M510.187 1H626.963L689.746 264.043H663.052L510.187 1Z" fill="url(#paint4_linear)"/>
<path d="M510.187 1H626.963L689.746 264.043H663.052L510.187 1Z" stroke="black"/>
</g>
<path opacity="0.41" d="M980.269 44.5L980.269 13.4348H913.254L850.471 262.13H877.165L980.269 81L980.269 44.5Z" fill="url(#paint5_linear)"/>
<rect x="957.01" y="64" width="23.9905" height="187" fill="black"/>
<rect x="801.5" y="106.217" width="61.5273" height="150.174" fill="black"/>
<rect x="751.273" y="199.957" width="61.5273" height="64.087" fill="black"/>
<rect x="885.629" y="195.174" width="18.8349" height="69.8261" fill="black"/>
<rect x="510.187" y="194" width="470.813" height="71" fill="url(#paint6_linear)"/>
<path d="M642.031 137.652L660.866 117.696V264.044H642.031V137.652Z" fill="url(#paint7_linear)"/>
<path d="M940.878 83.8696L955.946 62.2174V221H940.878V83.8696Z" fill="url(#paint8_linear)"/>
<path d="M662.122 117.696H694.769V262.13H662.122V117.696Z" fill="black"/>
<path d="M682.212 186.565H721.137V264.043H682.212V186.565Z" fill="black"/>
<path d="M721.138 152.13H736.206V264.043H721.138V152.13Z" fill="black"/>
<ellipse cx="793.338" cy="39.7391" rx="0.628079" ry="0.478261" transform="rotate(-180 793.338 39.7391)" fill="#9D4E8D"/>
<ellipse cx="807.15" cy="48.3479" rx="0.628079" ry="0.478261" transform="rotate(-180 807.15 48.3479)" fill="#9D4E8D"/>
<ellipse cx="782.037" cy="61.7391" rx="0.628079" ry="0.478261" transform="rotate(-180 782.037 61.7391)" fill="#9D4E8D"/>
<ellipse cx="769.48" cy="44.5217" rx="0.628079" ry="0.478261" transform="rotate(-180 769.48 44.5217)" fill="#9D4E8D"/>
<ellipse cx="775.758" cy="47.3913" rx="0.628079" ry="0.478261" transform="rotate(-180 775.758 47.3913)" fill="#9D4E8D"/>
<ellipse cx="566.063" cy="106.696" rx="0.628079" ry="0.478261" transform="rotate(-180 566.063 106.696)" fill="#9D4E8D"/>
<ellipse cx="579.876" cy="115.304" rx="0.628079" ry="0.478261" transform="rotate(-180 579.876 115.304)" fill="#9D4E8D"/>
<ellipse cx="554.762" cy="128.696" rx="0.628079" ry="0.478261" transform="rotate(-180 554.762 128.696)" fill="#9D4E8D"/>
<ellipse cx="542.206" cy="111.478" rx="0.628079" ry="0.478261" transform="rotate(-180 542.206 111.478)" fill="#9D4E8D"/>
<ellipse cx="548.484" cy="114.348" rx="0.628079" ry="0.478261" transform="rotate(-180 548.484 114.348)" fill="#9D4E8D"/>
<ellipse cx="793.338" cy="39.7391" rx="0.628079" ry="0.478261" transform="rotate(-180 793.338 39.7391)" fill="#9D4E8D"/>
<ellipse cx="807.15" cy="48.3479" rx="0.628079" ry="0.478261" transform="rotate(-180 807.15 48.3479)" fill="#9D4E8D"/>
<ellipse cx="782.037" cy="61.7391" rx="0.628079" ry="0.478261" transform="rotate(-180 782.037 61.7391)" fill="#9D4E8D"/>
<ellipse cx="769.48" cy="44.5217" rx="0.628079" ry="0.478261" transform="rotate(-180 769.48 44.5217)" fill="#9D4E8D"/>
<ellipse cx="775.758" cy="47.3913" rx="0.628079" ry="0.478261" transform="rotate(-180 775.758 47.3913)" fill="#9D4E8D"/>
<ellipse cx="566.063" cy="106.696" rx="0.628079" ry="0.478261" transform="rotate(-180 566.063 106.696)" fill="#9D4E8D"/>
<ellipse cx="579.876" cy="115.304" rx="0.628079" ry="0.478261" transform="rotate(-180 579.876 115.304)" fill="#9D4E8D"/>
<ellipse cx="554.762" cy="128.696" rx="0.628079" ry="0.478261" transform="rotate(-180 554.762 128.696)" fill="#9D4E8D"/>
<ellipse cx="542.206" cy="111.478" rx="0.628079" ry="0.478261" transform="rotate(-180 542.206 111.478)" fill="#9D4E8D"/>
<ellipse cx="548.484" cy="114.348" rx="0.628079" ry="0.478261" transform="rotate(-180 548.484 114.348)" fill="#9D4E8D"/>
<ellipse cx="578.62" cy="100.957" rx="0.628079" ry="0.478261" transform="rotate(-180 578.62 100.957)" fill="#9D4E8D"/>
<ellipse cx="592.432" cy="109.565" rx="0.628079" ry="0.478261" transform="rotate(-180 592.432 109.565)" fill="#9D4E8D"/>
<ellipse cx="567.319" cy="122.957" rx="0.628079" ry="0.478261" transform="rotate(-180 567.319 122.957)" fill="#9D4E8D"/>
<ellipse cx="554.763" cy="105.739" rx="0.628079" ry="0.478261" transform="rotate(-180 554.763 105.739)" fill="#9D4E8D"/>
<ellipse cx="581.132" cy="25.3913" rx="0.628079" ry="0.478261" transform="rotate(-180 581.132 25.3913)" fill="#9D4E8D"/>
<ellipse cx="540.95" cy="2.43476" rx="0.628079" ry="0.478261" transform="rotate(-180 540.95 2.43476)" fill="#9D4E8D"/>
<ellipse cx="554.763" cy="11.0435" rx="0.628079" ry="0.478261" transform="rotate(-180 554.763 11.0435)" fill="#9D4E8D"/>
<ellipse cx="529.649" cy="24.4348" rx="0.628079" ry="0.478261" transform="rotate(-180 529.649 24.4348)" fill="#9D4E8D"/>
<ellipse cx="517.094" cy="7.21742" rx="0.628079" ry="0.478261" transform="rotate(-180 517.094 7.21742)" fill="#9D4E8D"/>
<ellipse cx="523.371" cy="10.087" rx="0.628079" ry="0.478261" transform="rotate(-180 523.371 10.087)" fill="#9D4E8D"/>
<ellipse cx="852.354" cy="91.3913" rx="0.628079" ry="0.478261" transform="rotate(-180 852.354 91.3913)" fill="#9D4E8D"/>
<ellipse cx="866.166" cy="100" rx="0.628079" ry="0.478261" transform="rotate(-180 866.166 100)" fill="#9D4E8D"/>
<ellipse cx="828.496" cy="96.1739" rx="0.628079" ry="0.478261" transform="rotate(-180 828.496 96.1739)" fill="#9D4E8D"/>
<ellipse cx="834.774" cy="99.0435" rx="0.628079" ry="0.478261" transform="rotate(-180 834.774 99.0435)" fill="#9D4E8D"/>
<path d="M902.031 212.963L981 160V264H902.031V212.963Z" fill="black"/>
<rect x="372.242" y="77" width="205.928" height="0.956522" fill="url(#paint9_linear)"/>
<rect x="417" y="69" width="205.928" height="0.956522" fill="url(#paint10_linear)"/>
<rect opacity="0.5" x="464.205" y="78" width="205.928" height="0.956522" fill="url(#paint11_linear)" fill-opacity="0.2"/>
<rect width="981" height="58" transform="matrix(1 0 0 -1 0 297)" fill="black"/>
<path d="M256.5 65L477.769 239H35.2305L256.5 65Z" fill="black"/>
<path d="M256.5 65L477.769 239H35.2305L256.5 65Z" stroke="black"/>
<path d="M494.242 110L644.064 247.25H344.419L494.242 110Z" fill="black" fill-opacity="0.77"/>
<path d="M494.242 110L644.064 247.25H344.419L494.242 110Z" stroke="black"/>
<path d="M399.242 132L524.815 246.75H273.668L399.242 132Z" fill="black" fill-opacity="0.77"/>
<path d="M399.242 132L524.815 246.75H273.668L399.242 132Z" stroke="black"/>
<path d="M1 1H62L255 285H1V1Z" fill="black"/>
<path d="M19.2417 235L56.4978 115L78.5754 167.5L119.242 235H19.2417Z" fill="#A4056E" fill-opacity="0.645833"/>
<path d="M120.242 235H106.742L53.2417 126.5L57.2417 116L120.242 235Z" fill="#FF07AA"/>
<rect opacity="0.5" width="619" height="4" transform="matrix(1 0 0 -1 11.2417 217)" fill="url(#paint12_linear)"/>
<rect opacity="0.5" width="759" height="4" transform="matrix(1 0 0 -1 62.2417 205)" fill="url(#paint13_linear)"/>
<rect opacity="0.5" width="759" height="29.9999" transform="matrix(-1 8.74228e-08 8.74228e-08 1 819.242 197)" fill="url(#paint14_linear)"/>
<rect x="111.582" y="44" width="6.57446" height="6.57446" transform="rotate(30.533 111.582 44)" fill="#FF07AA"/>
<rect x="35.5815" y="129" width="6.57446" height="6.57446" transform="rotate(30.533 35.5815 129)" fill="#FF07AA"/>
<rect x="149.582" y="19" width="6.57446" height="6.57446" transform="rotate(30.533 149.582 19)" fill="#FF07AA"/>
<rect x="324.582" y="132" width="6.57446" height="6.57446" transform="rotate(30.533 324.582 132)" fill="#FF07AA"/>
<rect x="341.582" y="126" width="6.57446" height="6.57446" transform="rotate(30.533 341.582 126)" fill="#FF07AA"/>
<rect x="557.021" y="109" width="6.48833" height="6.48833" transform="rotate(6.89836 557.021 109)" fill="#FF07AA"/>
<rect x="648.021" y="140" width="6.48833" height="6.48833" transform="rotate(6.89836 648.021 140)" fill="#FF07AA"/>
<rect x="641.021" y="146" width="6.48833" height="6.48833" transform="rotate(6.89836 641.021 146)" fill="#B60178"/>
<rect x="714.582" y="144" width="6.57446" height="6.57446" transform="rotate(30.533 714.582 144)" fill="#FF07AA"/>
<rect x="637.582" y="100" width="6.57446" height="6.57446" transform="rotate(30.533 637.582 100)" fill="#FF07AA"/>
<rect x="748.582" y="173" width="6.57446" height="6.57446" transform="rotate(30.533 748.582 173)" fill="#FF07AA"/>
<rect x="724.582" y="236" width="6.57446" height="6.57446" transform="rotate(30.533 724.582 236)" fill="#FF07AA"/>
<rect x="785.582" y="157" width="6.57446" height="6.57446" transform="rotate(30.533 785.582 157)" fill="#FF07AA"/>
<rect x="156.021" y="179" width="6.48833" height="6.48833" transform="rotate(6.89836 156.021 179)" fill="#FF07AA"/>
<rect x="186.021" y="167" width="6.48833" height="6.48833" transform="rotate(6.89836 186.021 167)" fill="#760B51"/>
<rect x="218.021" y="138" width="6.48833" height="6.48833" transform="rotate(6.89836 218.021 138)" fill="#760B51"/>
<rect x="235.021" y="152" width="6.48833" height="6.48833" transform="rotate(6.89836 235.021 152)" fill="#760B51"/>
<rect x="250.021" y="138" width="6.48833" height="6.48833" transform="rotate(6.89836 250.021 138)" fill="#FF07AA"/>
<rect x="131.021" y="215" width="6.48833" height="6.48833" transform="rotate(6.89836 131.021 215)" fill="#FF07AA"/>
<rect x="217.582" y="54" width="6.57446" height="6.57446" transform="rotate(30.533 217.582 54)" fill="#FF07AA"/>
<rect x="201.582" y="57" width="6.57446" height="6.57446" transform="rotate(30.533 201.582 57)" fill="#FF07AA"/>
<rect x="108.242" y="77.4395" width="12.3082" height="12.3082" transform="rotate(-21.1431 108.242 77.4395)" fill="#FF07AA"/>
<rect x="145.242" y="81.4395" width="12.3082" height="12.3082" transform="rotate(-21.1431 145.242 81.4395)" fill="#731352"/>
<rect x="294.242" y="93.4395" width="12.3082" height="12.3082" transform="rotate(-21.1431 294.242 93.4395)" fill="#FF07AA"/>
<rect x="84.2417" y="143" width="12.3082" height="12.3082" fill="#FF07AA"/>
<rect x="168.242" y="223.439" width="12.3082" height="12.3082" transform="rotate(-21.1431 168.242 223.439)" fill="#FF07AA"/>
<rect x="59.8472" y="171" width="12.3082" height="12.3082" transform="rotate(12.2226 59.8472 171)" fill="#FF07AA"/>
<rect x="112.242" y="123.439" width="12.3082" height="12.3082" transform="rotate(-21.1431 112.242 123.439)" fill="#FF07AA"/>
<rect x="588.582" y="258" width="6.57446" height="6.57446" transform="rotate(30.533 588.582 258)" fill="#FF07AA"/>
<circle cx="444.802" cy="109.553" r="0.552826" transform="rotate(-180 444.802 109.553)" fill="#9D4E8D"/>
<circle cx="456.964" cy="119.504" r="0.552826" transform="rotate(-180 456.964 119.504)" fill="#9D4E8D"/>
<circle cx="434.851" cy="134.983" r="0.552826" transform="rotate(-180 434.851 134.983)" fill="#9D4E8D"/>
<circle cx="423.794" cy="115.081" r="0.552826" transform="rotate(-180 423.794 115.081)" fill="#9D4E8D"/>
<circle cx="429.323" cy="118.398" r="0.552826" transform="rotate(-180 429.323 118.398)" fill="#9D4E8D"/>
<circle cx="504.457" cy="85.0623" r="0.552826" transform="rotate(-119.358 504.457 85.0623)" fill="#9D4E8D"/>
<circle cx="501.747" cy="100.541" r="0.552826" transform="rotate(-119.358 501.747 100.541)" fill="#9D4E8D"/>
<circle cx="477.415" cy="88.8569" r="0.552826" transform="rotate(-119.358 477.415 88.8569)" fill="#9D4E8D"/>
<circle cx="489.34" cy="69.4632" r="0.552826" transform="rotate(-119.358 489.34 69.4632)" fill="#9D4E8D"/>
<circle cx="489.16" cy="75.9077" r="0.552826" transform="rotate(-119.358 489.16 75.9077)" fill="#9D4E8D"/>
<circle cx="388.351" cy="83.3217" r="0.552826" transform="rotate(-61.9621 388.351 83.3217)" fill="#9D4E8D"/>
<circle cx="373.851" cy="89.379" r="0.552826" transform="rotate(-61.9621 373.851 89.379)" fill="#9D4E8D"/>
<circle cx="370.583" cy="62.5852" r="0.552826" transform="rotate(-61.9621 370.583 62.5852)" fill="#9D4E8D"/>
<circle cx="393.346" cy="62.1812" r="0.552826" transform="rotate(-61.9621 393.346 62.1812)" fill="#9D4E8D"/>
<circle cx="387.82" cy="65.5015" r="0.552826" transform="rotate(-61.9621 387.82 65.5015)" fill="#9D4E8D"/>
<circle cx="458.964" cy="114.504" r="0.552826" transform="rotate(-180 458.964 114.504)" fill="#9D4E8D"/>
<circle cx="436.851" cy="129.983" r="0.552826" transform="rotate(-180 436.851 129.983)" fill="#9D4E8D"/>
<circle cx="425.794" cy="110.081" r="0.552826" transform="rotate(-180 425.794 110.081)" fill="#9D4E8D"/>
<circle cx="371.802" cy="88.5528" r="0.552826" transform="rotate(-180 371.802 88.5528)" fill="#9D4E8D"/>
<circle cx="383.964" cy="98.5037" r="0.552826" transform="rotate(-180 383.964 98.5037)" fill="#9D4E8D"/>
<circle cx="361.851" cy="113.983" r="0.552826" transform="rotate(-180 361.851 113.983)" fill="#9D4E8D"/>
<circle cx="350.794" cy="94.0811" r="0.552826" transform="rotate(-180 350.794 94.0811)" fill="#9D4E8D"/>
<circle cx="356.323" cy="97.398" r="0.552826" transform="rotate(-180 356.323 97.398)" fill="#9D4E8D"/>
<circle cx="421.802" cy="43.5528" r="0.552826" transform="rotate(-180 421.802 43.5528)" fill="#9D4E8D"/>
<circle cx="433.964" cy="53.5037" r="0.552826" transform="rotate(-180 433.964 53.5037)" fill="#9D4E8D"/>
<circle cx="411.851" cy="68.9828" r="0.552826" transform="rotate(-180 411.851 68.9828)" fill="#9D4E8D"/>
<circle cx="400.794" cy="49.0811" r="0.552826" transform="rotate(-180 400.794 49.0811)" fill="#9D4E8D"/>
<circle cx="406.323" cy="52.398" r="0.552826" transform="rotate(-180 406.323 52.398)" fill="#9D4E8D"/>
<circle cx="180.391" cy="108.648" r="0.552826" transform="rotate(-88.1166 180.391 108.648)" fill="#9D4E8D"/>
<circle cx="170.046" cy="120.477" r="0.552826" transform="rotate(-88.1166 170.046 120.477)" fill="#9D4E8D"/>
<circle cx="155.302" cy="97.867" r="0.552826" transform="rotate(-88.1166 155.302 97.867)" fill="#9D4E8D"/>
<circle cx="175.557" cy="87.4705" r="0.552826" transform="rotate(-88.1166 175.557 87.4705)" fill="#9D4E8D"/>
<circle cx="172.059" cy="92.8868" r="0.552826" transform="rotate(-88.1166 172.059 92.8868)" fill="#9D4E8D"/>
<circle cx="192.887" cy="58.2067" r="0.552826" transform="rotate(153.846 192.887 58.2067)" fill="#9D4E8D"/>
<circle cx="208.189" cy="61.7777" r="0.552826" transform="rotate(153.846 208.189 61.7777)" fill="#9D4E8D"/>
<circle cx="195.164" cy="85.4192" r="0.552826" transform="rotate(153.846 195.164 85.4192)" fill="#9D4E8D"/>
<circle cx="176.467" cy="72.4288" r="0.552826" transform="rotate(153.846 176.467 72.4288)" fill="#9D4E8D"/>
<circle cx="182.891" cy="72.9693" r="0.552826" transform="rotate(153.846 182.891 72.9693)" fill="#9D4E8D"/>
<circle cx="231.55" cy="44.6781" r="0.552826" transform="rotate(-2.45231 231.55 44.6781)" fill="#9D4E8D"/>
<circle cx="218.973" cy="35.2568" r="0.552826" transform="rotate(-2.45231 218.973 35.2568)" fill="#9D4E8D"/>
<circle cx="240.404" cy="18.8457" r="0.552826" transform="rotate(-2.45231 240.404 18.8457)" fill="#9D4E8D"/>
<circle cx="252.302" cy="38.2561" r="0.552826" transform="rotate(-2.45231 252.302 38.2561)" fill="#9D4E8D"/>
<circle cx="246.637" cy="35.1787" r="0.552826" transform="rotate(-2.45231 246.637 35.1787)" fill="#9D4E8D"/>
<circle cx="282.792" cy="53.3245" r="0.552826" transform="rotate(-120.49 282.792 53.3245)" fill="#9D4E8D"/>
<circle cx="280.388" cy="68.8538" r="0.552826" transform="rotate(-120.49 280.388 68.8538)" fill="#9D4E8D"/>
<circle cx="255.83" cy="57.6527" r="0.552826" transform="rotate(-120.49 255.83 57.6527)" fill="#9D4E8D"/>
<circle cx="267.369" cy="38.0271" r="0.552826" transform="rotate(-120.49 267.369 38.0271)" fill="#9D4E8D"/>
<circle cx="267.316" cy="44.4739" r="0.552826" transform="rotate(-120.49 267.316 44.4739)" fill="#9D4E8D"/>
<circle cx="118.831" cy="27.1068" r="0.552826" transform="rotate(49.5173 118.831 27.1068)" fill="#9D4E8D"/>
<circle cx="118.504" cy="11.396" r="0.552826" transform="rotate(49.5173 118.504 11.396)" fill="#9D4E8D"/>
<circle cx="144.633" cy="18.1659" r="0.552826" transform="rotate(49.5173 144.633 18.1659)" fill="#9D4E8D"/>
<circle cx="136.674" cy="39.496" r="0.552826" transform="rotate(49.5173 136.674 39.496)" fill="#9D4E8D"/>
<circle cx="135.608" cy="33.1378" r="0.552826" transform="rotate(49.5173 135.608 33.1378)" fill="#9D4E8D"/>
<circle cx="143.589" cy="72.7962" r="0.552826" transform="rotate(-68.5206 143.589 72.7962)" fill="#9D4E8D"/>
<circle cx="129.877" cy="80.47" r="0.552826" transform="rotate(-68.5206 129.877 80.47)" fill="#9D4E8D"/>
<circle cx="123.569" cy="54.2248" r="0.552826" transform="rotate(-68.5206 123.569 54.2248)" fill="#9D4E8D"/>
<circle cx="146.137" cy="51.2235" r="0.552826" transform="rotate(-68.5206 146.137 51.2235)" fill="#9D4E8D"/>
<circle cx="141.026" cy="55.1533" r="0.552826" transform="rotate(-68.5206 141.026 55.1533)" fill="#9D4E8D"/>
<circle cx="158.831" cy="28.1068" r="0.552826" transform="rotate(49.5173 158.831 28.1068)" fill="#9D4E8D"/>
<circle cx="158.504" cy="12.396" r="0.552826" transform="rotate(49.5173 158.504 12.396)" fill="#9D4E8D"/>
<circle cx="184.633" cy="19.1659" r="0.552826" transform="rotate(49.5173 184.633 19.1659)" fill="#9D4E8D"/>
<circle cx="176.674" cy="40.496" r="0.552826" transform="rotate(49.5173 176.674 40.496)" fill="#9D4E8D"/>
<circle cx="175.608" cy="34.1378" r="0.552826" transform="rotate(49.5173 175.608 34.1378)" fill="#9D4E8D"/>
<circle cx="183.589" cy="73.7962" r="0.552826" transform="rotate(-68.5206 183.589 73.7962)" fill="#9D4E8D"/>
<circle cx="169.877" cy="81.47" r="0.552826" transform="rotate(-68.5206 169.877 81.47)" fill="#9D4E8D"/>
<circle cx="163.569" cy="55.2248" r="0.552826" transform="rotate(-68.5206 163.569 55.2248)" fill="#9D4E8D"/>
<circle cx="186.137" cy="52.2235" r="0.552826" transform="rotate(-68.5206 186.137 52.2235)" fill="#9D4E8D"/>
<circle cx="181.026" cy="56.1533" r="0.552826" transform="rotate(-68.5206 181.026 56.1533)" fill="#9D4E8D"/>
<circle cx="906.805" cy="29.3711" r="0.552826" transform="rotate(-2.45231 906.805 29.3711)" fill="#9D4E8D"/>
<circle cx="894.228" cy="19.9498" r="0.552826" transform="rotate(-2.45231 894.228 19.9498)" fill="#9D4E8D"/>
<circle cx="915.659" cy="3.53867" r="0.552826" transform="rotate(-2.45231 915.659 3.53867)" fill="#9D4E8D"/>
<circle cx="927.556" cy="22.9491" r="0.552826" transform="rotate(-2.45231 927.556 22.9491)" fill="#9D4E8D"/>
<circle cx="921.891" cy="19.8717" r="0.552826" transform="rotate(-2.45231 921.891 19.8717)" fill="#9D4E8D"/>
<circle cx="958.047" cy="38.0176" r="0.552826" transform="rotate(-120.49 958.047 38.0176)" fill="#9D4E8D"/>
<circle cx="955.643" cy="53.5469" r="0.552826" transform="rotate(-120.49 955.643 53.5469)" fill="#9D4E8D"/>
<circle cx="931.085" cy="42.3457" r="0.552826" transform="rotate(-120.49 931.085 42.3457)" fill="#9D4E8D"/>
<circle cx="942.624" cy="22.7202" r="0.552826" transform="rotate(-120.49 942.624 22.7202)" fill="#9D4E8D"/>
<circle cx="942.571" cy="29.167" r="0.552826" transform="rotate(-120.49 942.571 29.167)" fill="#9D4E8D"/>
<circle cx="880.805" cy="75.3711" r="0.552826" transform="rotate(-2.45231 880.805 75.3711)" fill="#9D4E8D"/>
<circle cx="868.228" cy="65.9498" r="0.552826" transform="rotate(-2.45231 868.228 65.9498)" fill="#9D4E8D"/>
<circle cx="889.659" cy="49.5387" r="0.552826" transform="rotate(-2.45231 889.659 49.5387)" fill="#9D4E8D"/>
<circle cx="901.556" cy="68.9491" r="0.552826" transform="rotate(-2.45231 901.556 68.9491)" fill="#9D4E8D"/>
<circle cx="895.891" cy="65.8717" r="0.552826" transform="rotate(-2.45231 895.891 65.8717)" fill="#9D4E8D"/>
<circle cx="932.047" cy="84.0176" r="0.552826" transform="rotate(-120.49 932.047 84.0176)" fill="#9D4E8D"/>
<circle cx="929.643" cy="99.5469" r="0.552826" transform="rotate(-120.49 929.643 99.5469)" fill="#9D4E8D"/>
<circle cx="905.085" cy="88.3457" r="0.552826" transform="rotate(-120.49 905.085 88.3457)" fill="#9D4E8D"/>
<circle cx="916.624" cy="68.7202" r="0.552826" transform="rotate(-120.49 916.624 68.7202)" fill="#9D4E8D"/>
<circle cx="342.802" cy="20.5528" r="0.552826" transform="rotate(-180 342.802 20.5528)" fill="#9D4E8D"/>
<circle cx="354.964" cy="30.5037" r="0.552826" transform="rotate(-180 354.964 30.5037)" fill="#9D4E8D"/>
<circle cx="332.851" cy="45.9828" r="0.552826" transform="rotate(-180 332.851 45.9828)" fill="#9D4E8D"/>
<circle cx="321.794" cy="26.0811" r="0.552826" transform="rotate(-180 321.794 26.0811)" fill="#9D4E8D"/>
<circle cx="393.964" cy="94.5038" r="0.552826" transform="rotate(-180 393.964 94.5038)" fill="#9D4E8D"/>
<circle cx="371.851" cy="109.983" r="0.552826" transform="rotate(-180 371.851 109.983)" fill="#9D4E8D"/>
<circle cx="360.794" cy="90.0811" r="0.552826" transform="rotate(-180 360.794 90.0811)" fill="#9D4E8D"/>
<g opacity="0.73">
<path d="M775.435 227.031V202.077L792.591 194.278H822.225L837.302 205.196L843.541 220.793L834.183 232.23L819.626 227.031H775.435Z" fill="white"/>
<circle cx="763.826" cy="219.416" r="18.084" fill="white" stroke="white" stroke-width="3"/>
<circle cx="763.826" cy="219.416" r="12.0617" fill="black"/>
<path d="M773.06 195.831L768.242 194.138L775.242 198.5L776.395 199.478L788.872 207.032C788.708 211.373 788.477 220.629 788.872 222.921C789.268 225.213 791.014 224.31 791.837 223.572L796.902 216.279H817.039L832.975 205.599V209.376L841.376 204.818L849.035 202.604L855.212 205.599L860.895 207.032L863.242 205.599L860.895 203.385C859.412 202.43 853.235 197.655 845.452 194.138C837.847 190.702 828.281 188.451 823.216 187.757C820.772 187.413 816.413 187.033 811.233 187.002C805.937 186.97 799.782 187.302 793.937 188.408C782.374 190.596 775.201 194.268 773.06 195.831Z" fill="#9181A9"/>
<circle cx="846.312" cy="219.416" r="18.084" fill="white" stroke="white" stroke-width="3"/>
<circle cx="846.312" cy="219.416" r="12.0617" fill="black"/>
<circle cx="846.312" cy="219.416" r="3.50177" fill="white"/>
<circle cx="763.742" cy="219.5" r="2.5" fill="white" stroke="white" stroke-width="4"/>
<path d="M816.636 201.557L811.308 193.012C821.601 191.604 834.313 195.609 839.382 197.787L834.053 201.557H816.636Z" fill="black"/>
<ellipse cx="801.169" cy="221.313" rx="6.49862" ry="1.55967" fill="black"/>
<circle cx="792.591" cy="224.432" r="2.07956" fill="black"/>
</g>
<defs>
<linearGradient id="paint0_linear" x1="490.5" y1="1" x2="490.5" y2="285" gradientUnits="userSpaceOnUse">
<stop stop-color="#100024"/>
<stop offset="0.40625" stop-color="#270170"/>
<stop offset="0.901042" stop-color="#9B158F"/>
</linearGradient>
<linearGradient id="paint1_linear" x1="714.86" y1="6.73915" x2="714.86" y2="243.957" gradientUnits="userSpaceOnUse">
<stop/>
<stop offset="1" stop-opacity="0"/>
</linearGradient>
<linearGradient id="paint2_linear" x1="714.86" y1="6.73915" x2="714.86" y2="243.957" gradientUnits="userSpaceOnUse">
<stop/>
<stop offset="1" stop-opacity="0"/>
</linearGradient>
<linearGradient id="paint3_linear" x1="756.296" y1="47.9862" x2="756.296" y2="264.043" gradientUnits="userSpaceOnUse">
<stop/>
<stop offset="1" stop-color="#27016F"/>
</linearGradient>
<linearGradient id="paint4_linear" x1="555.694" y1="0.718835" x2="555.694" y2="259.936" gradientUnits="userSpaceOnUse">
<stop stop-color="#FFF4BD" stop-opacity="0"/>
<stop offset="1" stop-color="#FFEE97"/>
</linearGradient>
<linearGradient id="paint5_linear" x1="984.523" y1="13.1689" x2="984.523" y2="258.247" gradientUnits="userSpaceOnUse">
<stop stop-color="#FFF4BD" stop-opacity="0"/>
<stop offset="1" stop-color="#FFEE97"/>
</linearGradient>
<linearGradient id="paint6_linear" x1="745.594" y1="194" x2="745.594" y2="265" gradientUnits="userSpaceOnUse">
<stop stop-color="#7B29FF" stop-opacity="0"/>
<stop offset="0.979167" stop-color="#C41FB3"/>
</linearGradient>
<linearGradient id="paint7_linear" x1="651.449" y1="117.696" x2="651.449" y2="264.044" gradientUnits="userSpaceOnUse">
<stop stop-color="#7B48DC"/>
<stop offset="1" stop-color="#7B48DC" stop-opacity="0"/>
</linearGradient>
<linearGradient id="paint8_linear" x1="948.412" y1="62.2174" x2="948.412" y2="221" gradientUnits="userSpaceOnUse">
<stop stop-color="#7B48DC"/>
<stop offset="1" stop-color="#7B48DC" stop-opacity="0"/>
</linearGradient>
<linearGradient id="paint9_linear" x1="475.206" y1="77" x2="642.208" y2="77" gradientUnits="userSpaceOnUse">
<stop stop-color="#7746D5"/>
<stop offset="0.46875" stop-color="#53307C" stop-opacity="0.72"/>
<stop offset="1" stop-opacity="0"/>
</linearGradient>
<linearGradient id="paint10_linear" x1="519.964" y1="69" x2="686.967" y2="69" gradientUnits="userSpaceOnUse">
<stop stop-color="#7746D5"/>
<stop offset="0.46875" stop-color="#53307C" stop-opacity="0.72"/>
<stop offset="1" stop-opacity="0"/>
</linearGradient>
<linearGradient id="paint11_linear" x1="567.169" y1="78" x2="734.172" y2="78" gradientUnits="userSpaceOnUse">
<stop stop-color="#FE07AA"/>
<stop offset="0.0833333" stop-color="#A4056E" stop-opacity="0.645833"/>
<stop offset="1" stop-opacity="0"/>
</linearGradient>
<linearGradient id="paint12_linear" x1="309.5" y1="0" x2="811.494" y2="0" gradientUnits="userSpaceOnUse">
<stop stop-color="#FE07AA"/>
<stop offset="0.0833333" stop-color="#A4056E" stop-opacity="0.645833"/>
<stop offset="1" stop-opacity="0"/>
</linearGradient>
<linearGradient id="paint13_linear" x1="379.5" y1="0" x2="995.03" y2="0" gradientUnits="userSpaceOnUse">
<stop stop-color="#FE07AA"/>
<stop offset="0.0833333" stop-color="#A4056E" stop-opacity="0.645833"/>
<stop offset="1" stop-opacity="0"/>
</linearGradient>
<linearGradient id="paint14_linear" x1="379.5" y1="0" x2="995.03" y2="0" gradientUnits="userSpaceOnUse">
<stop stop-color="#FE07AA"/>
<stop offset="0.0833333" stop-color="#A4056E" stop-opacity="0.645833"/>
<stop offset="1" stop-opacity="0"/>
</linearGradient>
</defs>
</svg>
