<svg width="803" height="366" viewBox="0 0 803 366" fill="none" xmlns="http://www.w3.org/2000/svg">
<rect x="291" width="221" height="362" rx="8" fill="url(#paint0_linear)"/>
<path d="M362.462 71C361.982 71 361.635 70.872 361.422 70.616C361.219 70.36 361.091 70.04 361.038 69.656H360.958C360.776 70.168 360.478 70.552 360.062 70.808C359.646 71.064 359.15 71.192 358.574 71.192C357.699 71.192 357.016 70.968 356.526 70.52C356.046 70.072 355.806 69.464 355.806 68.696C355.806 67.9173 356.088 67.32 356.654 66.904C357.23 66.488 358.12 66.28 359.326 66.28H360.958V65.464C360.958 64.8773 360.798 64.4293 360.478 64.12C360.158 63.8107 359.667 63.656 359.006 63.656C358.504 63.656 358.083 63.768 357.742 63.992C357.411 64.216 357.134 64.5147 356.91 64.888L356.142 64.168C356.366 63.72 356.723 63.3413 357.214 63.032C357.704 62.712 358.323 62.552 359.07 62.552C360.072 62.552 360.851 62.7973 361.406 63.288C361.96 63.7787 362.238 64.4613 362.238 65.336V69.88H363.182V71H362.462ZM358.782 70.104C359.102 70.104 359.395 70.0667 359.662 69.992C359.928 69.9173 360.158 69.8107 360.35 69.672C360.542 69.5333 360.691 69.3733 360.798 69.192C360.904 69.0107 360.958 68.8133 360.958 68.6V67.24H359.262C358.526 67.24 357.987 67.3467 357.646 67.56C357.315 67.7733 357.15 68.0827 357.15 68.488V68.824C357.15 69.2293 357.294 69.544 357.582 69.768C357.88 69.992 358.28 70.104 358.782 70.104ZM365.008 62.744H366.288V64.088H366.352C366.566 63.5653 366.875 63.1813 367.28 62.936C367.696 62.68 368.192 62.552 368.768 62.552C369.28 62.552 369.744 62.6533 370.16 62.856C370.576 63.0587 370.928 63.3467 371.216 63.72C371.515 64.0933 371.739 64.5467 371.888 65.08C372.048 65.6133 372.128 66.2107 372.128 66.872C372.128 67.5333 372.048 68.1307 371.888 68.664C371.739 69.1973 371.515 69.6507 371.216 70.024C370.928 70.3973 370.576 70.6853 370.16 70.888C369.744 71.0907 369.28 71.192 368.768 71.192C367.648 71.192 366.843 70.68 366.352 69.656H366.288V74.2H365.008V62.744ZM368.416 70.04C369.142 70.04 369.712 69.816 370.128 69.368C370.544 68.9093 370.752 68.312 370.752 67.576V66.168C370.752 65.432 370.544 64.84 370.128 64.392C369.712 63.9333 369.142 63.704 368.416 63.704C368.128 63.704 367.851 63.7467 367.584 63.832C367.328 63.9067 367.104 64.0133 366.912 64.152C366.72 64.2907 366.566 64.4613 366.448 64.664C366.342 64.856 366.288 65.064 366.288 65.288V68.36C366.288 68.6267 366.342 68.8667 366.448 69.08C366.566 69.2827 366.72 69.4587 366.912 69.608C367.104 69.7467 367.328 69.8533 367.584 69.928C367.851 70.0027 368.128 70.04 368.416 70.04ZM374.29 62.744H375.57V64.088H375.634C375.847 63.5653 376.156 63.1813 376.562 62.936C376.978 62.68 377.474 62.552 378.05 62.552C378.562 62.552 379.026 62.6533 379.442 62.856C379.858 63.0587 380.21 63.3467 380.498 63.72C380.796 64.0933 381.02 64.5467 381.17 65.08C381.33 65.6133 381.41 66.2107 381.41 66.872C381.41 67.5333 381.33 68.1307 381.17 68.664C381.02 69.1973 380.796 69.6507 380.498 70.024C380.21 70.3973 379.858 70.6853 379.442 70.888C379.026 71.0907 378.562 71.192 378.05 71.192C376.93 71.192 376.124 70.68 375.634 69.656H375.57V74.2H374.29V62.744ZM377.698 70.04C378.423 70.04 378.994 69.816 379.41 69.368C379.826 68.9093 380.034 68.312 380.034 67.576V66.168C380.034 65.432 379.826 64.84 379.41 64.392C378.994 63.9333 378.423 63.704 377.698 63.704C377.41 63.704 377.132 63.7467 376.866 63.832C376.61 63.9067 376.386 64.0133 376.194 64.152C376.002 64.2907 375.847 64.4613 375.73 64.664C375.623 64.856 375.57 65.064 375.57 65.288V68.36C375.57 68.6267 375.623 68.8667 375.73 69.08C375.847 69.2827 376.002 69.4587 376.194 69.608C376.386 69.7467 376.61 69.8533 376.866 69.928C377.132 70.0027 377.41 70.04 377.698 70.04ZM383.571 71V62.744H384.851V64.088H384.915C385.011 63.8747 385.118 63.6773 385.235 63.496C385.363 63.304 385.512 63.1387 385.683 63C385.864 62.8613 386.072 62.7547 386.307 62.68C386.542 62.5947 386.819 62.552 387.139 62.552C387.683 62.552 388.184 62.6853 388.643 62.952C389.102 63.208 389.443 63.6347 389.667 64.232H389.699C389.848 63.784 390.126 63.3947 390.531 63.064C390.947 62.7227 391.507 62.552 392.211 62.552C393.054 62.552 393.71 62.8293 394.179 63.384C394.659 63.928 394.899 64.7013 394.899 65.704V71H393.619V65.928C393.619 65.192 393.475 64.6373 393.187 64.264C392.899 63.8907 392.44 63.704 391.811 63.704C391.555 63.704 391.31 63.736 391.075 63.8C390.851 63.864 390.648 63.96 390.467 64.088C390.286 64.216 390.142 64.3813 390.035 64.584C389.928 64.776 389.875 65.0053 389.875 65.272V71H388.595V65.928C388.595 65.192 388.451 64.6373 388.163 64.264C387.875 63.8907 387.427 63.704 386.819 63.704C386.563 63.704 386.318 63.736 386.083 63.8C385.848 63.864 385.64 63.96 385.459 64.088C385.278 64.216 385.128 64.3813 385.011 64.584C384.904 64.776 384.851 65.0053 384.851 65.272V71H383.571ZM403.54 71C403.06 71 402.713 70.872 402.5 70.616C402.297 70.36 402.169 70.04 402.116 69.656H402.036C401.854 70.168 401.556 70.552 401.14 70.808C400.724 71.064 400.228 71.192 399.652 71.192C398.777 71.192 398.094 70.968 397.604 70.52C397.124 70.072 396.884 69.464 396.884 68.696C396.884 67.9173 397.166 67.32 397.732 66.904C398.308 66.488 399.198 66.28 400.404 66.28H402.036V65.464C402.036 64.8773 401.876 64.4293 401.556 64.12C401.236 63.8107 400.745 63.656 400.084 63.656C399.582 63.656 399.161 63.768 398.82 63.992C398.489 64.216 398.212 64.5147 397.988 64.888L397.22 64.168C397.444 63.72 397.801 63.3413 398.292 63.032C398.782 62.712 399.401 62.552 400.148 62.552C401.15 62.552 401.929 62.7973 402.484 63.288C403.038 63.7787 403.316 64.4613 403.316 65.336V69.88H404.26V71H403.54ZM399.86 70.104C400.18 70.104 400.473 70.0667 400.74 69.992C401.006 69.9173 401.236 69.8107 401.428 69.672C401.62 69.5333 401.769 69.3733 401.876 69.192C401.982 69.0107 402.036 68.8133 402.036 68.6V67.24H400.34C399.604 67.24 399.065 67.3467 398.724 67.56C398.393 67.7733 398.228 68.0827 398.228 68.488V68.824C398.228 69.2293 398.372 69.544 398.66 69.768C398.958 69.992 399.358 70.104 399.86 70.104ZM406.087 62.744H407.367V64.088H407.431C407.644 63.5653 407.953 63.1813 408.359 62.936C408.775 62.68 409.271 62.552 409.847 62.552C410.359 62.552 410.823 62.6533 411.239 62.856C411.655 63.0587 412.007 63.3467 412.295 63.72C412.593 64.0933 412.817 64.5467 412.967 65.08C413.127 65.6133 413.207 66.2107 413.207 66.872C413.207 67.5333 413.127 68.1307 412.967 68.664C412.817 69.1973 412.593 69.6507 412.295 70.024C412.007 70.3973 411.655 70.6853 411.239 70.888C410.823 71.0907 410.359 71.192 409.847 71.192C408.727 71.192 407.921 70.68 407.431 69.656H407.367V74.2H406.087V62.744ZM409.495 70.04C410.22 70.04 410.791 69.816 411.207 69.368C411.623 68.9093 411.831 68.312 411.831 67.576V66.168C411.831 65.432 411.623 64.84 411.207 64.392C410.791 63.9333 410.22 63.704 409.495 63.704C409.207 63.704 408.929 63.7467 408.663 63.832C408.407 63.9067 408.183 64.0133 407.991 64.152C407.799 64.2907 407.644 64.4613 407.527 64.664C407.42 64.856 407.367 65.064 407.367 65.288V68.36C407.367 68.6267 407.42 68.8667 407.527 69.08C407.644 69.2827 407.799 69.4587 407.991 69.608C408.183 69.7467 408.407 69.8533 408.663 69.928C408.929 70.0027 409.207 70.04 409.495 70.04ZM415.871 71.192C415.53 71.192 415.279 71.1067 415.119 70.936C414.97 70.7653 414.895 70.5413 414.895 70.264V70.056C414.895 69.7787 414.97 69.5547 415.119 69.384C415.279 69.2133 415.53 69.128 415.871 69.128C416.213 69.128 416.458 69.2133 416.607 69.384C416.767 69.5547 416.847 69.7787 416.847 70.056V70.264C416.847 70.5413 416.767 70.7653 416.607 70.936C416.458 71.1067 416.213 71.192 415.871 71.192ZM419.415 62.744H420.695V72.28C420.695 72.856 420.551 73.32 420.263 73.672C419.975 74.024 419.521 74.2 418.903 74.2H418.071V73.08H419.415V62.744ZM420.055 60.808C419.777 60.808 419.575 60.744 419.447 60.616C419.329 60.4773 419.271 60.3013 419.271 60.088V59.88C419.271 59.6667 419.329 59.496 419.447 59.368C419.575 59.2293 419.777 59.16 420.055 59.16C420.332 59.16 420.529 59.2293 420.647 59.368C420.775 59.496 420.839 59.6667 420.839 59.88V60.088C420.839 60.3013 420.775 60.4773 420.647 60.616C420.529 60.744 420.332 60.808 420.055 60.808ZM425.895 71.192C425.127 71.192 424.481 71.048 423.959 70.76C423.447 70.4613 423.004 70.0667 422.631 69.576L423.543 68.84C423.863 69.2453 424.22 69.56 424.615 69.784C425.009 69.9973 425.468 70.104 425.991 70.104C426.535 70.104 426.956 69.9867 427.255 69.752C427.564 69.5173 427.719 69.1867 427.719 68.76C427.719 68.44 427.612 68.168 427.399 67.944C427.196 67.7093 426.823 67.5493 426.279 67.464L425.623 67.368C425.239 67.3147 424.887 67.2347 424.567 67.128C424.247 67.0107 423.964 66.8613 423.719 66.68C423.484 66.488 423.297 66.2533 423.159 65.976C423.031 65.6987 422.967 65.368 422.967 64.984C422.967 64.5787 423.041 64.2267 423.191 63.928C423.34 63.6187 423.543 63.3627 423.799 63.16C424.065 62.9573 424.38 62.808 424.743 62.712C425.105 62.6053 425.495 62.552 425.911 62.552C426.583 62.552 427.143 62.6693 427.591 62.904C428.049 63.1387 428.449 63.464 428.791 63.88L427.943 64.648C427.761 64.392 427.495 64.1627 427.143 63.96C426.791 63.7467 426.348 63.64 425.815 63.64C425.281 63.64 424.876 63.7573 424.599 63.992C424.332 64.216 424.199 64.5253 424.199 64.92C424.199 65.3253 424.332 65.6187 424.599 65.8C424.876 65.9813 425.271 66.1147 425.783 66.2L426.423 66.296C427.34 66.4347 427.991 66.7013 428.375 67.096C428.759 67.48 428.951 67.9867 428.951 68.616C428.951 69.416 428.679 70.0453 428.135 70.504C427.591 70.9627 426.844 71.192 425.895 71.192ZM434.332 71.192C433.777 71.192 433.27 71.0907 432.812 70.888C432.353 70.6853 431.958 70.3973 431.628 70.024C431.308 69.64 431.057 69.1867 430.876 68.664C430.694 68.1307 430.604 67.5333 430.604 66.872C430.604 66.2213 430.694 65.6293 430.876 65.096C431.057 64.5627 431.308 64.1093 431.628 63.736C431.958 63.352 432.353 63.0587 432.812 62.856C433.27 62.6533 433.777 62.552 434.332 62.552C434.886 62.552 435.388 62.6533 435.836 62.856C436.294 63.0587 436.689 63.352 437.02 63.736C437.35 64.1093 437.606 64.5627 437.788 65.096C437.969 65.6293 438.06 66.2213 438.06 66.872C438.06 67.5333 437.969 68.1307 437.788 68.664C437.606 69.1867 437.35 69.64 437.02 70.024C436.689 70.3973 436.294 70.6853 435.836 70.888C435.388 71.0907 434.886 71.192 434.332 71.192ZM434.332 70.056C435.025 70.056 435.59 69.8427 436.028 69.416C436.465 68.9893 436.684 68.3387 436.684 67.464V66.28C436.684 65.4053 436.465 64.7547 436.028 64.328C435.59 63.9013 435.025 63.688 434.332 63.688C433.638 63.688 433.073 63.9013 432.636 64.328C432.198 64.7547 431.98 65.4053 431.98 66.28V67.464C431.98 68.3387 432.198 68.9893 432.636 69.416C433.073 69.8427 433.638 70.056 434.332 70.056ZM440.165 71V62.744H441.445V64.088H441.509C441.711 63.6187 441.994 63.2453 442.357 62.968C442.73 62.6907 443.226 62.552 443.845 62.552C444.698 62.552 445.37 62.8293 445.861 63.384C446.362 63.928 446.613 64.7013 446.613 65.704V71H445.333V65.928C445.333 64.4453 444.709 63.704 443.461 63.704C443.205 63.704 442.954 63.736 442.709 63.8C442.474 63.864 442.261 63.96 442.069 64.088C441.877 64.216 441.722 64.3813 441.605 64.584C441.498 64.776 441.445 65.0053 441.445 65.272V71H440.165Z" fill="#EAEAEA"/>
<line x1="326" y1="158" x2="426" y2="158" stroke="#FF07AA" stroke-width="10" stroke-linecap="round"/>
<line x1="326" y1="203" x2="379" y2="203" stroke="#FF07AA" stroke-width="10" stroke-linecap="round"/>
<line x1="326" y1="173" x2="477" y2="173" stroke="#60B7B2" stroke-width="10" stroke-linecap="round"/>
<line x1="326" y1="188" x2="477" y2="188" stroke="#60B7B2" stroke-width="10" stroke-linecap="round"/>
<line x1="326" y1="218" x2="420" y2="218" stroke="#60B7B2" stroke-width="10" stroke-linecap="round"/>
<path fill-rule="evenodd" clip-rule="evenodd" d="M327 106C323.962 106 321.5 108.462 321.5 111.5V118.853C321.5 120.233 320.381 121.353 319 121.353H315V124.353H319C320.381 124.353 321.5 125.472 321.5 126.853V134.205C321.5 137.243 323.962 139.705 327 139.705H335V136.705H327C325.619 136.705 324.5 135.586 324.5 134.205V126.853C324.5 125.277 323.837 123.855 322.775 122.853C323.837 121.85 324.5 120.429 324.5 118.853V111.5C324.5 110.119 325.619 109 327 109H335V106H327Z" fill="#808B98"/>
<path d="M315 121.353V120.353H314V121.353H315ZM315 124.353H314V125.353H315V124.353ZM335 139.705V140.705H336V139.705H335ZM335 136.705H336V135.705H335V136.705ZM322.775 122.853L322.088 122.126L321.318 122.853L322.088 123.58L322.775 122.853ZM335 109V110H336V109H335ZM335 106H336V105H335V106ZM322.5 111.5C322.5 109.015 324.515 107 327 107V105C323.41 105 320.5 107.91 320.5 111.5H322.5ZM322.5 118.853V111.5H320.5V118.853H322.5ZM319 122.353C320.933 122.353 322.5 120.786 322.5 118.853H320.5C320.5 119.681 319.828 120.353 319 120.353V122.353ZM319 120.353H315V122.353H319V120.353ZM314 121.353V124.353H316V121.353H314ZM315 125.353H319V123.353H315V125.353ZM319 125.353C319.828 125.353 320.5 126.024 320.5 126.853H322.5C322.5 124.92 320.933 123.353 319 123.353V125.353ZM320.5 126.853V134.205H322.5V126.853H320.5ZM320.5 134.205C320.5 137.795 323.41 140.705 327 140.705V138.705C324.515 138.705 322.5 136.691 322.5 134.205H320.5ZM327 140.705H335V138.705H327V140.705ZM336 139.705V136.705H334V139.705H336ZM335 135.705H327V137.705H335V135.705ZM327 135.705C326.172 135.705 325.5 135.034 325.5 134.205H323.5C323.5 136.138 325.067 137.705 327 137.705V135.705ZM325.5 134.205V126.853H323.5V134.205H325.5ZM325.5 126.853C325.5 124.99 324.715 123.309 323.461 122.126L322.088 123.58C322.959 124.402 323.5 125.563 323.5 126.853H325.5ZM323.5 118.853C323.5 120.142 322.959 121.304 322.088 122.126L323.461 123.58C324.715 122.396 325.5 120.715 325.5 118.853H323.5ZM323.5 111.5V118.853H325.5V111.5H323.5ZM327 108C325.067 108 323.5 109.567 323.5 111.5H325.5C325.5 110.672 326.172 110 327 110V108ZM335 108H327V110H335V108ZM334 106V109H336V106H334ZM327 107H335V105H327V107Z" fill="#808B98"/>
<path fill-rule="evenodd" clip-rule="evenodd" d="M323 267.59C326.038 267.59 328.5 265.128 328.5 262.09L328.5 254.738C328.5 253.358 329.617 252.24 330.995 252.238C330.997 252.238 330.998 252.238 331 252.238L335 252.238L335 249.238L331 249.238C330.999 249.238 330.997 249.238 330.996 249.238C329.617 249.235 328.5 248.117 328.5 246.738L328.5 239.385C328.5 236.347 326.038 233.885 323 233.885L315 233.885L315 236.885L323 236.885C324.381 236.885 325.5 238.004 325.5 239.385L325.5 246.738C325.5 248.314 326.163 249.735 327.225 250.738C326.163 251.74 325.5 253.161 325.5 254.738L325.5 262.09C325.5 263.471 324.381 264.59 323 264.59L315 264.59L315 267.59L323 267.59Z" fill="#808B98"/>
<path d="M328.5 262.09L327.5 262.09L328.5 262.09ZM328.5 254.738L329.5 254.738L328.5 254.738ZM330.995 252.238L330.993 251.238L330.993 251.238L330.995 252.238ZM331 252.238L331 253.238L331 252.238ZM335 252.238L335 253.238L336 253.238L336 252.238L335 252.238ZM335 249.238L336 249.238L336 248.238L335 248.238L335 249.238ZM331 249.238L331 248.238L331 249.238ZM330.996 249.238L330.994 250.238L330.996 250.238L330.996 249.238ZM328.5 246.738L329.5 246.738L328.5 246.738ZM328.5 239.385L327.5 239.385L328.5 239.385ZM323 233.885L323 232.885L323 233.885ZM315 233.885L315 232.885L314 232.885L314 233.885L315 233.885ZM315 236.885L314 236.885L314 237.885L315 237.885L315 236.885ZM323 236.885L323 237.885L323 236.885ZM325.5 239.385L324.5 239.385L325.5 239.385ZM325.5 246.738L326.5 246.738L325.5 246.738ZM327.225 250.738L327.912 251.465L328.682 250.738L327.912 250.01L327.225 250.738ZM325.5 254.738L326.5 254.738L325.5 254.738ZM325.5 262.09L324.5 262.09L325.5 262.09ZM315 264.59L315 263.59L314 263.59L314 264.59L315 264.59ZM315 267.59L314 267.59L314 268.59L315 268.59L315 267.59ZM327.5 262.09C327.5 264.575 325.485 266.59 323 266.59L323 268.59C326.59 268.59 329.5 265.68 329.5 262.09L327.5 262.09ZM327.5 254.738L327.5 262.09L329.5 262.09L329.5 254.738L327.5 254.738ZM330.993 251.238C329.063 251.241 327.5 252.807 327.5 254.738L329.5 254.738C329.5 253.91 330.17 253.239 330.997 253.238L330.993 251.238ZM331 251.238C330.998 251.238 330.995 251.238 330.993 251.238L330.997 253.238C330.998 253.238 330.999 253.238 331 253.238L331 251.238ZM331 253.238L335 253.238L335 251.238L331 251.238L331 253.238ZM334 249.238L334 252.238L336 252.238L336 249.238L334 249.238ZM331 250.238L335 250.238L335 248.238L331 248.238L331 250.238ZM330.996 250.238C330.997 250.238 330.998 250.238 330.998 250.238C330.999 250.238 331 250.238 331 250.238L331 248.238C330.999 248.238 330.998 248.238 330.997 248.238C330.996 248.238 330.996 248.238 330.996 248.238L330.996 250.238ZM330.997 248.238C330.17 248.236 329.5 247.565 329.5 246.738L327.5 246.738C327.5 248.668 329.064 250.234 330.994 250.238L330.997 248.238ZM329.5 246.738L329.5 239.385L327.5 239.385L327.5 246.738L329.5 246.738ZM329.5 239.385C329.5 235.795 326.59 232.885 323 232.885L323 234.885C325.485 234.885 327.5 236.9 327.5 239.385L329.5 239.385ZM323 232.885L315 232.885L315 234.885L323 234.885L323 232.885ZM314 233.885L314 236.885L316 236.885L316 233.885L314 233.885ZM315 237.885L323 237.885L323 235.885L315 235.885L315 237.885ZM323 237.885C323.828 237.885 324.5 238.556 324.5 239.385L326.5 239.385C326.5 237.452 324.933 235.885 323 235.885L323 237.885ZM324.5 239.385L324.5 246.738L326.5 246.738L326.5 239.385L324.5 239.385ZM324.5 246.738C324.5 248.6 325.285 250.281 326.539 251.465L327.912 250.01C327.041 249.189 326.5 248.027 326.5 246.738L324.5 246.738ZM326.5 254.738C326.5 253.448 327.041 252.286 327.912 251.465L326.539 250.01C325.285 251.194 324.5 252.875 324.5 254.738L326.5 254.738ZM326.5 262.09L326.5 254.738L324.5 254.738L324.5 262.09L326.5 262.09ZM323 265.59C324.933 265.59 326.5 264.023 326.5 262.09L324.5 262.09C324.5 262.919 323.828 263.59 323 263.59L323 265.59ZM315 265.59L323 265.59L323 263.59L315 263.59L315 265.59ZM316 267.59L316 264.59L314 264.59L314 267.59L316 267.59ZM323 266.59L315 266.59L315 268.59L323 268.59L323 266.59Z" fill="#808B98"/>
<rect width="221" height="361" rx="8" fill="url(#paint1_linear)"/>
<path d="M78.8683 71V66.584L75.0283 59.832H76.5643L79.5403 65.208H79.5883L82.5643 59.832H84.1003L80.2123 66.536V71H78.8683ZM87.9878 71.192C87.4331 71.192 86.9265 71.0907 86.4678 70.888C86.0091 70.6853 85.6145 70.3973 85.2838 70.024C84.9638 69.64 84.7131 69.1867 84.5318 68.664C84.3505 68.1307 84.2598 67.5333 84.2598 66.872C84.2598 66.2213 84.3505 65.6293 84.5318 65.096C84.7131 64.5627 84.9638 64.1093 85.2838 63.736C85.6145 63.352 86.0091 63.0587 86.4678 62.856C86.9265 62.6533 87.4331 62.552 87.9878 62.552C88.5425 62.552 89.0438 62.6533 89.4918 62.856C89.9505 63.0587 90.3451 63.352 90.6758 63.736C91.0065 64.1093 91.2625 64.5627 91.4438 65.096C91.6251 65.6293 91.7158 66.2213 91.7158 66.872C91.7158 67.5333 91.6251 68.1307 91.4438 68.664C91.2625 69.1867 91.0065 69.64 90.6758 70.024C90.3451 70.3973 89.9505 70.6853 89.4918 70.888C89.0438 71.0907 88.5425 71.192 87.9878 71.192ZM87.9878 70.056C88.6811 70.056 89.2465 69.8427 89.6838 69.416C90.1211 68.9893 90.3398 68.3387 90.3398 67.464V66.28C90.3398 65.4053 90.1211 64.7547 89.6838 64.328C89.2465 63.9013 88.6811 63.688 87.9878 63.688C87.2945 63.688 86.7291 63.9013 86.2918 64.328C85.8545 64.7547 85.6358 65.4053 85.6358 66.28V67.464C85.6358 68.3387 85.8545 68.9893 86.2918 69.416C86.7291 69.8427 87.2945 70.056 87.9878 70.056ZM98.9089 69.656H98.8449C98.7596 69.848 98.6529 70.04 98.5249 70.232C98.4076 70.4133 98.2583 70.5787 98.0769 70.728C97.8956 70.8667 97.6769 70.9787 97.4209 71.064C97.1649 71.1493 96.8663 71.192 96.5249 71.192C95.6716 71.192 94.9943 70.92 94.4929 70.376C93.9916 69.8213 93.7409 69.0427 93.7409 68.04V62.744H95.0209V67.816C95.0209 69.2987 95.6503 70.04 96.9089 70.04C97.1649 70.04 97.4103 70.008 97.6449 69.944C97.8903 69.88 98.1036 69.784 98.2849 69.656C98.4769 69.528 98.6263 69.368 98.7329 69.176C98.8503 68.9733 98.9089 68.7333 98.9089 68.456V62.744H100.189V71H98.9089V69.656ZM102.915 71V62.744H104.195V64.264H104.275C104.424 63.8693 104.691 63.5173 105.075 63.208C105.459 62.8987 105.987 62.744 106.659 62.744H107.155V64.024H106.403C105.709 64.024 105.165 64.1573 104.771 64.424C104.387 64.68 104.195 65.0053 104.195 65.4V71H102.915ZM115.643 71.192C115.067 71.192 114.55 71.0907 114.091 70.888C113.632 70.6853 113.243 70.3973 112.923 70.024C112.614 69.6507 112.374 69.1973 112.203 68.664C112.043 68.1307 111.963 67.5333 111.963 66.872C111.963 66.2107 112.043 65.6133 112.203 65.08C112.374 64.5467 112.614 64.0933 112.923 63.72C113.243 63.3467 113.632 63.0587 114.091 62.856C114.55 62.6533 115.067 62.552 115.643 62.552C116.464 62.552 117.12 62.7333 117.611 63.096C118.112 63.448 118.486 63.912 118.731 64.488L117.659 65.032C117.51 64.6053 117.264 64.2747 116.923 64.04C116.582 63.8053 116.155 63.688 115.643 63.688C115.259 63.688 114.923 63.752 114.635 63.88C114.347 63.9973 114.107 64.168 113.915 64.392C113.723 64.6053 113.579 64.8667 113.483 65.176C113.387 65.4747 113.339 65.8053 113.339 66.168V67.576C113.339 68.3013 113.531 68.8987 113.915 69.368C114.31 69.8267 114.886 70.056 115.643 70.056C116.678 70.056 117.424 69.576 117.883 68.616L118.811 69.24C118.544 69.8373 118.144 70.312 117.611 70.664C117.088 71.016 116.432 71.192 115.643 71.192ZM123.644 71.192C123.089 71.192 122.583 71.0907 122.124 70.888C121.665 70.6853 121.271 70.3973 120.94 70.024C120.62 69.64 120.369 69.1867 120.188 68.664C120.007 68.1307 119.916 67.5333 119.916 66.872C119.916 66.2213 120.007 65.6293 120.188 65.096C120.369 64.5627 120.62 64.1093 120.94 63.736C121.271 63.352 121.665 63.0587 122.124 62.856C122.583 62.6533 123.089 62.552 123.644 62.552C124.199 62.552 124.7 62.6533 125.148 62.856C125.607 63.0587 126.001 63.352 126.332 63.736C126.663 64.1093 126.919 64.5627 127.1 65.096C127.281 65.6293 127.372 66.2213 127.372 66.872C127.372 67.5333 127.281 68.1307 127.1 68.664C126.919 69.1867 126.663 69.64 126.332 70.024C126.001 70.3973 125.607 70.6853 125.148 70.888C124.7 71.0907 124.199 71.192 123.644 71.192ZM123.644 70.056C124.337 70.056 124.903 69.8427 125.34 69.416C125.777 68.9893 125.996 68.3387 125.996 67.464V66.28C125.996 65.4053 125.777 64.7547 125.34 64.328C124.903 63.9013 124.337 63.688 123.644 63.688C122.951 63.688 122.385 63.9013 121.948 64.328C121.511 64.7547 121.292 65.4053 121.292 66.28V67.464C121.292 68.3387 121.511 68.9893 121.948 69.416C122.385 69.8427 122.951 70.056 123.644 70.056ZM134.757 69.656H134.693C134.192 70.68 133.387 71.192 132.277 71.192C131.765 71.192 131.301 71.0907 130.885 70.888C130.469 70.6853 130.112 70.3973 129.813 70.024C129.525 69.6507 129.301 69.1973 129.141 68.664C128.992 68.1307 128.917 67.5333 128.917 66.872C128.917 66.2107 128.992 65.6133 129.141 65.08C129.301 64.5467 129.525 64.0933 129.813 63.72C130.112 63.3467 130.469 63.0587 130.885 62.856C131.301 62.6533 131.765 62.552 132.277 62.552C132.853 62.552 133.344 62.68 133.749 62.936C134.165 63.1813 134.48 63.5653 134.693 64.088H134.757V59.16H136.037V71H134.757V69.656ZM132.629 70.04C132.917 70.04 133.189 70.0027 133.445 69.928C133.712 69.8533 133.941 69.7467 134.133 69.608C134.325 69.4587 134.475 69.2827 134.581 69.08C134.699 68.8667 134.757 68.6267 134.757 68.36V65.288C134.757 65.064 134.699 64.856 134.581 64.664C134.475 64.4613 134.325 64.2907 134.133 64.152C133.941 64.0133 133.712 63.9067 133.445 63.832C133.189 63.7467 132.917 63.704 132.629 63.704C131.904 63.704 131.333 63.9333 130.917 64.392C130.501 64.84 130.293 65.432 130.293 66.168V67.576C130.293 68.312 130.501 68.9093 130.917 69.368C131.333 69.816 131.904 70.04 132.629 70.04ZM141.862 71.192C141.297 71.192 140.785 71.0907 140.326 70.888C139.878 70.6853 139.489 70.3973 139.158 70.024C138.838 69.64 138.588 69.1867 138.406 68.664C138.236 68.1307 138.15 67.5333 138.15 66.872C138.15 66.2213 138.236 65.6293 138.406 65.096C138.588 64.5627 138.838 64.1093 139.158 63.736C139.489 63.352 139.878 63.0587 140.326 62.856C140.785 62.6533 141.297 62.552 141.862 62.552C142.417 62.552 142.913 62.6533 143.35 62.856C143.788 63.0587 144.161 63.3413 144.47 63.704C144.78 64.056 145.014 64.4773 145.174 64.968C145.345 65.4587 145.43 65.9973 145.43 66.584V67.192H139.494V67.576C139.494 67.928 139.548 68.2587 139.654 68.568C139.772 68.8667 139.932 69.128 140.134 69.352C140.348 69.576 140.604 69.752 140.902 69.88C141.212 70.008 141.558 70.072 141.942 70.072C142.465 70.072 142.918 69.9493 143.302 69.704C143.697 69.4587 144.001 69.1067 144.214 68.648L145.126 69.304C144.86 69.8693 144.444 70.328 143.878 70.68C143.313 71.0213 142.641 71.192 141.862 71.192ZM141.862 63.624C141.51 63.624 141.19 63.688 140.902 63.816C140.614 63.9333 140.364 64.104 140.15 64.328C139.948 64.552 139.788 64.8187 139.67 65.128C139.553 65.4267 139.494 65.7573 139.494 66.12V66.232H144.054V66.056C144.054 65.32 143.852 64.7333 143.446 64.296C143.052 63.848 142.524 63.624 141.862 63.624Z" fill="#EAEAEA"/>
<line x1="27" y1="96" x2="104" y2="96" stroke="#9C2FBA" stroke-width="10" stroke-linecap="round"/>
<line x1="118" y1="96" x2="133" y2="96" stroke="#4362B1" stroke-width="10" stroke-linecap="round"/>
<line x1="147" y1="96" x2="194" y2="96" stroke="#9C2FBA" stroke-width="10" stroke-linecap="round"/>
<line x1="27" y1="126" x2="80" y2="126" stroke="#4362B1" stroke-width="10" stroke-linecap="round"/>
<line x1="179" y1="126" x2="194" y2="126" stroke="#4362B1" stroke-width="10" stroke-linecap="round"/>
<line x1="93" y1="126" x2="166" y2="126" stroke="#9C2FBA" stroke-width="10" stroke-linecap="round"/>
<line x1="27" y1="111" x2="42" y2="111" stroke="#9C2FBA" stroke-width="10" stroke-linecap="round"/>
<line x1="56" y1="111" x2="120" y2="111" stroke="#4362B1" stroke-width="10" stroke-linecap="round"/>
<line x1="133" y1="111" x2="194" y2="111" stroke="#9C2FBA" stroke-width="10" stroke-linecap="round"/>
<path d="M63.4331 221L62.3131 217.704H57.8011L56.6811 221H55.3211L59.2251 209.832H60.9371L64.8411 221H63.4331ZM60.0891 211.08H60.0091L58.1211 216.52H61.9771L60.0891 211.08ZM66.5631 212.744H67.8431V214.088H67.9071C68.1205 213.565 68.4298 213.181 68.8351 212.936C69.2511 212.68 69.7471 212.552 70.3231 212.552C70.8351 212.552 71.2991 212.653 71.7151 212.856C72.1311 213.059 72.4831 213.347 72.7711 213.72C73.0698 214.093 73.2938 214.547 73.4431 215.08C73.6031 215.613 73.6831 216.211 73.6831 216.872C73.6831 217.533 73.6031 218.131 73.4431 218.664C73.2938 219.197 73.0698 219.651 72.7711 220.024C72.4831 220.397 72.1311 220.685 71.7151 220.888C71.2991 221.091 70.8351 221.192 70.3231 221.192C69.2031 221.192 68.3978 220.68 67.9071 219.656H67.8431V224.2H66.5631V212.744ZM69.9711 220.04C70.6965 220.04 71.2671 219.816 71.6831 219.368C72.0991 218.909 72.3071 218.312 72.3071 217.576V216.168C72.3071 215.432 72.0991 214.84 71.6831 214.392C71.2671 213.933 70.6965 213.704 69.9711 213.704C69.6831 213.704 69.4058 213.747 69.1391 213.832C68.8831 213.907 68.6591 214.013 68.4671 214.152C68.2751 214.291 68.1205 214.461 68.0031 214.664C67.8965 214.856 67.8431 215.064 67.8431 215.288V218.36C67.8431 218.627 67.8965 218.867 68.0031 219.08C68.1205 219.283 68.2751 219.459 68.4671 219.608C68.6591 219.747 68.8831 219.853 69.1391 219.928C69.4058 220.003 69.6831 220.04 69.9711 220.04ZM75.8444 212.744H77.1244V214.088H77.1884C77.4017 213.565 77.711 213.181 78.1164 212.936C78.5324 212.68 79.0284 212.552 79.6044 212.552C80.1164 212.552 80.5804 212.653 80.9964 212.856C81.4124 213.059 81.7644 213.347 82.0524 213.72C82.351 214.093 82.575 214.547 82.7244 215.08C82.8844 215.613 82.9644 216.211 82.9644 216.872C82.9644 217.533 82.8844 218.131 82.7244 218.664C82.575 219.197 82.351 219.651 82.0524 220.024C81.7644 220.397 81.4124 220.685 80.9964 220.888C80.5804 221.091 80.1164 221.192 79.6044 221.192C78.4844 221.192 77.679 220.68 77.1884 219.656H77.1244V224.2H75.8444V212.744ZM79.2524 220.04C79.9777 220.04 80.5484 219.816 80.9644 219.368C81.3804 218.909 81.5884 218.312 81.5884 217.576V216.168C81.5884 215.432 81.3804 214.84 80.9644 214.392C80.5484 213.933 79.9777 213.704 79.2524 213.704C78.9644 213.704 78.687 213.747 78.4204 213.832C78.1644 213.907 77.9404 214.013 77.7484 214.152C77.5564 214.291 77.4017 214.461 77.2844 214.664C77.1777 214.856 77.1244 215.064 77.1244 215.288V218.36C77.1244 218.627 77.1777 218.867 77.2844 219.08C77.4017 219.283 77.5564 219.459 77.7484 219.608C77.9404 219.747 78.1644 219.853 78.4204 219.928C78.687 220.003 78.9644 220.04 79.2524 220.04ZM93.9576 211.592H93.8776L92.9336 213.464L90.2616 218.328L87.5896 213.464L86.6456 211.592H86.5656V221H85.2536V209.832H87.0456L90.2456 215.848H90.3256L93.5416 209.832H95.2696V221H93.9576V211.592ZM104.11 221C103.63 221 103.283 220.872 103.07 220.616C102.867 220.36 102.739 220.04 102.686 219.656H102.606C102.425 220.168 102.126 220.552 101.71 220.808C101.294 221.064 100.798 221.192 100.222 221.192C99.3473 221.192 98.6647 220.968 98.174 220.52C97.694 220.072 97.454 219.464 97.454 218.696C97.454 217.917 97.7367 217.32 98.302 216.904C98.878 216.488 99.7687 216.28 100.974 216.28H102.606V215.464C102.606 214.877 102.446 214.429 102.126 214.12C101.806 213.811 101.315 213.656 100.654 213.656C100.153 213.656 99.7313 213.768 99.39 213.992C99.0593 214.216 98.782 214.515 98.558 214.888L97.79 214.168C98.014 213.72 98.3713 213.341 98.862 213.032C99.3527 212.712 99.9713 212.552 100.718 212.552C101.721 212.552 102.499 212.797 103.054 213.288C103.609 213.779 103.886 214.461 103.886 215.336V219.88H104.83V221H104.11ZM100.43 220.104C100.75 220.104 101.043 220.067 101.31 219.992C101.577 219.917 101.806 219.811 101.998 219.672C102.19 219.533 102.339 219.373 102.446 219.192C102.553 219.011 102.606 218.813 102.606 218.6V217.24H100.91C100.174 217.24 99.6353 217.347 99.294 217.56C98.9633 217.773 98.798 218.083 98.798 218.488V218.824C98.798 219.229 98.942 219.544 99.23 219.768C99.5287 219.992 99.9287 220.104 100.43 220.104ZM106.657 212.744H107.937V214.088H108.001C108.214 213.565 108.524 213.181 108.929 212.936C109.345 212.68 109.841 212.552 110.417 212.552C110.929 212.552 111.393 212.653 111.809 212.856C112.225 213.059 112.577 213.347 112.865 213.72C113.164 214.093 113.388 214.547 113.537 215.08C113.697 215.613 113.777 216.211 113.777 216.872C113.777 217.533 113.697 218.131 113.537 218.664C113.388 219.197 113.164 219.651 112.865 220.024C112.577 220.397 112.225 220.685 111.809 220.888C111.393 221.091 110.929 221.192 110.417 221.192C109.297 221.192 108.492 220.68 108.001 219.656H107.937V224.2H106.657V212.744ZM110.065 220.04C110.79 220.04 111.361 219.816 111.777 219.368C112.193 218.909 112.401 218.312 112.401 217.576V216.168C112.401 215.432 112.193 214.84 111.777 214.392C111.361 213.933 110.79 213.704 110.065 213.704C109.777 213.704 109.5 213.747 109.233 213.832C108.977 213.907 108.753 214.013 108.561 214.152C108.369 214.291 108.214 214.461 108.097 214.664C107.99 214.856 107.937 215.064 107.937 215.288V218.36C107.937 218.627 107.99 218.867 108.097 219.08C108.214 219.283 108.369 219.459 108.561 219.608C108.753 219.747 108.977 219.853 109.233 219.928C109.5 220.003 109.777 220.04 110.065 220.04ZM122.791 221.192C122.215 221.192 121.698 221.091 121.239 220.888C120.781 220.685 120.391 220.397 120.071 220.024C119.762 219.651 119.522 219.197 119.351 218.664C119.191 218.131 119.111 217.533 119.111 216.872C119.111 216.211 119.191 215.613 119.351 215.08C119.522 214.547 119.762 214.093 120.071 213.72C120.391 213.347 120.781 213.059 121.239 212.856C121.698 212.653 122.215 212.552 122.791 212.552C123.613 212.552 124.269 212.733 124.759 213.096C125.261 213.448 125.634 213.912 125.879 214.488L124.807 215.032C124.658 214.605 124.413 214.275 124.071 214.04C123.73 213.805 123.303 213.688 122.791 213.688C122.407 213.688 122.071 213.752 121.783 213.88C121.495 213.997 121.255 214.168 121.063 214.392C120.871 214.605 120.727 214.867 120.631 215.176C120.535 215.475 120.487 215.805 120.487 216.168V217.576C120.487 218.301 120.679 218.899 121.063 219.368C121.458 219.827 122.034 220.056 122.791 220.056C123.826 220.056 124.573 219.576 125.031 218.616L125.959 219.24C125.693 219.837 125.293 220.312 124.759 220.664C124.237 221.016 123.581 221.192 122.791 221.192ZM129.126 221C128.678 221 128.337 220.877 128.102 220.632C127.878 220.376 127.766 220.056 127.766 219.672V209.16H129.046V219.88H130.262V221H129.126ZM132.766 210.808C132.488 210.808 132.286 210.744 132.158 210.616C132.04 210.477 131.982 210.301 131.982 210.088V209.88C131.982 209.667 132.04 209.496 132.158 209.368C132.286 209.229 132.488 209.16 132.766 209.16C133.043 209.16 133.24 209.229 133.358 209.368C133.486 209.496 133.55 209.667 133.55 209.88V210.088C133.55 210.301 133.486 210.477 133.358 210.616C133.24 210.744 133.043 210.808 132.766 210.808ZM132.126 212.744H133.406V221H132.126V212.744ZM139.23 221.192C138.664 221.192 138.152 221.091 137.694 220.888C137.246 220.685 136.856 220.397 136.526 220.024C136.206 219.64 135.955 219.187 135.774 218.664C135.603 218.131 135.518 217.533 135.518 216.872C135.518 216.221 135.603 215.629 135.774 215.096C135.955 214.563 136.206 214.109 136.526 213.736C136.856 213.352 137.246 213.059 137.694 212.856C138.152 212.653 138.664 212.552 139.23 212.552C139.784 212.552 140.28 212.653 140.718 212.856C141.155 213.059 141.528 213.341 141.838 213.704C142.147 214.056 142.382 214.477 142.542 214.968C142.712 215.459 142.798 215.997 142.798 216.584V217.192H136.862V217.576C136.862 217.928 136.915 218.259 137.022 218.568C137.139 218.867 137.299 219.128 137.502 219.352C137.715 219.576 137.971 219.752 138.27 219.88C138.579 220.008 138.926 220.072 139.31 220.072C139.832 220.072 140.286 219.949 140.67 219.704C141.064 219.459 141.368 219.107 141.582 218.648L142.494 219.304C142.227 219.869 141.811 220.328 141.246 220.68C140.68 221.021 140.008 221.192 139.23 221.192ZM139.23 213.624C138.878 213.624 138.558 213.688 138.27 213.816C137.982 213.933 137.731 214.104 137.518 214.328C137.315 214.552 137.155 214.819 137.038 215.128C136.92 215.427 136.862 215.757 136.862 216.12V216.232H141.422V216.056C141.422 215.32 141.219 214.733 140.814 214.296C140.419 213.848 139.891 213.624 139.23 213.624ZM144.907 221V212.744H146.187V214.088H146.251C146.454 213.619 146.736 213.245 147.099 212.968C147.472 212.691 147.968 212.552 148.587 212.552C149.44 212.552 150.112 212.829 150.603 213.384C151.104 213.928 151.355 214.701 151.355 215.704V221H150.075V215.928C150.075 214.445 149.451 213.704 148.203 213.704C147.947 213.704 147.696 213.736 147.451 213.8C147.216 213.864 147.003 213.96 146.811 214.088C146.619 214.216 146.464 214.381 146.347 214.584C146.24 214.776 146.187 215.005 146.187 215.272V221H144.907ZM155.825 221C155.377 221 155.035 220.877 154.801 220.632C154.577 220.376 154.465 220.045 154.465 219.64V213.864H153.105V212.744H153.873C154.15 212.744 154.337 212.691 154.433 212.584C154.539 212.467 154.593 212.269 154.593 211.992V210.456H155.745V212.744H157.553V213.864H155.745V219.88H157.425V221H155.825ZM162.09 221.192C161.322 221.192 160.677 221.048 160.154 220.76C159.642 220.461 159.199 220.067 158.826 219.576L159.738 218.84C160.058 219.245 160.415 219.56 160.81 219.784C161.205 219.997 161.663 220.104 162.186 220.104C162.73 220.104 163.151 219.987 163.45 219.752C163.759 219.517 163.914 219.187 163.914 218.76C163.914 218.44 163.807 218.168 163.594 217.944C163.391 217.709 163.018 217.549 162.474 217.464L161.818 217.368C161.434 217.315 161.082 217.235 160.762 217.128C160.442 217.011 160.159 216.861 159.914 216.68C159.679 216.488 159.493 216.253 159.354 215.976C159.226 215.699 159.162 215.368 159.162 214.984C159.162 214.579 159.237 214.227 159.386 213.928C159.535 213.619 159.738 213.363 159.994 213.16C160.261 212.957 160.575 212.808 160.938 212.712C161.301 212.605 161.69 212.552 162.106 212.552C162.778 212.552 163.338 212.669 163.786 212.904C164.245 213.139 164.645 213.464 164.986 213.88L164.138 214.648C163.957 214.392 163.69 214.163 163.338 213.96C162.986 213.747 162.543 213.64 162.01 213.64C161.477 213.64 161.071 213.757 160.794 213.992C160.527 214.216 160.394 214.525 160.394 214.92C160.394 215.325 160.527 215.619 160.794 215.8C161.071 215.981 161.466 216.115 161.978 216.2L162.618 216.296C163.535 216.435 164.186 216.701 164.57 217.096C164.954 217.48 165.146 217.987 165.146 218.616C165.146 219.416 164.874 220.045 164.33 220.504C163.786 220.963 163.039 221.192 162.09 221.192Z" fill="#EAEAEA"/>
<rect x="26" y="246" width="169" height="39" rx="8" fill="url(#paint2_linear)"/>
<path d="M90.4864 260.832V269.104C90.4864 269.573 90.4064 270 90.2464 270.384C90.097 270.768 89.8784 271.093 89.5904 271.36C89.313 271.627 88.977 271.835 88.5824 271.984C88.1877 272.123 87.7557 272.192 87.2864 272.192C86.4224 272.192 85.7237 271.963 85.1904 271.504C84.6677 271.035 84.3317 270.416 84.1824 269.648L85.3984 269.36C85.505 269.84 85.7077 270.235 86.0064 270.544C86.305 270.843 86.7424 270.992 87.3184 270.992C87.8944 270.992 88.3424 270.816 88.6624 270.464C88.9824 270.112 89.1424 269.579 89.1424 268.864V262.016H85.3024V260.832H90.4864ZM99.2506 272C98.7706 272 98.424 271.872 98.2106 271.616C98.008 271.36 97.88 271.04 97.8266 270.656H97.7466C97.5653 271.168 97.2666 271.552 96.8506 271.808C96.4346 272.064 95.9386 272.192 95.3626 272.192C94.488 272.192 93.8053 271.968 93.3146 271.52C92.8346 271.072 92.5946 270.464 92.5946 269.696C92.5946 268.917 92.8773 268.32 93.4426 267.904C94.0186 267.488 94.9093 267.28 96.1146 267.28H97.7466V266.464C97.7466 265.877 97.5866 265.429 97.2666 265.12C96.9466 264.811 96.456 264.656 95.7946 264.656C95.2933 264.656 94.872 264.768 94.5306 264.992C94.2 265.216 93.9226 265.515 93.6986 265.888L92.9306 265.168C93.1546 264.72 93.512 264.341 94.0026 264.032C94.4933 263.712 95.112 263.552 95.8586 263.552C96.8613 263.552 97.64 263.797 98.1946 264.288C98.7493 264.779 99.0266 265.461 99.0266 266.336V270.88H99.9706V272H99.2506ZM95.5706 271.104C95.8906 271.104 96.184 271.067 96.4506 270.992C96.7173 270.917 96.9466 270.811 97.1386 270.672C97.3306 270.533 97.48 270.373 97.5866 270.192C97.6933 270.011 97.7466 269.813 97.7466 269.6V268.24H96.0506C95.3146 268.24 94.776 268.347 94.4346 268.56C94.104 268.773 93.9386 269.083 93.9386 269.488V269.824C93.9386 270.229 94.0826 270.544 94.3706 270.768C94.6693 270.992 95.0693 271.104 95.5706 271.104ZM103.497 272L100.601 263.744H101.881L103.321 267.84L104.217 270.656H104.297L105.193 267.84L106.665 263.744H107.897L104.985 272H103.497ZM115.407 272C114.927 272 114.58 271.872 114.367 271.616C114.164 271.36 114.036 271.04 113.983 270.656H113.903C113.722 271.168 113.423 271.552 113.007 271.808C112.591 272.064 112.095 272.192 111.519 272.192C110.644 272.192 109.962 271.968 109.471 271.52C108.991 271.072 108.751 270.464 108.751 269.696C108.751 268.917 109.034 268.32 109.599 267.904C110.175 267.488 111.066 267.28 112.271 267.28H113.903V266.464C113.903 265.877 113.743 265.429 113.423 265.12C113.103 264.811 112.612 264.656 111.951 264.656C111.45 264.656 111.028 264.768 110.687 264.992C110.356 265.216 110.079 265.515 109.855 265.888L109.087 265.168C109.311 264.72 109.668 264.341 110.159 264.032C110.65 263.712 111.268 263.552 112.015 263.552C113.018 263.552 113.796 263.797 114.351 264.288C114.906 264.779 115.183 265.461 115.183 266.336V270.88H116.127V272H115.407ZM111.727 271.104C112.047 271.104 112.34 271.067 112.607 270.992C112.874 270.917 113.103 270.811 113.295 270.672C113.487 270.533 113.636 270.373 113.743 270.192C113.85 270.011 113.903 269.813 113.903 269.6V268.24H112.207C111.471 268.24 110.932 268.347 110.591 268.56C110.26 268.773 110.095 269.083 110.095 269.488V269.824C110.095 270.229 110.239 270.544 110.527 270.768C110.826 270.992 111.226 271.104 111.727 271.104ZM124.807 272.192C124.231 272.192 123.714 272.091 123.255 271.888C122.796 271.685 122.407 271.397 122.087 271.024C121.778 270.651 121.538 270.197 121.367 269.664C121.207 269.131 121.127 268.533 121.127 267.872C121.127 267.211 121.207 266.613 121.367 266.08C121.538 265.547 121.778 265.093 122.087 264.72C122.407 264.347 122.796 264.059 123.255 263.856C123.714 263.653 124.231 263.552 124.807 263.552C125.628 263.552 126.284 263.733 126.775 264.096C127.276 264.448 127.65 264.912 127.895 265.488L126.823 266.032C126.674 265.605 126.428 265.275 126.087 265.04C125.746 264.805 125.319 264.688 124.807 264.688C124.423 264.688 124.087 264.752 123.799 264.88C123.511 264.997 123.271 265.168 123.079 265.392C122.887 265.605 122.743 265.867 122.647 266.176C122.551 266.475 122.503 266.805 122.503 267.168V268.576C122.503 269.301 122.695 269.899 123.079 270.368C123.474 270.827 124.05 271.056 124.807 271.056C125.842 271.056 126.588 270.576 127.047 269.616L127.975 270.24C127.708 270.837 127.308 271.312 126.775 271.664C126.252 272.016 125.596 272.192 124.807 272.192ZM131.142 272C130.694 272 130.353 271.877 130.118 271.632C129.894 271.376 129.782 271.056 129.782 270.672V260.16H131.062V270.88H132.278V272H131.142ZM134.781 261.808C134.504 261.808 134.301 261.744 134.173 261.616C134.056 261.477 133.997 261.301 133.997 261.088V260.88C133.997 260.667 134.056 260.496 134.173 260.368C134.301 260.229 134.504 260.16 134.781 260.16C135.059 260.16 135.256 260.229 135.373 260.368C135.501 260.496 135.565 260.667 135.565 260.88V261.088C135.565 261.301 135.501 261.477 135.373 261.616C135.256 261.744 135.059 261.808 134.781 261.808ZM134.141 263.744H135.421V272H134.141V263.744ZM141.245 272.192C140.68 272.192 140.168 272.091 139.709 271.888C139.261 271.685 138.872 271.397 138.541 271.024C138.221 270.64 137.971 270.187 137.789 269.664C137.619 269.131 137.533 268.533 137.533 267.872C137.533 267.221 137.619 266.629 137.789 266.096C137.971 265.563 138.221 265.109 138.541 264.736C138.872 264.352 139.261 264.059 139.709 263.856C140.168 263.653 140.68 263.552 141.245 263.552C141.8 263.552 142.296 263.653 142.733 263.856C143.171 264.059 143.544 264.341 143.853 264.704C144.163 265.056 144.397 265.477 144.557 265.968C144.728 266.459 144.813 266.997 144.813 267.584V268.192H138.877V268.576C138.877 268.928 138.931 269.259 139.037 269.568C139.155 269.867 139.315 270.128 139.517 270.352C139.731 270.576 139.987 270.752 140.285 270.88C140.595 271.008 140.941 271.072 141.325 271.072C141.848 271.072 142.301 270.949 142.685 270.704C143.08 270.459 143.384 270.107 143.597 269.648L144.509 270.304C144.243 270.869 143.827 271.328 143.261 271.68C142.696 272.021 142.024 272.192 141.245 272.192ZM141.245 264.624C140.893 264.624 140.573 264.688 140.285 264.816C139.997 264.933 139.747 265.104 139.533 265.328C139.331 265.552 139.171 265.819 139.053 266.128C138.936 266.427 138.877 266.757 138.877 267.12V267.232H143.437V267.056C143.437 266.32 143.235 265.733 142.829 265.296C142.435 264.848 141.907 264.624 141.245 264.624ZM146.923 272V263.744H148.203V265.088H148.267C148.469 264.619 148.752 264.245 149.115 263.968C149.488 263.691 149.984 263.552 150.603 263.552C151.456 263.552 152.128 263.829 152.619 264.384C153.12 264.928 153.371 265.701 153.371 266.704V272H152.091V266.928C152.091 265.445 151.467 264.704 150.219 264.704C149.963 264.704 149.712 264.736 149.467 264.8C149.232 264.864 149.019 264.96 148.827 265.088C148.635 265.216 148.48 265.381 148.363 265.584C148.256 265.776 148.203 266.005 148.203 266.272V272H146.923ZM157.84 272C157.392 272 157.051 271.877 156.816 271.632C156.592 271.376 156.48 271.045 156.48 270.64V264.864H155.12V263.744H155.888C156.166 263.744 156.352 263.691 156.448 263.584C156.555 263.467 156.608 263.269 156.608 262.992V261.456H157.76V263.744H159.568V264.864H157.76V270.88H159.44V272H157.84Z" fill="#EAEAEA"/>
<path d="M59.0637 268.836C59.6009 268.422 60.3465 268.063 60.3465 268.063C60.3465 268.063 58.2249 268.496 56.1144 268.694C53.5323 268.935 50.7585 268.984 49.366 268.774C46.0713 268.28 51.1751 266.913 51.1751 266.913C51.1751 266.913 49.1961 266.765 46.7566 268.088C43.8785 269.658 53.8832 270.376 59.0637 268.836ZM54.3821 266.851C53.3405 264.211 49.8265 261.892 54.3821 257.836C60.0647 252.777 57.1505 249.488 57.1505 249.488C58.3291 254.713 53.0061 256.296 51.0819 259.542C49.7717 261.762 51.7233 264.143 54.3821 266.851V266.851ZM60.6644 255.956C60.6699 255.956 51.06 258.664 55.6484 264.625C57.0025 266.381 55.2921 267.964 55.2921 267.964C55.2921 267.964 58.7293 265.961 57.1505 263.456C55.6758 261.119 54.5465 259.956 60.6644 255.956V255.956ZM60.33 272.682C60.3001 272.741 60.2632 272.795 60.2204 272.843C67.2538 270.759 64.6663 265.491 61.3058 266.826C61.1243 266.902 60.9675 267.038 60.8563 267.216C61.0525 267.136 61.2542 267.074 61.4593 267.03C63.1587 266.629 65.5982 269.597 60.33 272.682V272.682ZM62.9153 276.534C62.9153 276.534 63.7102 277.27 62.0437 277.845C58.8696 278.928 48.843 279.255 46.0582 277.889C45.055 277.4 46.9353 276.714 47.5274 276.572C48.1413 276.423 48.4977 276.448 48.4977 276.448C47.3848 275.564 41.2998 278.185 45.4058 278.934C56.6023 280.987 65.8208 278.012 62.9153 276.534ZM50.6598 273.975C46.3454 275.335 53.2857 278.142 58.7786 275.489C58.2429 275.255 57.7258 274.969 57.2327 274.636C54.7822 275.162 53.6475 275.199 51.4218 274.914C49.5853 274.679 50.6598 273.975 50.6598 273.975V273.975ZM60.5164 279.985C56.2021 280.9 50.8791 280.795 47.7269 280.207C47.7269 280.201 48.3738 280.807 51.6959 281.048C56.7503 281.413 64.5128 280.844 64.6937 278.148C64.6937 278.148 64.3429 279.169 60.5164 279.985V279.985ZM58.1263 271.316C54.8809 272.021 53.0006 272.002 50.6269 271.724C48.7904 271.507 49.991 270.506 49.991 270.506C45.2326 272.286 52.6333 274.302 59.283 272.107C58.8532 271.936 58.4594 271.666 58.1263 271.316Z" fill="#EAEAEA"/>
<rect x="26" y="291" width="169" height="39" rx="8" fill="url(#paint3_linear)"/>
<path d="M84.7383 317H83.3943V305.832H87.8423C88.8236 305.832 89.5863 306.104 90.1302 306.648C90.6849 307.192 90.9623 307.976 90.9623 309C90.9623 309.821 90.7703 310.499 90.3863 311.032C90.0129 311.555 89.4583 311.901 88.7223 312.072L91.2823 317H89.7623L87.3463 312.2H84.7383V317ZM87.8423 311.048C88.3756 311.048 88.7863 310.909 89.0743 310.632C89.3729 310.355 89.5223 309.96 89.5223 309.448V308.616C89.5223 308.104 89.3729 307.709 89.0743 307.432C88.7863 307.155 88.3756 307.016 87.8423 307.016H84.7383V311.048H87.8423ZM98.5886 315.656H98.5246C98.4393 315.848 98.3326 316.04 98.2046 316.232C98.0873 316.413 97.938 316.579 97.7566 316.728C97.5753 316.867 97.3566 316.979 97.1006 317.064C96.8446 317.149 96.546 317.192 96.2046 317.192C95.3513 317.192 94.674 316.92 94.1726 316.376C93.6713 315.821 93.4206 315.043 93.4206 314.04V308.744H94.7006V313.816C94.7006 315.299 95.33 316.04 96.5886 316.04C96.8446 316.04 97.09 316.008 97.3246 315.944C97.57 315.88 97.7833 315.784 97.9646 315.656C98.1566 315.528 98.306 315.368 98.4126 315.176C98.53 314.973 98.5886 314.733 98.5886 314.456V308.744H99.8686V317H98.5886V315.656ZM102.594 305.16H103.874V310.088H103.938C104.152 309.565 104.461 309.181 104.866 308.936C105.282 308.68 105.778 308.552 106.354 308.552C106.866 308.552 107.33 308.653 107.746 308.856C108.162 309.059 108.514 309.347 108.802 309.72C109.101 310.093 109.325 310.547 109.474 311.08C109.634 311.613 109.714 312.211 109.714 312.872C109.714 313.533 109.634 314.131 109.474 314.664C109.325 315.197 109.101 315.651 108.802 316.024C108.514 316.397 108.162 316.685 107.746 316.888C107.33 317.091 106.866 317.192 106.354 317.192C105.234 317.192 104.429 316.68 103.938 315.656H103.874V317H102.594V305.16ZM106.002 316.04C106.728 316.04 107.298 315.816 107.714 315.368C108.13 314.909 108.338 314.312 108.338 313.576V312.168C108.338 311.432 108.13 310.84 107.714 310.392C107.298 309.933 106.728 309.704 106.002 309.704C105.714 309.704 105.437 309.747 105.17 309.832C104.914 309.907 104.69 310.013 104.498 310.152C104.306 310.291 104.152 310.461 104.034 310.664C103.928 310.856 103.874 311.064 103.874 311.288V314.36C103.874 314.627 103.928 314.867 104.034 315.08C104.152 315.283 104.306 315.459 104.498 315.608C104.69 315.747 104.914 315.853 105.17 315.928C105.437 316.003 105.714 316.04 106.002 316.04ZM116.886 308.744H118.15L114.454 318.92C114.358 319.165 114.262 319.368 114.166 319.528C114.07 319.699 113.952 319.832 113.814 319.928C113.675 320.024 113.499 320.093 113.286 320.136C113.083 320.179 112.832 320.2 112.534 320.2H111.878V319.08H113.174L113.798 317.32L110.71 308.744H111.99L113.974 314.36L114.358 315.704H114.438L114.886 314.36L116.886 308.744ZM126.635 317.192C126.059 317.192 125.542 317.091 125.083 316.888C124.624 316.685 124.235 316.397 123.915 316.024C123.606 315.651 123.366 315.197 123.195 314.664C123.035 314.131 122.955 313.533 122.955 312.872C122.955 312.211 123.035 311.613 123.195 311.08C123.366 310.547 123.606 310.093 123.915 309.72C124.235 309.347 124.624 309.059 125.083 308.856C125.542 308.653 126.059 308.552 126.635 308.552C127.456 308.552 128.112 308.733 128.603 309.096C129.104 309.448 129.478 309.912 129.723 310.488L128.651 311.032C128.502 310.605 128.256 310.275 127.915 310.04C127.574 309.805 127.147 309.688 126.635 309.688C126.251 309.688 125.915 309.752 125.627 309.88C125.339 309.997 125.099 310.168 124.907 310.392C124.715 310.605 124.571 310.867 124.475 311.176C124.379 311.475 124.331 311.805 124.331 312.168V313.576C124.331 314.301 124.523 314.899 124.907 315.368C125.302 315.827 125.878 316.056 126.635 316.056C127.67 316.056 128.416 315.576 128.875 314.616L129.803 315.24C129.536 315.837 129.136 316.312 128.603 316.664C128.08 317.016 127.424 317.192 126.635 317.192ZM132.97 317C132.522 317 132.181 316.877 131.946 316.632C131.722 316.376 131.61 316.056 131.61 315.672V305.16H132.89V315.88H134.106V317H132.97ZM136.609 306.808C136.332 306.808 136.129 306.744 136.001 306.616C135.884 306.477 135.825 306.301 135.825 306.088V305.88C135.825 305.667 135.884 305.496 136.001 305.368C136.129 305.229 136.332 305.16 136.609 305.16C136.887 305.16 137.084 305.229 137.201 305.368C137.329 305.496 137.393 305.667 137.393 305.88V306.088C137.393 306.301 137.329 306.477 137.201 306.616C137.084 306.744 136.887 306.808 136.609 306.808ZM135.969 308.744H137.249V317H135.969V308.744ZM143.073 317.192C142.508 317.192 141.996 317.091 141.537 316.888C141.089 316.685 140.7 316.397 140.369 316.024C140.049 315.64 139.799 315.187 139.617 314.664C139.447 314.131 139.361 313.533 139.361 312.872C139.361 312.221 139.447 311.629 139.617 311.096C139.799 310.563 140.049 310.109 140.369 309.736C140.7 309.352 141.089 309.059 141.537 308.856C141.996 308.653 142.508 308.552 143.073 308.552C143.628 308.552 144.124 308.653 144.561 308.856C144.999 309.059 145.372 309.341 145.681 309.704C145.991 310.056 146.225 310.477 146.385 310.968C146.556 311.459 146.641 311.997 146.641 312.584V313.192H140.705V313.576C140.705 313.928 140.759 314.259 140.865 314.568C140.983 314.867 141.143 315.128 141.345 315.352C141.559 315.576 141.815 315.752 142.113 315.88C142.423 316.008 142.769 316.072 143.153 316.072C143.676 316.072 144.129 315.949 144.513 315.704C144.908 315.459 145.212 315.107 145.425 314.648L146.337 315.304C146.071 315.869 145.655 316.328 145.089 316.68C144.524 317.021 143.852 317.192 143.073 317.192ZM143.073 309.624C142.721 309.624 142.401 309.688 142.113 309.816C141.825 309.933 141.575 310.104 141.361 310.328C141.159 310.552 140.999 310.819 140.881 311.128C140.764 311.427 140.705 311.757 140.705 312.12V312.232H145.265V312.056C145.265 311.32 145.063 310.733 144.657 310.296C144.263 309.848 143.735 309.624 143.073 309.624ZM148.751 317V308.744H150.031V310.088H150.095C150.297 309.619 150.58 309.245 150.943 308.968C151.316 308.691 151.812 308.552 152.431 308.552C153.284 308.552 153.956 308.829 154.447 309.384C154.948 309.928 155.199 310.701 155.199 311.704V317H153.919V311.928C153.919 310.445 153.295 309.704 152.047 309.704C151.791 309.704 151.54 309.736 151.295 309.8C151.06 309.864 150.847 309.96 150.655 310.088C150.463 310.216 150.308 310.381 150.191 310.584C150.084 310.776 150.031 311.005 150.031 311.272V317H148.751ZM159.668 317C159.22 317 158.879 316.877 158.644 316.632C158.42 316.376 158.308 316.045 158.308 315.64V309.864H156.948V308.744H157.716C157.994 308.744 158.18 308.691 158.276 308.584C158.383 308.467 158.436 308.269 158.436 307.992V306.456H159.588V308.744H161.396V309.864H159.588V315.88H161.268V317H159.668Z" fill="#EAEAEA"/>
<path fill-rule="evenodd" clip-rule="evenodd" d="M49.4868 317.709C53.9181 318.35 58.2707 318.979 62.7098 319.62C61.1974 316.954 59.7239 314.356 58.2386 311.737L49.4868 317.709V317.709ZM63.9605 302.952C63.5699 303.573 63.1785 304.193 62.7884 304.815C61.4486 306.949 60.109 309.083 58.7705 311.219C58.696 311.338 58.5994 311.432 58.7044 311.615C59.9977 313.877 61.2808 316.145 62.5672 318.411C62.7701 318.768 62.9753 319.125 63.2378 319.468C63.4979 313.969 63.7578 308.469 64.0178 302.969L63.9605 302.952V302.952ZM46.3054 310.003C46.3659 310.063 46.5169 310.099 46.5872 310.062C47.8278 309.416 49.0762 308.785 50.2896 308.086C50.6854 307.859 50.9897 307.45 51.3306 307.119C52.4595 306.023 53.5866 304.924 54.7132 303.826C54.7821 303.758 54.8637 303.693 54.9049 303.608C55.3095 302.771 55.7072 301.929 56.1189 301.063C55.628 300.868 55.1625 300.676 54.6913 300.502C54.6274 300.479 54.5267 300.526 54.4575 300.566C53.3667 301.212 52.2554 301.823 51.1992 302.526C50.6709 302.878 50.2404 303.397 49.7725 303.849C49.0184 304.578 48.2653 305.308 47.5222 306.05C47.325 306.247 47.1453 306.471 46.9917 306.708C46.4835 307.492 45.9904 308.287 45.4748 309.104C45.7629 309.42 46.025 309.721 46.3054 310.003V310.003ZM50.8393 308.931C50.2222 311.692 49.6088 314.437 48.9749 317.272C51.9472 315.244 54.851 313.263 57.7356 311.295C55.44 310.508 53.1519 309.724 50.8393 308.931ZM63.2028 302.978C60.6914 303.423 58.2401 303.856 55.7571 304.295C56.6028 306.474 57.4316 308.608 58.2839 310.804C59.933 308.18 61.5494 305.609 63.2028 302.978V302.978ZM50.9429 308.367C53.2044 309.144 55.4208 309.906 57.7017 310.69C56.8546 308.505 56.0367 306.396 55.2017 304.243C53.7795 305.62 52.3786 306.976 50.9429 308.367ZM46.3988 311.612C45.5968 313.642 44.822 315.603 44.0332 317.6C45.5492 317.552 47.0186 317.506 48.5386 317.459C47.825 315.509 47.1255 313.598 46.3988 311.612V311.612ZM48.5919 316.07L48.6477 316.057C49.1886 313.676 49.7374 311.311 50.2896 308.836C49.0576 309.514 47.8825 310.161 46.6752 310.825C47.2913 312.521 47.9483 314.31 48.5919 316.07V316.07ZM62.2939 302.592C61.5744 302.39 60.855 302.188 60.1353 301.988C59.1008 301.699 58.0655 301.415 57.0316 301.124C56.9024 301.088 56.809 301.064 56.733 301.229C56.3676 302.022 55.9908 302.809 55.6196 303.598C55.6081 303.623 55.6106 303.654 55.6017 303.716C57.842 303.356 60.0674 302.999 62.2924 302.642L62.2939 302.592ZM58.1202 300.789L63.9837 302.507C63.6475 301.492 63.3356 300.551 63.0149 299.584L58.1287 300.731L58.1202 300.789V300.789ZM49.0889 318.166C48.3628 318.078 47.6172 318.159 46.8807 318.173C46.2757 318.183 45.6707 318.208 45.0656 318.228C45.0034 318.23 44.9412 318.243 44.8791 318.314C49.8811 318.804 54.8829 319.293 59.8847 319.783L59.8949 319.713C58.2915 319.481 56.688 319.249 55.0846 319.017C53.0866 318.729 51.092 318.411 49.0889 318.166V318.166ZM44.1321 315.772C44.7767 314.189 45.4185 312.604 46.0656 311.022C46.1303 310.863 46.1253 310.755 45.9987 310.627C45.7279 310.354 45.4764 310.06 45.1805 309.735C44.7806 311.826 44.3904 313.865 44 315.904L44.0437 315.926C44.0736 315.875 44.11 315.827 44.1321 315.772V315.772ZM56.8359 300.371C57.9229 300.074 59.0256 299.842 60.1219 299.583C60.1929 299.566 60.2623 299.541 60.3321 299.52L60.3213 299.463C58.7772 299.683 57.2331 299.903 55.6112 300.134C56.0534 300.339 56.3942 300.492 56.8359 300.371Z" fill="#EAEAEA"/>
<line x1="552" y1="186.5" x2="512" y2="186.5" stroke="#CACED2" stroke-width="3"/>
<line x1="221" y1="185.5" y2="185.5" stroke="#808B98" stroke-opacity="0.4"/>
<rect x="583.5" y="209.5" width="218" height="151" rx="6.5" fill="#EAEAEA"/>
<path d="M672.918 252L671.798 248.704H667.286L666.166 252H664.806L668.71 240.832H670.422L674.326 252H672.918ZM669.574 242.08H669.494L667.606 247.52H671.462L669.574 242.08ZM676.048 252V243.744H677.328V245.088H677.392C677.594 244.619 677.877 244.245 678.24 243.968C678.613 243.691 679.109 243.552 679.728 243.552C680.581 243.552 681.253 243.829 681.744 244.384C682.245 244.928 682.496 245.701 682.496 246.704V252H681.216V246.928C681.216 245.445 680.592 244.704 679.344 244.704C679.088 244.704 678.837 244.736 678.592 244.8C678.357 244.864 678.144 244.96 677.952 245.088C677.76 245.216 677.605 245.381 677.488 245.584C677.381 245.776 677.328 246.005 677.328 246.272V252H676.048ZM691.141 252C690.661 252 690.315 251.872 690.101 251.616C689.899 251.36 689.771 251.04 689.717 250.656H689.637C689.456 251.168 689.157 251.552 688.741 251.808C688.325 252.064 687.829 252.192 687.253 252.192C686.379 252.192 685.696 251.968 685.205 251.52C684.725 251.072 684.485 250.464 684.485 249.696C684.485 248.917 684.768 248.32 685.333 247.904C685.909 247.488 686.8 247.28 688.005 247.28H689.637V246.464C689.637 245.877 689.477 245.429 689.157 245.12C688.837 244.811 688.347 244.656 687.685 244.656C687.184 244.656 686.763 244.768 686.421 244.992C686.091 245.216 685.813 245.515 685.589 245.888L684.821 245.168C685.045 244.72 685.403 244.341 685.893 244.032C686.384 243.712 687.003 243.552 687.749 243.552C688.752 243.552 689.531 243.797 690.085 244.288C690.64 244.779 690.917 245.461 690.917 246.336V250.88H691.861V252H691.141ZM687.461 251.104C687.781 251.104 688.075 251.067 688.341 250.992C688.608 250.917 688.837 250.811 689.029 250.672C689.221 250.533 689.371 250.373 689.477 250.192C689.584 250.011 689.637 249.813 689.637 249.6V248.24H687.941C687.205 248.24 686.667 248.347 686.325 248.56C685.995 248.773 685.829 249.083 685.829 249.488V249.824C685.829 250.229 685.973 250.544 686.261 250.768C686.56 250.992 686.96 251.104 687.461 251.104ZM695.048 252C694.6 252 694.259 251.877 694.024 251.632C693.8 251.376 693.688 251.056 693.688 250.672V240.16H694.968V250.88H696.184V252H695.048ZM702.979 243.744H704.243L700.547 253.92C700.451 254.165 700.355 254.368 700.259 254.528C700.163 254.699 700.046 254.832 699.907 254.928C699.769 255.024 699.593 255.093 699.379 255.136C699.177 255.179 698.926 255.2 698.627 255.2H697.971V254.08H699.267L699.891 252.32L696.803 243.744H698.083L700.067 249.36L700.451 250.704H700.531L700.979 249.36L702.979 243.744ZM705.044 252V250.928L709.732 244.864H705.188V243.744H711.284V244.704L706.5 250.88H711.412V252H705.044ZM716.245 252.192C715.68 252.192 715.168 252.091 714.709 251.888C714.261 251.685 713.872 251.397 713.541 251.024C713.221 250.64 712.971 250.187 712.789 249.664C712.619 249.131 712.533 248.533 712.533 247.872C712.533 247.221 712.619 246.629 712.789 246.096C712.971 245.563 713.221 245.109 713.541 244.736C713.872 244.352 714.261 244.059 714.709 243.856C715.168 243.653 715.68 243.552 716.245 243.552C716.8 243.552 717.296 243.653 717.733 243.856C718.171 244.059 718.544 244.341 718.853 244.704C719.163 245.056 719.397 245.477 719.557 245.968C719.728 246.459 719.813 246.997 719.813 247.584V248.192H713.877V248.576C713.877 248.928 713.931 249.259 714.037 249.568C714.155 249.867 714.315 250.128 714.517 250.352C714.731 250.576 714.987 250.752 715.285 250.88C715.595 251.008 715.941 251.072 716.325 251.072C716.848 251.072 717.301 250.949 717.685 250.704C718.08 250.459 718.384 250.107 718.597 249.648L719.509 250.304C719.243 250.869 718.827 251.328 718.261 251.68C717.696 252.021 717.024 252.192 716.245 252.192ZM716.245 244.624C715.893 244.624 715.573 244.688 715.285 244.816C714.997 244.933 714.747 245.104 714.533 245.328C714.331 245.552 714.171 245.819 714.053 246.128C713.936 246.427 713.877 246.757 713.877 247.12V247.232H718.437V247.056C718.437 246.32 718.235 245.733 717.829 245.296C717.435 244.848 716.907 244.624 716.245 244.624Z" fill="#242C41"/>
<path d="M789 345V275.096C789 271.615 784.862 269.795 782.296 272.148L773.204 280.487C771.674 281.89 769.326 281.89 767.796 280.487L758.704 272.148C757.174 270.745 754.826 270.745 753.296 272.148L744.204 280.487C742.674 281.89 740.326 281.89 738.796 280.487L734.204 276.275C732.674 274.872 730.326 274.872 728.796 276.275L704.204 298.83C702.674 300.233 700.326 300.233 698.796 298.83L687.704 288.656C686.174 287.254 683.826 287.254 682.296 288.656L666.204 303.415C664.674 304.818 662.326 304.818 660.796 303.415L655.704 298.745C654.174 297.342 651.826 297.342 650.296 298.745L645.204 303.415C643.674 304.818 641.326 304.818 639.796 303.415L624.5 289.387L605.704 272.148C603.138 269.795 599 271.615 599 275.096V345C599 347.209 600.791 349 603 349H785C787.209 349 789 347.209 789 345Z" fill="url(#paint4_linear)"/>
<line opacity="0.5" x1="594" y1="282.925" x2="797" y2="282.925" stroke="white"/>
<line opacity="0.5" x1="594" y1="293.931" x2="797" y2="293.931" stroke="white"/>
<line opacity="0.5" x1="594" y1="304.936" x2="797" y2="304.936" stroke="white"/>
<line opacity="0.5" x1="594" y1="315.942" x2="797" y2="315.942" stroke="white"/>
<line opacity="0.5" x1="594" y1="326.948" x2="797" y2="326.948" stroke="white"/>
<line opacity="0.5" x1="594" y1="337.953" x2="797" y2="337.953" stroke="white"/>
<rect x="583.5" y="209.5" width="218" height="151" rx="6.5" stroke="#808B98" stroke-width="3"/>
<rect x="583.5" y="1.5" width="218" height="151" rx="6.5" fill="#EAEAEA"/>
<path d="M664.735 43L661.023 31.832H662.463L664.303 37.464L665.535 41.656H665.615L666.879 37.464L668.735 31.832H670.127L666.367 43H664.735ZM672.453 32.808C672.176 32.808 671.973 32.744 671.845 32.616C671.728 32.4773 671.669 32.3013 671.669 32.088V31.88C671.669 31.6667 671.728 31.496 671.845 31.368C671.973 31.2293 672.176 31.16 672.453 31.16C672.73 31.16 672.928 31.2293 673.045 31.368C673.173 31.496 673.237 31.6667 673.237 31.88V32.088C673.237 32.3013 673.173 32.4773 673.045 32.616C672.928 32.744 672.73 32.808 672.453 32.808ZM671.813 34.744H673.093V43H671.813V34.744ZM678.293 43.192C677.525 43.192 676.88 43.048 676.357 42.76C675.845 42.4613 675.402 42.0667 675.029 41.576L675.941 40.84C676.261 41.2453 676.618 41.56 677.013 41.784C677.408 41.9973 677.866 42.104 678.389 42.104C678.933 42.104 679.354 41.9867 679.653 41.752C679.962 41.5173 680.117 41.1867 680.117 40.76C680.117 40.44 680.01 40.168 679.797 39.944C679.594 39.7093 679.221 39.5493 678.677 39.464L678.021 39.368C677.637 39.3147 677.285 39.2347 676.965 39.128C676.645 39.0107 676.362 38.8613 676.117 38.68C675.882 38.488 675.696 38.2533 675.557 37.976C675.429 37.6987 675.365 37.368 675.365 36.984C675.365 36.5787 675.44 36.2267 675.589 35.928C675.738 35.6187 675.941 35.3627 676.197 35.16C676.464 34.9573 676.778 34.808 677.141 34.712C677.504 34.6053 677.893 34.552 678.309 34.552C678.981 34.552 679.541 34.6693 679.989 34.904C680.448 35.1387 680.848 35.464 681.189 35.88L680.341 36.648C680.16 36.392 679.893 36.1627 679.541 35.96C679.189 35.7467 678.746 35.64 678.213 35.64C677.68 35.64 677.274 35.7573 676.997 35.992C676.73 36.216 676.597 36.5253 676.597 36.92C676.597 37.3253 676.73 37.6187 676.997 37.8C677.274 37.9813 677.669 38.1147 678.181 38.2L678.821 38.296C679.738 38.4347 680.389 38.7013 680.773 39.096C681.157 39.48 681.349 39.9867 681.349 40.616C681.349 41.416 681.077 42.0453 680.533 42.504C679.989 42.9627 679.242 43.192 678.293 43.192ZM688.698 41.656H688.634C688.549 41.848 688.442 42.04 688.314 42.232C688.197 42.4133 688.047 42.5787 687.866 42.728C687.685 42.8667 687.466 42.9787 687.21 43.064C686.954 43.1493 686.655 43.192 686.314 43.192C685.461 43.192 684.783 42.92 684.282 42.376C683.781 41.8213 683.53 41.0427 683.53 40.04V34.744H684.81V39.816C684.81 41.2987 685.439 42.04 686.698 42.04C686.954 42.04 687.199 42.008 687.434 41.944C687.679 41.88 687.893 41.784 688.074 41.656C688.266 41.528 688.415 41.368 688.522 41.176C688.639 40.9733 688.698 40.7333 688.698 40.456V34.744H689.978V43H688.698V41.656ZM698.704 43C698.224 43 697.877 42.872 697.664 42.616C697.461 42.36 697.333 42.04 697.28 41.656H697.2C697.018 42.168 696.72 42.552 696.304 42.808C695.888 43.064 695.392 43.192 694.816 43.192C693.941 43.192 693.258 42.968 692.768 42.52C692.288 42.072 692.048 41.464 692.048 40.696C692.048 39.9173 692.33 39.32 692.896 38.904C693.472 38.488 694.362 38.28 695.568 38.28H697.2V37.464C697.2 36.8773 697.04 36.4293 696.72 36.12C696.4 35.8107 695.909 35.656 695.248 35.656C694.746 35.656 694.325 35.768 693.984 35.992C693.653 36.216 693.376 36.5147 693.152 36.888L692.384 36.168C692.608 35.72 692.965 35.3413 693.456 35.032C693.946 34.712 694.565 34.552 695.312 34.552C696.314 34.552 697.093 34.7973 697.648 35.288C698.202 35.7787 698.48 36.4613 698.48 37.336V41.88H699.424V43H698.704ZM695.024 42.104C695.344 42.104 695.637 42.0667 695.904 41.992C696.17 41.9173 696.4 41.8107 696.592 41.672C696.784 41.5333 696.933 41.3733 697.04 41.192C697.146 41.0107 697.2 40.8133 697.2 40.6V39.24H695.504C694.768 39.24 694.229 39.3467 693.888 39.56C693.557 39.7733 693.392 40.0827 693.392 40.488V40.824C693.392 41.2293 693.536 41.544 693.824 41.768C694.122 41.992 694.522 42.104 695.024 42.104ZM702.611 43C702.163 43 701.821 42.8773 701.587 42.632C701.363 42.376 701.251 42.056 701.251 41.672V31.16H702.531V41.88H703.747V43H702.611ZM706.25 32.808C705.973 32.808 705.77 32.744 705.642 32.616C705.525 32.4773 705.466 32.3013 705.466 32.088V31.88C705.466 31.6667 705.525 31.496 705.642 31.368C705.77 31.2293 705.973 31.16 706.25 31.16C706.527 31.16 706.725 31.2293 706.842 31.368C706.97 31.496 707.034 31.6667 707.034 31.88V32.088C707.034 32.3013 706.97 32.4773 706.842 32.616C706.725 32.744 706.527 32.808 706.25 32.808ZM705.61 34.744H706.89V43H705.61V34.744ZM708.778 43V41.928L713.466 35.864H708.922V34.744H715.018V35.704L710.234 41.88H715.146V43H708.778ZM719.98 43.192C719.414 43.192 718.902 43.0907 718.444 42.888C717.996 42.6853 717.606 42.3973 717.276 42.024C716.956 41.64 716.705 41.1867 716.524 40.664C716.353 40.1307 716.268 39.5333 716.268 38.872C716.268 38.2213 716.353 37.6293 716.524 37.096C716.705 36.5627 716.956 36.1093 717.276 35.736C717.606 35.352 717.996 35.0587 718.444 34.856C718.902 34.6533 719.414 34.552 719.98 34.552C720.534 34.552 721.03 34.6533 721.468 34.856C721.905 35.0587 722.278 35.3413 722.588 35.704C722.897 36.056 723.132 36.4773 723.292 36.968C723.462 37.4587 723.548 37.9973 723.548 38.584V39.192H717.612V39.576C717.612 39.928 717.665 40.2587 717.772 40.568C717.889 40.8667 718.049 41.128 718.252 41.352C718.465 41.576 718.721 41.752 719.02 41.88C719.329 42.008 719.676 42.072 720.06 42.072C720.582 42.072 721.036 41.9493 721.42 41.704C721.814 41.4587 722.118 41.1067 722.332 40.648L723.244 41.304C722.977 41.8693 722.561 42.328 721.996 42.68C721.43 43.0213 720.758 43.192 719.98 43.192ZM719.98 35.624C719.628 35.624 719.308 35.688 719.02 35.816C718.732 35.9333 718.481 36.104 718.268 36.328C718.065 36.552 717.905 36.8187 717.788 37.128C717.67 37.4267 717.612 37.7573 717.612 38.12V38.232H722.172V38.056C722.172 37.32 721.969 36.7333 721.564 36.296C721.169 35.848 720.641 35.624 719.98 35.624Z" fill="#242C41"/>
<rect x="600" y="71" width="143" height="27.8571" rx="4" fill="#4362B1"/>
<rect x="697" y="108.143" width="91" height="27.8571" rx="4" fill="#9C2FBA"/>
<rect x="600" y="108.143" width="81" height="27.8571" rx="4" fill="#9C2FBA"/>
<line x1="644" y1="98.8571" x2="644" y2="108.143" stroke="#808B98" stroke-width="2"/>
<path d="M743 82.8182H753C755.209 82.8182 757 84.609 757 86.8182V108.143" stroke="#808B98" stroke-width="2"/>
<rect x="583.5" y="1.5" width="218" height="151" rx="6.5" stroke="#808B98" stroke-width="3"/>
<path d="M288.061 187.061C288.646 186.475 288.646 185.525 288.061 184.939L278.515 175.393C277.929 174.808 276.979 174.808 276.393 175.393C275.808 175.979 275.808 176.929 276.393 177.515L284.879 186L276.393 194.485C275.808 195.071 275.808 196.021 276.393 196.607C276.979 197.192 277.929 197.192 278.515 196.607L288.061 187.061ZM221 187.5L287 187.5L287 184.5L221 184.5L221 187.5Z" fill="#CACED2"/>
<path d="M578.061 81.0607C578.646 80.4749 578.646 79.5251 578.061 78.9393L568.515 69.3934C567.929 68.8076 566.979 68.8076 566.393 69.3934C565.808 69.9792 565.808 70.9289 566.393 71.5147L574.879 80L566.393 88.4853C565.808 89.0711 565.808 90.0208 566.393 90.6066C566.979 91.1924 567.929 91.1924 568.515 90.6066L578.061 81.0607ZM578.061 292.061C578.646 291.475 578.646 290.525 578.061 289.939L568.515 280.393C567.929 279.808 566.979 279.808 566.393 280.393C565.808 280.979 565.808 281.929 566.393 282.515L574.879 291L566.393 299.485C565.808 300.071 565.808 301.021 566.393 301.607C566.979 302.192 567.929 302.192 568.515 301.607L578.061 292.061ZM577 78.5H560V81.5H577V78.5ZM550.5 88V283H553.5V88H550.5ZM560 292.5H577V289.5H560V292.5ZM550.5 283C550.5 288.247 554.753 292.5 560 292.5V289.5C556.41 289.5 553.5 286.59 553.5 283H550.5ZM560 78.5C554.753 78.5 550.5 82.7533 550.5 88H553.5C553.5 84.4101 556.41 81.5 560 81.5V78.5Z" fill="#CACED2"/>
<defs>
<linearGradient id="paint0_linear" x1="401.5" y1="0" x2="401.5" y2="362" gradientUnits="userSpaceOnUse">
<stop stop-color="#242C41"/>
<stop offset="1" stop-color="#121620"/>
</linearGradient>
<linearGradient id="paint1_linear" x1="110.5" y1="0" x2="110.5" y2="361" gradientUnits="userSpaceOnUse">
<stop stop-color="#242C41"/>
<stop offset="1" stop-color="#121620"/>
</linearGradient>
<linearGradient id="paint2_linear" x1="110.5" y1="246" x2="110.5" y2="285" gradientUnits="userSpaceOnUse">
<stop stop-color="#F39114"/>
<stop offset="1" stop-color="#D98111"/>
</linearGradient>
<linearGradient id="paint3_linear" x1="110.5" y1="291" x2="110.5" y2="330" gradientUnits="userSpaceOnUse">
<stop stop-color="#CC342E"/>
<stop offset="1" stop-color="#B92E28"/>
</linearGradient>
<linearGradient id="paint4_linear" x1="694" y1="266" x2="694" y2="349.459" gradientUnits="userSpaceOnUse">
<stop stop-color="#9C2FBA"/>
<stop offset="1" stop-color="#9C2FBA" stop-opacity="0"/>
</linearGradient>
</defs>
</svg>
